<?xml version="1.0" encoding="utf-8" standalone="no"?>
<!DOCTYPE svg PUBLIC "-//W3C//DTD SVG 1.1//EN"
  "http://www.w3.org/Graphics/SVG/1.1/DTD/svg11.dtd">
<!-- Created with matplotlib (http://matplotlib.org/) -->
<svg height="2160pt" version="1.1" viewBox="0 0 2160 2160" width="2160pt" xmlns="http://www.w3.org/2000/svg" xmlns:xlink="http://www.w3.org/1999/xlink">
 <defs>
  <style type="text/css">
*{stroke-linecap:butt;stroke-linejoin:round;stroke-miterlimit:100000;}
  </style>
 </defs>
 <g id="figure_1">
  <g id="patch_1">
   <path d="M 0 2160 
L 2160 2160 
L 2160 0 
L 0 0 
z
" style="fill:#ffffff;"/>
  </g>
  <g id="axes_1">
   <g id="patch_2">
    <path d="M 270 1890 
L 1944 1890 
L 1944 216 
L 270 216 
z
" style="fill:#ffffff;"/>
   </g>
   <g id="LineCollection_1">
    <path clip-path="url(#p9c5a1745a2)" d="M 309.857143 1890 
L 309.857143 1603.116288 
L 336.428571 1603.116288 
L 336.428571 1890 
" style="fill:none;stroke:#008000;"/>
    <path clip-path="url(#p9c5a1745a2)" d="M 283.285714 1890 
L 283.285714 1264.241012 
L 323.142857 1264.241012 
L 323.142857 1603.116288 
" style="fill:none;stroke:#008000;"/>
    <path clip-path="url(#p9c5a1745a2)" d="M 389.571429 1890 
L 389.571429 1678.481873 
L 416.142857 1678.481873 
L 416.142857 1890 
" style="fill:none;stroke:#008000;"/>
    <path clip-path="url(#p9c5a1745a2)" d="M 495.857143 1890 
L 495.857143 1759.739662 
L 522.428571 1759.739662 
L 522.428571 1890 
" style="fill:none;stroke:#008000;"/>
    <path clip-path="url(#p9c5a1745a2)" d="M 469.285714 1890 
L 469.285714 1624.625085 
L 509.142857 1624.625085 
L 509.142857 1759.739662 
" style="fill:none;stroke:#008000;"/>
    <path clip-path="url(#p9c5a1745a2)" d="M 442.714286 1890 
L 442.714286 1597.515821 
L 489.214286 1597.515821 
L 489.214286 1624.625085 
" style="fill:none;stroke:#008000;"/>
    <path clip-path="url(#p9c5a1745a2)" d="M 402.857143 1678.481873 
L 402.857143 1564.557442 
L 465.964286 1564.557442 
L 465.964286 1597.515821 
" style="fill:none;stroke:#008000;"/>
    <path clip-path="url(#p9c5a1745a2)" d="M 363 1890 
L 363 1514.976348 
L 434.410714 1514.976348 
L 434.410714 1564.557442 
" style="fill:none;stroke:#008000;"/>
    <path clip-path="url(#p9c5a1745a2)" d="M 708.428571 1890 
L 708.428571 1861.769409 
L 735 1861.769409 
L 735 1890 
" style="fill:none;stroke:#008000;"/>
    <path clip-path="url(#p9c5a1745a2)" d="M 681.857143 1890 
L 681.857143 1790.446126 
L 721.714286 1790.446126 
L 721.714286 1861.769409 
" style="fill:none;stroke:#008000;"/>
    <path clip-path="url(#p9c5a1745a2)" d="M 761.571429 1890 
L 761.571429 1732.901783 
L 788.142857 1732.901783 
L 788.142857 1890 
" style="fill:none;stroke:#008000;"/>
    <path clip-path="url(#p9c5a1745a2)" d="M 701.785714 1790.446126 
L 701.785714 1719.885959 
L 774.857143 1719.885959 
L 774.857143 1732.901783 
" style="fill:none;stroke:#008000;"/>
    <path clip-path="url(#p9c5a1745a2)" d="M 947.571429 1890 
L 947.571429 1795.630957 
L 974.142857 1795.630957 
L 974.142857 1890 
" style="fill:none;stroke:#008000;"/>
    <path clip-path="url(#p9c5a1745a2)" d="M 1000.714286 1890 
L 1000.714286 1766.641207 
L 1027.285714 1766.641207 
L 1027.285714 1890 
" style="fill:none;stroke:#008000;"/>
    <path clip-path="url(#p9c5a1745a2)" d="M 960.857143 1795.630957 
L 960.857143 1762.467294 
L 1014 1762.467294 
L 1014 1766.641207 
" style="fill:none;stroke:#008000;"/>
    <path clip-path="url(#p9c5a1745a2)" d="M 921 1890 
L 921 1757.014495 
L 987.428571 1757.014495 
L 987.428571 1762.467294 
" style="fill:none;stroke:#008000;"/>
    <path clip-path="url(#p9c5a1745a2)" d="M 894.428571 1890 
L 894.428571 1753.561034 
L 954.214286 1753.561034 
L 954.214286 1757.014495 
" style="fill:none;stroke:#008000;"/>
    <path clip-path="url(#p9c5a1745a2)" d="M 867.857143 1890 
L 867.857143 1750.809438 
L 924.321429 1750.809438 
L 924.321429 1753.561034 
" style="fill:none;stroke:#008000;"/>
    <path clip-path="url(#p9c5a1745a2)" d="M 1080.428571 1890 
L 1080.428571 1818.918794 
L 1107 1818.918794 
L 1107 1890 
" style="fill:none;stroke:#008000;"/>
    <path clip-path="url(#p9c5a1745a2)" d="M 1133.571429 1890 
L 1133.571429 1789.289341 
L 1160.142857 1789.289341 
L 1160.142857 1890 
" style="fill:none;stroke:#008000;"/>
    <path clip-path="url(#p9c5a1745a2)" d="M 1186.714286 1890 
L 1186.714286 1779.771283 
L 1213.285714 1779.771283 
L 1213.285714 1890 
" style="fill:none;stroke:#008000;"/>
    <path clip-path="url(#p9c5a1745a2)" d="M 1146.857143 1789.289341 
L 1146.857143 1777.771218 
L 1200 1777.771218 
L 1200 1779.771283 
" style="fill:none;stroke:#008000;"/>
    <path clip-path="url(#p9c5a1745a2)" d="M 1239.857143 1890 
L 1239.857143 1837.382027 
L 1266.428571 1837.382027 
L 1266.428571 1890 
" style="fill:none;stroke:#008000;"/>
    <path clip-path="url(#p9c5a1745a2)" d="M 1293 1890 
L 1293 1784.34758 
L 1319.571429 1784.34758 
L 1319.571429 1890 
" style="fill:none;stroke:#008000;"/>
    <path clip-path="url(#p9c5a1745a2)" d="M 1253.142857 1837.382027 
L 1253.142857 1775.435255 
L 1306.285714 1775.435255 
L 1306.285714 1784.34758 
" style="fill:none;stroke:#008000;"/>
    <path clip-path="url(#p9c5a1745a2)" d="M 1173.428571 1777.771218 
L 1173.428571 1775.062549 
L 1279.714286 1775.062549 
L 1279.714286 1775.435255 
" style="fill:none;stroke:#008000;"/>
    <path clip-path="url(#p9c5a1745a2)" d="M 1093.714286 1818.918794 
L 1093.714286 1768.392391 
L 1226.571429 1768.392391 
L 1226.571429 1775.062549 
" style="fill:none;stroke:#008000;"/>
    <path clip-path="url(#p9c5a1745a2)" d="M 1053.857143 1890 
L 1053.857143 1746.832416 
L 1160.142857 1746.832416 
L 1160.142857 1768.392391 
" style="fill:none;stroke:#008000;"/>
    <path clip-path="url(#p9c5a1745a2)" d="M 896.089286 1750.809438 
L 896.089286 1746.329513 
L 1107 1746.329513 
L 1107 1746.832416 
" style="fill:none;stroke:#008000;"/>
    <path clip-path="url(#p9c5a1745a2)" d="M 1399.285714 1890 
L 1399.285714 1797.560616 
L 1425.857143 1797.560616 
L 1425.857143 1890 
" style="fill:none;stroke:#008000;"/>
    <path clip-path="url(#p9c5a1745a2)" d="M 1372.714286 1890 
L 1372.714286 1779.061166 
L 1412.571429 1779.061166 
L 1412.571429 1797.560616 
" style="fill:none;stroke:#008000;"/>
    <path clip-path="url(#p9c5a1745a2)" d="M 1346.142857 1890 
L 1346.142857 1742.755289 
L 1392.642857 1742.755289 
L 1392.642857 1779.061166 
" style="fill:none;stroke:#008000;"/>
    <path clip-path="url(#p9c5a1745a2)" d="M 1001.544643 1746.329513 
L 1001.544643 1726.390309 
L 1369.392857 1726.390309 
L 1369.392857 1742.755289 
" style="fill:none;stroke:#008000;"/>
    <path clip-path="url(#p9c5a1745a2)" d="M 841.285714 1890 
L 841.285714 1715.798243 
L 1185.46875 1715.798243 
L 1185.46875 1726.390309 
" style="fill:none;stroke:#008000;"/>
    <path clip-path="url(#p9c5a1745a2)" d="M 814.714286 1890 
L 814.714286 1707.505144 
L 1013.377232 1707.505144 
L 1013.377232 1715.798243 
" style="fill:none;stroke:#008000;"/>
    <path clip-path="url(#p9c5a1745a2)" d="M 738.321429 1719.885959 
L 738.321429 1697.71204 
L 914.045759 1697.71204 
L 914.045759 1707.505144 
" style="fill:none;stroke:#008000;"/>
    <path clip-path="url(#p9c5a1745a2)" d="M 1479 1890 
L 1479 1713.521869 
L 1505.571429 1713.521869 
L 1505.571429 1890 
" style="fill:none;stroke:#008000;"/>
    <path clip-path="url(#p9c5a1745a2)" d="M 1452.428571 1890 
L 1452.428571 1692.330699 
L 1492.285714 1692.330699 
L 1492.285714 1713.521869 
" style="fill:none;stroke:#008000;"/>
    <path clip-path="url(#p9c5a1745a2)" d="M 826.183594 1697.71204 
L 826.183594 1689.332932 
L 1472.357143 1689.332932 
L 1472.357143 1692.330699 
" style="fill:none;stroke:#008000;"/>
    <path clip-path="url(#p9c5a1745a2)" d="M 655.285714 1890 
L 655.285714 1642.956732 
L 1149.270368 1642.956732 
L 1149.270368 1689.332932 
" style="fill:none;stroke:#008000;"/>
    <path clip-path="url(#p9c5a1745a2)" d="M 1585.285714 1890 
L 1585.285714 1735.660724 
L 1611.857143 1735.660724 
L 1611.857143 1890 
" style="fill:none;stroke:#008000;"/>
    <path clip-path="url(#p9c5a1745a2)" d="M 1558.714286 1890 
L 1558.714286 1687.55002 
L 1598.571429 1687.55002 
L 1598.571429 1735.660724 
" style="fill:none;stroke:#008000;"/>
    <path clip-path="url(#p9c5a1745a2)" d="M 1638.428571 1890 
L 1638.428571 1673.123212 
L 1665 1673.123212 
L 1665 1890 
" style="fill:none;stroke:#008000;"/>
    <path clip-path="url(#p9c5a1745a2)" d="M 1578.642857 1687.55002 
L 1578.642857 1665.854174 
L 1651.714286 1665.854174 
L 1651.714286 1673.123212 
" style="fill:none;stroke:#008000;"/>
    <path clip-path="url(#p9c5a1745a2)" d="M 1532.142857 1890 
L 1532.142857 1637.379021 
L 1615.178571 1637.379021 
L 1615.178571 1665.854174 
" style="fill:none;stroke:#008000;"/>
    <path clip-path="url(#p9c5a1745a2)" d="M 902.278041 1642.956732 
L 902.278041 1626.62642 
L 1573.660714 1626.62642 
L 1573.660714 1637.379021 
" style="fill:none;stroke:#008000;"/>
    <path clip-path="url(#p9c5a1745a2)" d="M 628.714286 1890 
L 628.714286 1623.815646 
L 1237.969378 1623.815646 
L 1237.969378 1626.62642 
" style="fill:none;stroke:#008000;"/>
    <path clip-path="url(#p9c5a1745a2)" d="M 602.142857 1890 
L 602.142857 1598.080426 
L 933.341832 1598.080426 
L 933.341832 1623.815646 
" style="fill:none;stroke:#008000;"/>
    <path clip-path="url(#p9c5a1745a2)" d="M 575.571429 1890 
L 575.571429 1579.483534 
L 767.742344 1579.483534 
L 767.742344 1598.080426 
" style="fill:none;stroke:#008000;"/>
    <path clip-path="url(#p9c5a1745a2)" d="M 549 1890 
L 549 1493.500076 
L 671.656887 1493.500076 
L 671.656887 1579.483534 
" style="fill:none;stroke:#008000;"/>
    <path clip-path="url(#p9c5a1745a2)" d="M 398.705357 1514.976348 
L 398.705357 1490.330276 
L 610.328443 1490.330276 
L 610.328443 1493.500076 
" style="fill:none;stroke:#008000;"/>
    <path clip-path="url(#p9c5a1745a2)" d="M 1718.142857 1890 
L 1718.142857 1627.472334 
L 1744.714286 1627.472334 
L 1744.714286 1890 
" style="fill:none;stroke:#008000;"/>
    <path clip-path="url(#p9c5a1745a2)" d="M 1691.571429 1890 
L 1691.571429 1352.987461 
L 1731.428571 1352.987461 
L 1731.428571 1627.472334 
" style="fill:none;stroke:#008000;"/>
    <path clip-path="url(#p9c5a1745a2)" d="M 504.5169 1490.330276 
L 504.5169 1243.696991 
L 1711.5 1243.696991 
L 1711.5 1352.987461 
" style="fill:none;stroke:#008000;"/>
    <path clip-path="url(#p9c5a1745a2)" d="M 303.214286 1264.241012 
L 303.214286 1162.955727 
L 1108.00845 1162.955727 
L 1108.00845 1243.696991 
" style="fill:none;stroke:#008000;"/>
   </g>
   <g id="LineCollection_2">
    <path clip-path="url(#p9c5a1745a2)" d="M 1797.857143 1890 
L 1797.857143 1107.349262 
L 1824.428571 1107.349262 
L 1824.428571 1890 
" style="fill:none;stroke:#ff0000;"/>
    <path clip-path="url(#p9c5a1745a2)" d="M 1771.285714 1890 
L 1771.285714 866.820762 
L 1811.142857 866.820762 
L 1811.142857 1107.349262 
" style="fill:none;stroke:#ff0000;"/>
   </g>
   <g id="LineCollection_3">
    <path clip-path="url(#p9c5a1745a2)" d="M 1851 1890 
L 1851 1139.679337 
L 1877.571429 1139.679337 
L 1877.571429 1890 
" style="fill:none;stroke:#00bfbf;"/>
   </g>
   <g id="LineCollection_4">
    <path clip-path="url(#p9c5a1745a2)" d="M 1904.142857 1890 
L 1904.142857 944.686569 
L 1930.714286 944.686569 
L 1930.714286 1890 
" style="fill:none;stroke:#bf00bf;"/>
   </g>
   <g id="LineCollection_5">
    <path clip-path="url(#p9c5a1745a2)" d="M 1864.285714 1139.679337 
L 1864.285714 765.74279 
L 1917.428571 765.74279 
L 1917.428571 944.686569 
" style="fill:none;stroke:#0000ff;"/>
    <path clip-path="url(#p9c5a1745a2)" d="M 1791.214286 866.820762 
L 1791.214286 577.614543 
L 1890.857143 577.614543 
L 1890.857143 765.74279 
" style="fill:none;stroke:#0000ff;"/>
    <path clip-path="url(#p9c5a1745a2)" d="M 705.611368 1162.955727 
L 705.611368 295.714286 
L 1841.035714 295.714286 
L 1841.035714 577.614543 
" style="fill:none;stroke:#0000ff;"/>
   </g>
   <g id="patch_3">
    <path d="M 270 1890 
L 1944 1890 
" style="fill:none;stroke:#000000;stroke-linecap:square;stroke-linejoin:miter;"/>
   </g>
   <g id="patch_4">
    <path d="M 270 1890 
L 270 216 
" style="fill:none;stroke:#000000;stroke-linecap:square;stroke-linejoin:miter;"/>
   </g>
   <g id="patch_5">
    <path d="M 270 216 
L 1944 216 
" style="fill:none;stroke:#000000;stroke-linecap:square;stroke-linejoin:miter;"/>
   </g>
   <g id="patch_6">
    <path d="M 1944 1890 
L 1944 216 
" style="fill:none;stroke:#000000;stroke-linecap:square;stroke-linejoin:miter;"/>
   </g>
   <g id="matplotlib.axis_1">
    <g id="xtick_1">
     <g id="text_1">
      <!-- c++ -->
      <defs>
       <path d="M 48.78125 52.59375 
L 48.78125 44.1875 
Q 44.96875 46.296875 41.140625 47.34375 
Q 37.3125 48.390625 33.40625 48.390625 
Q 24.65625 48.390625 19.8125 42.84375 
Q 14.984375 37.3125 14.984375 27.296875 
Q 14.984375 17.28125 19.8125 11.734375 
Q 24.65625 6.203125 33.40625 6.203125 
Q 37.3125 6.203125 41.140625 7.25 
Q 44.96875 8.296875 48.78125 10.40625 
L 48.78125 2.09375 
Q 45.015625 0.34375 40.984375 -0.53125 
Q 36.96875 -1.421875 32.421875 -1.421875 
Q 20.0625 -1.421875 12.78125 6.34375 
Q 5.515625 14.109375 5.515625 27.296875 
Q 5.515625 40.671875 12.859375 48.328125 
Q 20.21875 56 33.015625 56 
Q 37.15625 56 41.109375 55.140625 
Q 45.0625 54.296875 48.78125 52.59375 
" id="BitstreamVeraSans-Roman-63"/>
       <path d="M 46 62.703125 
L 46 35.5 
L 73.1875 35.5 
L 73.1875 27.203125 
L 46 27.203125 
L 46 0 
L 37.796875 0 
L 37.796875 27.203125 
L 10.59375 27.203125 
L 10.59375 35.5 
L 37.796875 35.5 
L 37.796875 62.703125 
z
" id="BitstreamVeraSans-Roman-2b"/>
      </defs>
      <g transform="translate(294.323214286 1983.03125)rotate(-90.0)scale(0.4 -0.4)">
       <use xlink:href="#BitstreamVeraSans-Roman-63"/>
       <use x="54.98046875" xlink:href="#BitstreamVeraSans-Roman-2b"/>
       <use x="138.76953125" xlink:href="#BitstreamVeraSans-Roman-2b"/>
      </g>
     </g>
    </g>
    <g id="xtick_2">
     <g id="text_2">
      <!-- mysql -->
      <defs>
       <path d="M 52 44.1875 
Q 55.375 50.25 60.0625 53.125 
Q 64.75 56 71.09375 56 
Q 79.640625 56 84.28125 50.015625 
Q 88.921875 44.046875 88.921875 33.015625 
L 88.921875 0 
L 79.890625 0 
L 79.890625 32.71875 
Q 79.890625 40.578125 77.09375 44.375 
Q 74.3125 48.1875 68.609375 48.1875 
Q 61.625 48.1875 57.5625 43.546875 
Q 53.515625 38.921875 53.515625 30.90625 
L 53.515625 0 
L 44.484375 0 
L 44.484375 32.71875 
Q 44.484375 40.625 41.703125 44.40625 
Q 38.921875 48.1875 33.109375 48.1875 
Q 26.21875 48.1875 22.15625 43.53125 
Q 18.109375 38.875 18.109375 30.90625 
L 18.109375 0 
L 9.078125 0 
L 9.078125 54.6875 
L 18.109375 54.6875 
L 18.109375 46.1875 
Q 21.1875 51.21875 25.484375 53.609375 
Q 29.78125 56 35.6875 56 
Q 41.65625 56 45.828125 52.96875 
Q 50 49.953125 52 44.1875 
" id="BitstreamVeraSans-Roman-6d"/>
       <path d="M 44.28125 53.078125 
L 44.28125 44.578125 
Q 40.484375 46.53125 36.375 47.5 
Q 32.28125 48.484375 27.875 48.484375 
Q 21.1875 48.484375 17.84375 46.4375 
Q 14.5 44.390625 14.5 40.28125 
Q 14.5 37.15625 16.890625 35.375 
Q 19.28125 33.59375 26.515625 31.984375 
L 29.59375 31.296875 
Q 39.15625 29.25 43.1875 25.515625 
Q 47.21875 21.78125 47.21875 15.09375 
Q 47.21875 7.46875 41.1875 3.015625 
Q 35.15625 -1.421875 24.609375 -1.421875 
Q 20.21875 -1.421875 15.453125 -0.5625 
Q 10.6875 0.296875 5.421875 2 
L 5.421875 11.28125 
Q 10.40625 8.6875 15.234375 7.390625 
Q 20.0625 6.109375 24.8125 6.109375 
Q 31.15625 6.109375 34.5625 8.28125 
Q 37.984375 10.453125 37.984375 14.40625 
Q 37.984375 18.0625 35.515625 20.015625 
Q 33.0625 21.96875 24.703125 23.78125 
L 21.578125 24.515625 
Q 13.234375 26.265625 9.515625 29.90625 
Q 5.8125 33.546875 5.8125 39.890625 
Q 5.8125 47.609375 11.28125 51.796875 
Q 16.75 56 26.8125 56 
Q 31.78125 56 36.171875 55.265625 
Q 40.578125 54.546875 44.28125 53.078125 
" id="BitstreamVeraSans-Roman-73"/>
       <path d="M 9.421875 75.984375 
L 18.40625 75.984375 
L 18.40625 0 
L 9.421875 0 
z
" id="BitstreamVeraSans-Roman-6c"/>
       <path d="M 32.171875 -5.078125 
Q 28.375 -14.84375 24.75 -17.8125 
Q 21.140625 -20.796875 15.09375 -20.796875 
L 7.90625 -20.796875 
L 7.90625 -13.28125 
L 13.1875 -13.28125 
Q 16.890625 -13.28125 18.9375 -11.515625 
Q 21 -9.765625 23.484375 -3.21875 
L 25.09375 0.875 
L 2.984375 54.6875 
L 12.5 54.6875 
L 29.59375 11.921875 
L 46.6875 54.6875 
L 56.203125 54.6875 
z
" id="BitstreamVeraSans-Roman-79"/>
       <path d="M 14.796875 27.296875 
Q 14.796875 17.390625 18.875 11.75 
Q 22.953125 6.109375 30.078125 6.109375 
Q 37.203125 6.109375 41.296875 11.75 
Q 45.40625 17.390625 45.40625 27.296875 
Q 45.40625 37.203125 41.296875 42.84375 
Q 37.203125 48.484375 30.078125 48.484375 
Q 22.953125 48.484375 18.875 42.84375 
Q 14.796875 37.203125 14.796875 27.296875 
M 45.40625 8.203125 
Q 42.578125 3.328125 38.25 0.953125 
Q 33.9375 -1.421875 27.875 -1.421875 
Q 17.96875 -1.421875 11.734375 6.484375 
Q 5.515625 14.40625 5.515625 27.296875 
Q 5.515625 40.1875 11.734375 48.09375 
Q 17.96875 56 27.875 56 
Q 33.9375 56 38.25 53.625 
Q 42.578125 51.265625 45.40625 46.390625 
L 45.40625 54.6875 
L 54.390625 54.6875 
L 54.390625 -20.796875 
L 45.40625 -20.796875 
z
" id="BitstreamVeraSans-Roman-71"/>
      </defs>
      <g transform="translate(320.894642857 2013.98125)rotate(-90.0)scale(0.4 -0.4)">
       <use xlink:href="#BitstreamVeraSans-Roman-6d"/>
       <use x="97.412109375" xlink:href="#BitstreamVeraSans-Roman-79"/>
       <use x="156.591796875" xlink:href="#BitstreamVeraSans-Roman-73"/>
       <use x="208.69140625" xlink:href="#BitstreamVeraSans-Roman-71"/>
       <use x="272.16796875" xlink:href="#BitstreamVeraSans-Roman-6c"/>
      </g>
     </g>
    </g>
    <g id="xtick_3">
     <g id="text_3">
      <!-- sql -->
      <g transform="translate(347.466071429 1951.34375)rotate(-90.0)scale(0.4 -0.4)">
       <use xlink:href="#BitstreamVeraSans-Roman-73"/>
       <use x="52.099609375" xlink:href="#BitstreamVeraSans-Roman-71"/>
       <use x="115.576171875" xlink:href="#BitstreamVeraSans-Roman-6c"/>
      </g>
     </g>
    </g>
    <g id="xtick_4">
     <g id="text_4">
      <!-- angularjs -->
      <defs>
       <path d="M 45.40625 27.984375 
Q 45.40625 37.75 41.375 43.109375 
Q 37.359375 48.484375 30.078125 48.484375 
Q 22.859375 48.484375 18.828125 43.109375 
Q 14.796875 37.75 14.796875 27.984375 
Q 14.796875 18.265625 18.828125 12.890625 
Q 22.859375 7.515625 30.078125 7.515625 
Q 37.359375 7.515625 41.375 12.890625 
Q 45.40625 18.265625 45.40625 27.984375 
M 54.390625 6.78125 
Q 54.390625 -7.171875 48.1875 -13.984375 
Q 42 -20.796875 29.203125 -20.796875 
Q 24.46875 -20.796875 20.265625 -20.09375 
Q 16.0625 -19.390625 12.109375 -17.921875 
L 12.109375 -9.1875 
Q 16.0625 -11.328125 19.921875 -12.34375 
Q 23.78125 -13.375 27.78125 -13.375 
Q 36.625 -13.375 41.015625 -8.765625 
Q 45.40625 -4.15625 45.40625 5.171875 
L 45.40625 9.625 
Q 42.625 4.78125 38.28125 2.390625 
Q 33.9375 0 27.875 0 
Q 17.828125 0 11.671875 7.65625 
Q 5.515625 15.328125 5.515625 27.984375 
Q 5.515625 40.671875 11.671875 48.328125 
Q 17.828125 56 27.875 56 
Q 33.9375 56 38.28125 53.609375 
Q 42.625 51.21875 45.40625 46.390625 
L 45.40625 54.6875 
L 54.390625 54.6875 
z
" id="BitstreamVeraSans-Roman-67"/>
       <path d="M 54.890625 33.015625 
L 54.890625 0 
L 45.90625 0 
L 45.90625 32.71875 
Q 45.90625 40.484375 42.875 44.328125 
Q 39.84375 48.1875 33.796875 48.1875 
Q 26.515625 48.1875 22.3125 43.546875 
Q 18.109375 38.921875 18.109375 30.90625 
L 18.109375 0 
L 9.078125 0 
L 9.078125 54.6875 
L 18.109375 54.6875 
L 18.109375 46.1875 
Q 21.34375 51.125 25.703125 53.5625 
Q 30.078125 56 35.796875 56 
Q 45.21875 56 50.046875 50.171875 
Q 54.890625 44.34375 54.890625 33.015625 
" id="BitstreamVeraSans-Roman-6e"/>
       <path d="M 41.109375 46.296875 
Q 39.59375 47.171875 37.8125 47.578125 
Q 36.03125 48 33.890625 48 
Q 26.265625 48 22.1875 43.046875 
Q 18.109375 38.09375 18.109375 28.8125 
L 18.109375 0 
L 9.078125 0 
L 9.078125 54.6875 
L 18.109375 54.6875 
L 18.109375 46.1875 
Q 20.953125 51.171875 25.484375 53.578125 
Q 30.03125 56 36.53125 56 
Q 37.453125 56 38.578125 55.875 
Q 39.703125 55.765625 41.0625 55.515625 
z
" id="BitstreamVeraSans-Roman-72"/>
       <path d="M 9.421875 54.6875 
L 18.40625 54.6875 
L 18.40625 -0.984375 
Q 18.40625 -11.421875 14.421875 -16.109375 
Q 10.453125 -20.796875 1.609375 -20.796875 
L -1.8125 -20.796875 
L -1.8125 -13.1875 
L 0.59375 -13.1875 
Q 5.71875 -13.1875 7.5625 -10.8125 
Q 9.421875 -8.453125 9.421875 -0.984375 
z
M 9.421875 75.984375 
L 18.40625 75.984375 
L 18.40625 64.59375 
L 9.421875 64.59375 
z
" id="BitstreamVeraSans-Roman-6a"/>
       <path d="M 8.5 21.578125 
L 8.5 54.6875 
L 17.484375 54.6875 
L 17.484375 21.921875 
Q 17.484375 14.15625 20.5 10.265625 
Q 23.53125 6.390625 29.59375 6.390625 
Q 36.859375 6.390625 41.078125 11.03125 
Q 45.3125 15.671875 45.3125 23.6875 
L 45.3125 54.6875 
L 54.296875 54.6875 
L 54.296875 0 
L 45.3125 0 
L 45.3125 8.40625 
Q 42.046875 3.421875 37.71875 1 
Q 33.40625 -1.421875 27.6875 -1.421875 
Q 18.265625 -1.421875 13.375 4.4375 
Q 8.5 10.296875 8.5 21.578125 
" id="BitstreamVeraSans-Roman-75"/>
       <path d="M 34.28125 27.484375 
Q 23.390625 27.484375 19.1875 25 
Q 14.984375 22.515625 14.984375 16.5 
Q 14.984375 11.71875 18.140625 8.90625 
Q 21.296875 6.109375 26.703125 6.109375 
Q 34.1875 6.109375 38.703125 11.40625 
Q 43.21875 16.703125 43.21875 25.484375 
L 43.21875 27.484375 
z
M 52.203125 31.203125 
L 52.203125 0 
L 43.21875 0 
L 43.21875 8.296875 
Q 40.140625 3.328125 35.546875 0.953125 
Q 30.953125 -1.421875 24.3125 -1.421875 
Q 15.921875 -1.421875 10.953125 3.296875 
Q 6 8.015625 6 15.921875 
Q 6 25.140625 12.171875 29.828125 
Q 18.359375 34.515625 30.609375 34.515625 
L 43.21875 34.515625 
L 43.21875 35.40625 
Q 43.21875 41.609375 39.140625 45 
Q 35.0625 48.390625 27.6875 48.390625 
Q 23 48.390625 18.546875 47.265625 
Q 14.109375 46.140625 10.015625 43.890625 
L 10.015625 52.203125 
Q 14.9375 54.109375 19.578125 55.046875 
Q 24.21875 56 28.609375 56 
Q 40.484375 56 46.34375 49.84375 
Q 52.203125 43.703125 52.203125 31.203125 
" id="BitstreamVeraSans-Roman-61"/>
      </defs>
      <g transform="translate(374.0375 2078.625)rotate(-90.0)scale(0.4 -0.4)">
       <use xlink:href="#BitstreamVeraSans-Roman-61"/>
       <use x="61.279296875" xlink:href="#BitstreamVeraSans-Roman-6e"/>
       <use x="124.658203125" xlink:href="#BitstreamVeraSans-Roman-67"/>
       <use x="188.134765625" xlink:href="#BitstreamVeraSans-Roman-75"/>
       <use x="251.513671875" xlink:href="#BitstreamVeraSans-Roman-6c"/>
       <use x="279.296875" xlink:href="#BitstreamVeraSans-Roman-61"/>
       <use x="340.576171875" xlink:href="#BitstreamVeraSans-Roman-72"/>
       <use x="381.689453125" xlink:href="#BitstreamVeraSans-Roman-6a"/>
       <use x="409.47265625" xlink:href="#BitstreamVeraSans-Roman-73"/>
      </g>
     </g>
    </g>
    <g id="xtick_5">
     <g id="text_5">
      <!-- ruby -->
      <defs>
       <path d="M 48.6875 27.296875 
Q 48.6875 37.203125 44.609375 42.84375 
Q 40.53125 48.484375 33.40625 48.484375 
Q 26.265625 48.484375 22.1875 42.84375 
Q 18.109375 37.203125 18.109375 27.296875 
Q 18.109375 17.390625 22.1875 11.75 
Q 26.265625 6.109375 33.40625 6.109375 
Q 40.53125 6.109375 44.609375 11.75 
Q 48.6875 17.390625 48.6875 27.296875 
M 18.109375 46.390625 
Q 20.953125 51.265625 25.265625 53.625 
Q 29.59375 56 35.59375 56 
Q 45.5625 56 51.78125 48.09375 
Q 58.015625 40.1875 58.015625 27.296875 
Q 58.015625 14.40625 51.78125 6.484375 
Q 45.5625 -1.421875 35.59375 -1.421875 
Q 29.59375 -1.421875 25.265625 0.953125 
Q 20.953125 3.328125 18.109375 8.203125 
L 18.109375 0 
L 9.078125 0 
L 9.078125 75.984375 
L 18.109375 75.984375 
z
" id="BitstreamVeraSans-Roman-62"/>
      </defs>
      <g transform="translate(400.608928571 1984.8625)rotate(-90.0)scale(0.4 -0.4)">
       <use xlink:href="#BitstreamVeraSans-Roman-72"/>
       <use x="41.11328125" xlink:href="#BitstreamVeraSans-Roman-75"/>
       <use x="104.4921875" xlink:href="#BitstreamVeraSans-Roman-62"/>
       <use x="167.96875" xlink:href="#BitstreamVeraSans-Roman-79"/>
      </g>
     </g>
    </g>
    <g id="xtick_6">
     <g id="text_6">
      <!-- ruby-on-rails -->
      <defs>
       <path d="M 30.609375 48.390625 
Q 23.390625 48.390625 19.1875 42.75 
Q 14.984375 37.109375 14.984375 27.296875 
Q 14.984375 17.484375 19.15625 11.84375 
Q 23.34375 6.203125 30.609375 6.203125 
Q 37.796875 6.203125 41.984375 11.859375 
Q 46.1875 17.53125 46.1875 27.296875 
Q 46.1875 37.015625 41.984375 42.703125 
Q 37.796875 48.390625 30.609375 48.390625 
M 30.609375 56 
Q 42.328125 56 49.015625 48.375 
Q 55.71875 40.765625 55.71875 27.296875 
Q 55.71875 13.875 49.015625 6.21875 
Q 42.328125 -1.421875 30.609375 -1.421875 
Q 18.84375 -1.421875 12.171875 6.21875 
Q 5.515625 13.875 5.515625 27.296875 
Q 5.515625 40.765625 12.171875 48.375 
Q 18.84375 56 30.609375 56 
" id="BitstreamVeraSans-Roman-6f"/>
       <path d="M 9.421875 54.6875 
L 18.40625 54.6875 
L 18.40625 0 
L 9.421875 0 
z
M 9.421875 75.984375 
L 18.40625 75.984375 
L 18.40625 64.59375 
L 9.421875 64.59375 
z
" id="BitstreamVeraSans-Roman-69"/>
       <path d="M 4.890625 31.390625 
L 31.203125 31.390625 
L 31.203125 23.390625 
L 4.890625 23.390625 
z
" id="BitstreamVeraSans-Roman-2d"/>
      </defs>
      <g transform="translate(427.180357143 2147.56875)rotate(-90.0)scale(0.4 -0.4)">
       <use xlink:href="#BitstreamVeraSans-Roman-72"/>
       <use x="41.11328125" xlink:href="#BitstreamVeraSans-Roman-75"/>
       <use x="104.4921875" xlink:href="#BitstreamVeraSans-Roman-62"/>
       <use x="167.96875" xlink:href="#BitstreamVeraSans-Roman-79"/>
       <use x="227.1328125" xlink:href="#BitstreamVeraSans-Roman-2d"/>
       <use x="263.232421875" xlink:href="#BitstreamVeraSans-Roman-6f"/>
       <use x="324.4140625" xlink:href="#BitstreamVeraSans-Roman-6e"/>
       <use x="387.79296875" xlink:href="#BitstreamVeraSans-Roman-2d"/>
       <use x="423.876953125" xlink:href="#BitstreamVeraSans-Roman-72"/>
       <use x="464.990234375" xlink:href="#BitstreamVeraSans-Roman-61"/>
       <use x="526.26953125" xlink:href="#BitstreamVeraSans-Roman-69"/>
       <use x="554.052734375" xlink:href="#BitstreamVeraSans-Roman-6c"/>
       <use x="581.8359375" xlink:href="#BitstreamVeraSans-Roman-73"/>
      </g>
     </g>
    </g>
    <g id="xtick_7">
     <g id="text_7">
      <!-- asp.net -->
      <defs>
       <path d="M 18.3125 70.21875 
L 18.3125 54.6875 
L 36.8125 54.6875 
L 36.8125 47.703125 
L 18.3125 47.703125 
L 18.3125 18.015625 
Q 18.3125 11.328125 20.140625 9.421875 
Q 21.96875 7.515625 27.59375 7.515625 
L 36.8125 7.515625 
L 36.8125 0 
L 27.59375 0 
Q 17.1875 0 13.234375 3.875 
Q 9.28125 7.765625 9.28125 18.015625 
L 9.28125 47.703125 
L 2.6875 47.703125 
L 2.6875 54.6875 
L 9.28125 54.6875 
L 9.28125 70.21875 
z
" id="BitstreamVeraSans-Roman-74"/>
       <path d="M 10.6875 12.40625 
L 21 12.40625 
L 21 0 
L 10.6875 0 
z
" id="BitstreamVeraSans-Roman-2e"/>
       <path d="M 18.109375 8.203125 
L 18.109375 -20.796875 
L 9.078125 -20.796875 
L 9.078125 54.6875 
L 18.109375 54.6875 
L 18.109375 46.390625 
Q 20.953125 51.265625 25.265625 53.625 
Q 29.59375 56 35.59375 56 
Q 45.5625 56 51.78125 48.09375 
Q 58.015625 40.1875 58.015625 27.296875 
Q 58.015625 14.40625 51.78125 6.484375 
Q 45.5625 -1.421875 35.59375 -1.421875 
Q 29.59375 -1.421875 25.265625 0.953125 
Q 20.953125 3.328125 18.109375 8.203125 
M 48.6875 27.296875 
Q 48.6875 37.203125 44.609375 42.84375 
Q 40.53125 48.484375 33.40625 48.484375 
Q 26.265625 48.484375 22.1875 42.84375 
Q 18.109375 37.203125 18.109375 27.296875 
Q 18.109375 17.390625 22.1875 11.75 
Q 26.265625 6.109375 33.40625 6.109375 
Q 40.53125 6.109375 44.609375 11.75 
Q 48.6875 17.390625 48.6875 27.296875 
" id="BitstreamVeraSans-Roman-70"/>
       <path d="M 56.203125 29.59375 
L 56.203125 25.203125 
L 14.890625 25.203125 
Q 15.484375 15.921875 20.484375 11.0625 
Q 25.484375 6.203125 34.421875 6.203125 
Q 39.59375 6.203125 44.453125 7.46875 
Q 49.3125 8.734375 54.109375 11.28125 
L 54.109375 2.78125 
Q 49.265625 0.734375 44.1875 -0.34375 
Q 39.109375 -1.421875 33.890625 -1.421875 
Q 20.796875 -1.421875 13.15625 6.1875 
Q 5.515625 13.8125 5.515625 26.8125 
Q 5.515625 40.234375 12.765625 48.109375 
Q 20.015625 56 32.328125 56 
Q 43.359375 56 49.78125 48.890625 
Q 56.203125 41.796875 56.203125 29.59375 
M 47.21875 32.234375 
Q 47.125 39.59375 43.09375 43.984375 
Q 39.0625 48.390625 32.421875 48.390625 
Q 24.90625 48.390625 20.390625 44.140625 
Q 15.875 39.890625 15.1875 32.171875 
z
" id="BitstreamVeraSans-Roman-65"/>
      </defs>
      <g transform="translate(453.751785714 2043.1)rotate(-90.0)scale(0.4 -0.4)">
       <use xlink:href="#BitstreamVeraSans-Roman-61"/>
       <use x="61.279296875" xlink:href="#BitstreamVeraSans-Roman-73"/>
       <use x="113.37890625" xlink:href="#BitstreamVeraSans-Roman-70"/>
       <use x="176.85546875" xlink:href="#BitstreamVeraSans-Roman-2e"/>
       <use x="208.642578125" xlink:href="#BitstreamVeraSans-Roman-6e"/>
       <use x="272.021484375" xlink:href="#BitstreamVeraSans-Roman-65"/>
       <use x="333.544921875" xlink:href="#BitstreamVeraSans-Roman-74"/>
      </g>
     </g>
    </g>
    <g id="xtick_8">
     <g id="text_8">
      <!-- r -->
      <g transform="translate(480.323214286 1910.44375)rotate(-90.0)scale(0.4 -0.4)">
       <use xlink:href="#BitstreamVeraSans-Roman-72"/>
      </g>
     </g>
    </g>
    <g id="xtick_9">
     <g id="text_9">
      <!-- iphone -->
      <defs>
       <path d="M 54.890625 33.015625 
L 54.890625 0 
L 45.90625 0 
L 45.90625 32.71875 
Q 45.90625 40.484375 42.875 44.328125 
Q 39.84375 48.1875 33.796875 48.1875 
Q 26.515625 48.1875 22.3125 43.546875 
Q 18.109375 38.921875 18.109375 30.90625 
L 18.109375 0 
L 9.078125 0 
L 9.078125 75.984375 
L 18.109375 75.984375 
L 18.109375 46.1875 
Q 21.34375 51.125 25.703125 53.5625 
Q 30.078125 56 35.796875 56 
Q 45.21875 56 50.046875 50.171875 
Q 54.890625 44.34375 54.890625 33.015625 
" id="BitstreamVeraSans-Roman-68"/>
      </defs>
      <g transform="translate(506.894642857 2030.29375)rotate(-90.0)scale(0.4 -0.4)">
       <use xlink:href="#BitstreamVeraSans-Roman-69"/>
       <use x="27.783203125" xlink:href="#BitstreamVeraSans-Roman-70"/>
       <use x="91.259765625" xlink:href="#BitstreamVeraSans-Roman-68"/>
       <use x="154.638671875" xlink:href="#BitstreamVeraSans-Roman-6f"/>
       <use x="215.8203125" xlink:href="#BitstreamVeraSans-Roman-6e"/>
       <use x="279.19921875" xlink:href="#BitstreamVeraSans-Roman-65"/>
      </g>
     </g>
    </g>
    <g id="xtick_10">
     <g id="text_10">
      <!-- objective-c -->
      <defs>
       <path d="M 2.984375 54.6875 
L 12.5 54.6875 
L 29.59375 8.796875 
L 46.6875 54.6875 
L 56.203125 54.6875 
L 35.6875 0 
L 23.484375 0 
z
" id="BitstreamVeraSans-Roman-76"/>
      </defs>
      <g transform="translate(533.466071429 2113.09375)rotate(-90.0)scale(0.4 -0.4)">
       <use xlink:href="#BitstreamVeraSans-Roman-6f"/>
       <use x="61.181640625" xlink:href="#BitstreamVeraSans-Roman-62"/>
       <use x="124.658203125" xlink:href="#BitstreamVeraSans-Roman-6a"/>
       <use x="152.44140625" xlink:href="#BitstreamVeraSans-Roman-65"/>
       <use x="213.96484375" xlink:href="#BitstreamVeraSans-Roman-63"/>
       <use x="268.9453125" xlink:href="#BitstreamVeraSans-Roman-74"/>
       <use x="308.154296875" xlink:href="#BitstreamVeraSans-Roman-69"/>
       <use x="335.9375" xlink:href="#BitstreamVeraSans-Roman-76"/>
       <use x="395.1171875" xlink:href="#BitstreamVeraSans-Roman-65"/>
       <use x="456.640625" xlink:href="#BitstreamVeraSans-Roman-2d"/>
       <use x="492.724609375" xlink:href="#BitstreamVeraSans-Roman-63"/>
      </g>
     </g>
    </g>
    <g id="xtick_11">
     <g id="text_11">
      <!-- c -->
      <g transform="translate(560.0375 1915.99375)rotate(-90.0)scale(0.4 -0.4)">
       <use xlink:href="#BitstreamVeraSans-Roman-63"/>
      </g>
     </g>
    </g>
    <g id="xtick_12">
     <g id="text_12">
      <!-- git -->
      <g transform="translate(586.608928571 1946.1875)rotate(-90.0)scale(0.4 -0.4)">
       <use xlink:href="#BitstreamVeraSans-Roman-67"/>
       <use x="63.4765625" xlink:href="#BitstreamVeraSans-Roman-69"/>
       <use x="91.259765625" xlink:href="#BitstreamVeraSans-Roman-74"/>
      </g>
     </g>
    </g>
    <g id="xtick_13">
     <g id="text_13">
      <!-- django -->
      <defs>
       <path d="M 45.40625 46.390625 
L 45.40625 75.984375 
L 54.390625 75.984375 
L 54.390625 0 
L 45.40625 0 
L 45.40625 8.203125 
Q 42.578125 3.328125 38.25 0.953125 
Q 33.9375 -1.421875 27.875 -1.421875 
Q 17.96875 -1.421875 11.734375 6.484375 
Q 5.515625 14.40625 5.515625 27.296875 
Q 5.515625 40.1875 11.734375 48.09375 
Q 17.96875 56 27.875 56 
Q 33.9375 56 38.25 53.625 
Q 42.578125 51.265625 45.40625 46.390625 
M 14.796875 27.296875 
Q 14.796875 17.390625 18.875 11.75 
Q 22.953125 6.109375 30.078125 6.109375 
Q 37.203125 6.109375 41.296875 11.75 
Q 45.40625 17.390625 45.40625 27.296875 
Q 45.40625 37.203125 41.296875 42.84375 
Q 37.203125 48.484375 30.078125 48.484375 
Q 22.953125 48.484375 18.875 42.84375 
Q 14.796875 37.203125 14.796875 27.296875 
" id="BitstreamVeraSans-Roman-64"/>
      </defs>
      <g transform="translate(613.180357143 2030.2375)rotate(-90.0)scale(0.4 -0.4)">
       <use xlink:href="#BitstreamVeraSans-Roman-64"/>
       <use x="63.4765625" xlink:href="#BitstreamVeraSans-Roman-6a"/>
       <use x="91.259765625" xlink:href="#BitstreamVeraSans-Roman-61"/>
       <use x="152.5390625" xlink:href="#BitstreamVeraSans-Roman-6e"/>
       <use x="215.91796875" xlink:href="#BitstreamVeraSans-Roman-67"/>
       <use x="279.39453125" xlink:href="#BitstreamVeraSans-Roman-6f"/>
      </g>
     </g>
    </g>
    <g id="xtick_14">
     <g id="text_14">
      <!-- arrays -->
      <g transform="translate(639.751785714 2020.41875)rotate(-90.0)scale(0.4 -0.4)">
       <use xlink:href="#BitstreamVeraSans-Roman-61"/>
       <use x="61.279296875" xlink:href="#BitstreamVeraSans-Roman-72"/>
       <use x="102.376953125" xlink:href="#BitstreamVeraSans-Roman-72"/>
       <use x="143.490234375" xlink:href="#BitstreamVeraSans-Roman-61"/>
       <use x="204.76953125" xlink:href="#BitstreamVeraSans-Roman-79"/>
       <use x="263.94921875" xlink:href="#BitstreamVeraSans-Roman-73"/>
      </g>
     </g>
    </g>
    <g id="xtick_15">
     <g id="text_15">
      <!-- regex -->
      <defs>
       <path d="M 54.890625 54.6875 
L 35.109375 28.078125 
L 55.90625 0 
L 45.3125 0 
L 29.390625 21.484375 
L 13.484375 0 
L 2.875 0 
L 24.125 28.609375 
L 4.6875 54.6875 
L 15.28125 54.6875 
L 29.78125 35.203125 
L 44.28125 54.6875 
z
" id="BitstreamVeraSans-Roman-78"/>
      </defs>
      <g transform="translate(666.323214286 2008.71875)rotate(-90.0)scale(0.4 -0.4)">
       <use xlink:href="#BitstreamVeraSans-Roman-72"/>
       <use x="41.08203125" xlink:href="#BitstreamVeraSans-Roman-65"/>
       <use x="102.60546875" xlink:href="#BitstreamVeraSans-Roman-67"/>
       <use x="166.08203125" xlink:href="#BitstreamVeraSans-Roman-65"/>
       <use x="227.58984375" xlink:href="#BitstreamVeraSans-Roman-78"/>
      </g>
     </g>
    </g>
    <g id="xtick_16">
     <g id="text_16">
      <!-- excel -->
      <g transform="translate(692.894642857 1999.99375)rotate(-90.0)scale(0.4 -0.4)">
       <use xlink:href="#BitstreamVeraSans-Roman-65"/>
       <use x="61.5078125" xlink:href="#BitstreamVeraSans-Roman-78"/>
       <use x="120.671875" xlink:href="#BitstreamVeraSans-Roman-63"/>
       <use x="175.65234375" xlink:href="#BitstreamVeraSans-Roman-65"/>
       <use x="237.17578125" xlink:href="#BitstreamVeraSans-Roman-6c"/>
      </g>
     </g>
    </g>
    <g id="xtick_17">
     <g id="text_17">
      <!-- excel-vba -->
      <g transform="translate(719.466071429 2087.99375)rotate(-90.0)scale(0.4 -0.4)">
       <use xlink:href="#BitstreamVeraSans-Roman-65"/>
       <use x="61.5078125" xlink:href="#BitstreamVeraSans-Roman-78"/>
       <use x="120.671875" xlink:href="#BitstreamVeraSans-Roman-63"/>
       <use x="175.65234375" xlink:href="#BitstreamVeraSans-Roman-65"/>
       <use x="237.17578125" xlink:href="#BitstreamVeraSans-Roman-6c"/>
       <use x="264.958984375" xlink:href="#BitstreamVeraSans-Roman-2d"/>
       <use x="301.01171875" xlink:href="#BitstreamVeraSans-Roman-76"/>
       <use x="360.19140625" xlink:href="#BitstreamVeraSans-Roman-62"/>
       <use x="423.66796875" xlink:href="#BitstreamVeraSans-Roman-61"/>
      </g>
     </g>
    </g>
    <g id="xtick_18">
     <g id="text_18">
      <!-- vba -->
      <g transform="translate(746.0375 1967.58125)rotate(-90.0)scale(0.4 -0.4)">
       <use xlink:href="#BitstreamVeraSans-Roman-76"/>
       <use x="59.1796875" xlink:href="#BitstreamVeraSans-Roman-62"/>
       <use x="122.65625" xlink:href="#BitstreamVeraSans-Roman-61"/>
      </g>
     </g>
    </g>
    <g id="xtick_19">
     <g id="text_19">
      <!-- vb.net -->
      <g transform="translate(772.608928571 2021.425)rotate(-90.0)scale(0.4 -0.4)">
       <use xlink:href="#BitstreamVeraSans-Roman-76"/>
       <use x="59.1796875" xlink:href="#BitstreamVeraSans-Roman-62"/>
       <use x="122.65625" xlink:href="#BitstreamVeraSans-Roman-2e"/>
       <use x="154.443359375" xlink:href="#BitstreamVeraSans-Roman-6e"/>
       <use x="217.822265625" xlink:href="#BitstreamVeraSans-Roman-65"/>
       <use x="279.345703125" xlink:href="#BitstreamVeraSans-Roman-74"/>
      </g>
     </g>
    </g>
    <g id="xtick_20">
     <g id="text_20">
      <!-- wpf -->
      <defs>
       <path d="M 37.109375 75.984375 
L 37.109375 68.5 
L 28.515625 68.5 
Q 23.6875 68.5 21.796875 66.546875 
Q 19.921875 64.59375 19.921875 59.515625 
L 19.921875 54.6875 
L 34.71875 54.6875 
L 34.71875 47.703125 
L 19.921875 47.703125 
L 19.921875 0 
L 10.890625 0 
L 10.890625 47.703125 
L 2.296875 47.703125 
L 2.296875 54.6875 
L 10.890625 54.6875 
L 10.890625 58.5 
Q 10.890625 67.625 15.140625 71.796875 
Q 19.390625 75.984375 28.609375 75.984375 
z
" id="BitstreamVeraSans-Roman-66"/>
       <path d="M 4.203125 54.6875 
L 13.1875 54.6875 
L 24.421875 12.015625 
L 35.59375 54.6875 
L 46.1875 54.6875 
L 57.421875 12.015625 
L 68.609375 54.6875 
L 77.59375 54.6875 
L 63.28125 0 
L 52.6875 0 
L 40.921875 44.828125 
L 29.109375 0 
L 18.5 0 
z
" id="BitstreamVeraSans-Roman-77"/>
      </defs>
      <g transform="translate(799.180357143 1966.1875)rotate(-90.0)scale(0.4 -0.4)">
       <use xlink:href="#BitstreamVeraSans-Roman-77"/>
       <use x="81.787109375" xlink:href="#BitstreamVeraSans-Roman-70"/>
       <use x="145.263671875" xlink:href="#BitstreamVeraSans-Roman-66"/>
      </g>
     </g>
    </g>
    <g id="xtick_21">
     <g id="text_21">
      <!-- facebook -->
      <defs>
       <path d="M 9.078125 75.984375 
L 18.109375 75.984375 
L 18.109375 31.109375 
L 44.921875 54.6875 
L 56.390625 54.6875 
L 27.390625 29.109375 
L 57.625 0 
L 45.90625 0 
L 18.109375 26.703125 
L 18.109375 0 
L 9.078125 0 
z
" id="BitstreamVeraSans-Roman-6b"/>
      </defs>
      <g transform="translate(825.751785714 2076.70625)rotate(-90.0)scale(0.4 -0.4)">
       <use xlink:href="#BitstreamVeraSans-Roman-66"/>
       <use x="35.205078125" xlink:href="#BitstreamVeraSans-Roman-61"/>
       <use x="96.484375" xlink:href="#BitstreamVeraSans-Roman-63"/>
       <use x="151.46484375" xlink:href="#BitstreamVeraSans-Roman-65"/>
       <use x="212.98828125" xlink:href="#BitstreamVeraSans-Roman-62"/>
       <use x="276.46484375" xlink:href="#BitstreamVeraSans-Roman-6f"/>
       <use x="337.646484375" xlink:href="#BitstreamVeraSans-Roman-6f"/>
       <use x="398.828125" xlink:href="#BitstreamVeraSans-Roman-6b"/>
      </g>
     </g>
    </g>
    <g id="xtick_22">
     <g id="text_22">
      <!-- eclipse -->
      <g transform="translate(852.323214286 2033.675)rotate(-90.0)scale(0.4 -0.4)">
       <use xlink:href="#BitstreamVeraSans-Roman-65"/>
       <use x="61.5234375" xlink:href="#BitstreamVeraSans-Roman-63"/>
       <use x="116.50390625" xlink:href="#BitstreamVeraSans-Roman-6c"/>
       <use x="144.287109375" xlink:href="#BitstreamVeraSans-Roman-69"/>
       <use x="172.0703125" xlink:href="#BitstreamVeraSans-Roman-70"/>
       <use x="235.546875" xlink:href="#BitstreamVeraSans-Roman-73"/>
       <use x="287.646484375" xlink:href="#BitstreamVeraSans-Roman-65"/>
      </g>
     </g>
    </g>
    <g id="xtick_23">
     <g id="text_23">
      <!-- spring -->
      <g transform="translate(878.894642857 2018.53125)rotate(-90.0)scale(0.4 -0.4)">
       <use xlink:href="#BitstreamVeraSans-Roman-73"/>
       <use x="52.099609375" xlink:href="#BitstreamVeraSans-Roman-70"/>
       <use x="115.576171875" xlink:href="#BitstreamVeraSans-Roman-72"/>
       <use x="156.689453125" xlink:href="#BitstreamVeraSans-Roman-69"/>
       <use x="184.47265625" xlink:href="#BitstreamVeraSans-Roman-6e"/>
       <use x="247.8515625" xlink:href="#BitstreamVeraSans-Roman-67"/>
      </g>
     </g>
    </g>
    <g id="xtick_24">
     <g id="text_24">
      <!-- scala -->
      <g transform="translate(905.466071429 1996.96875)rotate(-90.0)scale(0.4 -0.4)">
       <use xlink:href="#BitstreamVeraSans-Roman-73"/>
       <use x="52.099609375" xlink:href="#BitstreamVeraSans-Roman-63"/>
       <use x="107.080078125" xlink:href="#BitstreamVeraSans-Roman-61"/>
       <use x="168.359375" xlink:href="#BitstreamVeraSans-Roman-6c"/>
       <use x="196.142578125" xlink:href="#BitstreamVeraSans-Roman-61"/>
      </g>
     </g>
    </g>
    <g id="xtick_25">
     <g id="text_25">
      <!-- multithreading -->
      <g transform="translate(932.0375 2190.05625)rotate(-90.0)scale(0.4 -0.4)">
       <use xlink:href="#BitstreamVeraSans-Roman-6d"/>
       <use x="97.412109375" xlink:href="#BitstreamVeraSans-Roman-75"/>
       <use x="160.791015625" xlink:href="#BitstreamVeraSans-Roman-6c"/>
       <use x="188.57421875" xlink:href="#BitstreamVeraSans-Roman-74"/>
       <use x="227.783203125" xlink:href="#BitstreamVeraSans-Roman-69"/>
       <use x="255.56640625" xlink:href="#BitstreamVeraSans-Roman-74"/>
       <use x="294.775390625" xlink:href="#BitstreamVeraSans-Roman-68"/>
       <use x="358.154296875" xlink:href="#BitstreamVeraSans-Roman-72"/>
       <use x="399.236328125" xlink:href="#BitstreamVeraSans-Roman-65"/>
       <use x="460.759765625" xlink:href="#BitstreamVeraSans-Roman-61"/>
       <use x="522.0390625" xlink:href="#BitstreamVeraSans-Roman-64"/>
       <use x="585.515625" xlink:href="#BitstreamVeraSans-Roman-69"/>
       <use x="613.298828125" xlink:href="#BitstreamVeraSans-Roman-6e"/>
       <use x="676.677734375" xlink:href="#BitstreamVeraSans-Roman-67"/>
      </g>
     </g>
    </g>
    <g id="xtick_26">
     <g id="text_26">
      <!-- oracle -->
      <g transform="translate(958.608928571 2017.15)rotate(-90.0)scale(0.4 -0.4)">
       <use xlink:href="#BitstreamVeraSans-Roman-6f"/>
       <use x="61.181640625" xlink:href="#BitstreamVeraSans-Roman-72"/>
       <use x="102.294921875" xlink:href="#BitstreamVeraSans-Roman-61"/>
       <use x="163.57421875" xlink:href="#BitstreamVeraSans-Roman-63"/>
       <use x="218.5546875" xlink:href="#BitstreamVeraSans-Roman-6c"/>
       <use x="246.337890625" xlink:href="#BitstreamVeraSans-Roman-65"/>
      </g>
     </g>
    </g>
    <g id="xtick_27">
     <g id="text_27">
      <!-- (2) -->
      <defs>
       <path d="M 31 75.875 
Q 24.46875 64.65625 21.28125 53.65625 
Q 18.109375 42.671875 18.109375 31.390625 
Q 18.109375 20.125 21.3125 9.0625 
Q 24.515625 -2 31 -13.1875 
L 23.1875 -13.1875 
Q 15.875 -1.703125 12.234375 9.375 
Q 8.59375 20.453125 8.59375 31.390625 
Q 8.59375 42.28125 12.203125 53.3125 
Q 15.828125 64.359375 23.1875 75.875 
z
" id="BitstreamVeraSans-Roman-28"/>
       <path d="M 19.1875 8.296875 
L 53.609375 8.296875 
L 53.609375 0 
L 7.328125 0 
L 7.328125 8.296875 
Q 12.9375 14.109375 22.625 23.890625 
Q 32.328125 33.6875 34.8125 36.53125 
Q 39.546875 41.84375 41.421875 45.53125 
Q 43.3125 49.21875 43.3125 52.78125 
Q 43.3125 58.59375 39.234375 62.25 
Q 35.15625 65.921875 28.609375 65.921875 
Q 23.96875 65.921875 18.8125 64.3125 
Q 13.671875 62.703125 7.8125 59.421875 
L 7.8125 69.390625 
Q 13.765625 71.78125 18.9375 73 
Q 24.125 74.21875 28.421875 74.21875 
Q 39.75 74.21875 46.484375 68.546875 
Q 53.21875 62.890625 53.21875 53.421875 
Q 53.21875 48.921875 51.53125 44.890625 
Q 49.859375 40.875 45.40625 35.40625 
Q 44.1875 33.984375 37.640625 27.21875 
Q 31.109375 20.453125 19.1875 8.296875 
" id="BitstreamVeraSans-Roman-32"/>
       <path d="M 8.015625 75.875 
L 15.828125 75.875 
Q 23.140625 64.359375 26.78125 53.3125 
Q 30.421875 42.28125 30.421875 31.390625 
Q 30.421875 20.453125 26.78125 9.375 
Q 23.140625 -1.703125 15.828125 -13.1875 
L 8.015625 -13.1875 
Q 14.5 -2 17.703125 9.0625 
Q 20.90625 20.125 20.90625 31.390625 
Q 20.90625 42.671875 17.703125 53.65625 
Q 14.5 64.65625 8.015625 75.875 
" id="BitstreamVeraSans-Roman-29"/>
      </defs>
      <g transform="translate(985.180357143 1950.6625)rotate(-90.0)scale(0.4 -0.4)">
       <use xlink:href="#BitstreamVeraSans-Roman-28"/>
       <use x="39.013671875" xlink:href="#BitstreamVeraSans-Roman-32"/>
       <use x="102.63671875" xlink:href="#BitstreamVeraSans-Roman-29"/>
      </g>
     </g>
    </g>
    <g id="xtick_28">
     <g id="text_28">
      <!-- xcode -->
      <g transform="translate(1011.75178571 2014.14375)rotate(-90.0)scale(0.4 -0.4)">
       <use xlink:href="#BitstreamVeraSans-Roman-78"/>
       <use x="59.1640625" xlink:href="#BitstreamVeraSans-Roman-63"/>
       <use x="114.14453125" xlink:href="#BitstreamVeraSans-Roman-6f"/>
       <use x="175.326171875" xlink:href="#BitstreamVeraSans-Roman-64"/>
       <use x="238.802734375" xlink:href="#BitstreamVeraSans-Roman-65"/>
      </g>
     </g>
    </g>
    <g id="xtick_29">
     <g id="text_29">
      <!-- (3) -->
      <defs>
       <path d="M 40.578125 39.3125 
Q 47.65625 37.796875 51.625 33 
Q 55.609375 28.21875 55.609375 21.1875 
Q 55.609375 10.40625 48.1875 4.484375 
Q 40.765625 -1.421875 27.09375 -1.421875 
Q 22.515625 -1.421875 17.65625 -0.515625 
Q 12.796875 0.390625 7.625 2.203125 
L 7.625 11.71875 
Q 11.71875 9.328125 16.59375 8.109375 
Q 21.484375 6.890625 26.8125 6.890625 
Q 36.078125 6.890625 40.9375 10.546875 
Q 45.796875 14.203125 45.796875 21.1875 
Q 45.796875 27.640625 41.28125 31.265625 
Q 36.765625 34.90625 28.71875 34.90625 
L 20.21875 34.90625 
L 20.21875 43.015625 
L 29.109375 43.015625 
Q 36.375 43.015625 40.234375 45.921875 
Q 44.09375 48.828125 44.09375 54.296875 
Q 44.09375 59.90625 40.109375 62.90625 
Q 36.140625 65.921875 28.71875 65.921875 
Q 24.65625 65.921875 20.015625 65.03125 
Q 15.375 64.15625 9.8125 62.3125 
L 9.8125 71.09375 
Q 15.4375 72.65625 20.34375 73.4375 
Q 25.25 74.21875 29.59375 74.21875 
Q 40.828125 74.21875 47.359375 69.109375 
Q 53.90625 64.015625 53.90625 55.328125 
Q 53.90625 49.265625 50.4375 45.09375 
Q 46.96875 40.921875 40.578125 39.3125 
" id="BitstreamVeraSans-Roman-33"/>
      </defs>
      <g transform="translate(1038.32321429 1950.6625)rotate(-90.0)scale(0.4 -0.4)">
       <use xlink:href="#BitstreamVeraSans-Roman-28"/>
       <use x="39.013671875" xlink:href="#BitstreamVeraSans-Roman-33"/>
       <use x="102.63671875" xlink:href="#BitstreamVeraSans-Roman-29"/>
      </g>
     </g>
    </g>
    <g id="xtick_30">
     <g id="text_30">
      <!-- mongodb -->
      <g transform="translate(1064.89464286 2083.44375)rotate(-90.0)scale(0.4 -0.4)">
       <use xlink:href="#BitstreamVeraSans-Roman-6d"/>
       <use x="97.412109375" xlink:href="#BitstreamVeraSans-Roman-6f"/>
       <use x="158.59375" xlink:href="#BitstreamVeraSans-Roman-6e"/>
       <use x="221.97265625" xlink:href="#BitstreamVeraSans-Roman-67"/>
       <use x="285.44921875" xlink:href="#BitstreamVeraSans-Roman-6f"/>
       <use x="346.630859375" xlink:href="#BitstreamVeraSans-Roman-64"/>
       <use x="410.107421875" xlink:href="#BitstreamVeraSans-Roman-62"/>
      </g>
     </g>
    </g>
    <g id="xtick_31">
     <g id="text_31">
      <!-- .htaccess -->
      <g transform="translate(1091.46607143 2082.53125)rotate(-90.0)scale(0.4 -0.4)">
       <use xlink:href="#BitstreamVeraSans-Roman-2e"/>
       <use x="31.787109375" xlink:href="#BitstreamVeraSans-Roman-68"/>
       <use x="95.166015625" xlink:href="#BitstreamVeraSans-Roman-74"/>
       <use x="134.375" xlink:href="#BitstreamVeraSans-Roman-61"/>
       <use x="195.654296875" xlink:href="#BitstreamVeraSans-Roman-63"/>
       <use x="250.634765625" xlink:href="#BitstreamVeraSans-Roman-63"/>
       <use x="305.615234375" xlink:href="#BitstreamVeraSans-Roman-65"/>
       <use x="367.138671875" xlink:href="#BitstreamVeraSans-Roman-73"/>
       <use x="419.23828125" xlink:href="#BitstreamVeraSans-Roman-73"/>
      </g>
     </g>
    </g>
    <g id="xtick_32">
     <g id="text_32">
      <!-- apache -->
      <g transform="translate(1118.0375 2040.375)rotate(-90.0)scale(0.4 -0.4)">
       <use xlink:href="#BitstreamVeraSans-Roman-61"/>
       <use x="61.279296875" xlink:href="#BitstreamVeraSans-Roman-70"/>
       <use x="124.755859375" xlink:href="#BitstreamVeraSans-Roman-61"/>
       <use x="186.03515625" xlink:href="#BitstreamVeraSans-Roman-63"/>
       <use x="241.015625" xlink:href="#BitstreamVeraSans-Roman-68"/>
       <use x="304.39453125" xlink:href="#BitstreamVeraSans-Roman-65"/>
      </g>
     </g>
    </g>
    <g id="xtick_33">
     <g id="text_33">
      <!-- swing -->
      <g transform="translate(1144.60892857 2009.40625)rotate(-90.0)scale(0.4 -0.4)">
       <use xlink:href="#BitstreamVeraSans-Roman-73"/>
       <use x="52.099609375" xlink:href="#BitstreamVeraSans-Roman-77"/>
       <use x="133.88671875" xlink:href="#BitstreamVeraSans-Roman-69"/>
       <use x="161.669921875" xlink:href="#BitstreamVeraSans-Roman-6e"/>
       <use x="225.048828125" xlink:href="#BitstreamVeraSans-Roman-67"/>
      </g>
     </g>
    </g>
    <g id="xtick_34">
     <g id="text_34">
      <!-- (3) -->
      <g transform="translate(1171.18035714 1950.6625)rotate(-90.0)scale(0.4 -0.4)">
       <use xlink:href="#BitstreamVeraSans-Roman-28"/>
       <use x="39.013671875" xlink:href="#BitstreamVeraSans-Roman-33"/>
       <use x="102.63671875" xlink:href="#BitstreamVeraSans-Roman-29"/>
      </g>
     </g>
    </g>
    <g id="xtick_35">
     <g id="text_35">
      <!-- maven -->
      <g transform="translate(1197.75178571 2031.1125)rotate(-90.0)scale(0.4 -0.4)">
       <use xlink:href="#BitstreamVeraSans-Roman-6d"/>
       <use x="97.412109375" xlink:href="#BitstreamVeraSans-Roman-61"/>
       <use x="158.69140625" xlink:href="#BitstreamVeraSans-Roman-76"/>
       <use x="217.87109375" xlink:href="#BitstreamVeraSans-Roman-65"/>
       <use x="279.39453125" xlink:href="#BitstreamVeraSans-Roman-6e"/>
      </g>
     </g>
    </g>
    <g id="xtick_36">
     <g id="text_36">
      <!-- (521) -->
      <defs>
       <path d="M 12.40625 8.296875 
L 28.515625 8.296875 
L 28.515625 63.921875 
L 10.984375 60.40625 
L 10.984375 69.390625 
L 28.421875 72.90625 
L 38.28125 72.90625 
L 38.28125 8.296875 
L 54.390625 8.296875 
L 54.390625 0 
L 12.40625 0 
z
" id="BitstreamVeraSans-Roman-31"/>
       <path d="M 10.796875 72.90625 
L 49.515625 72.90625 
L 49.515625 64.59375 
L 19.828125 64.59375 
L 19.828125 46.734375 
Q 21.96875 47.46875 24.109375 47.828125 
Q 26.265625 48.1875 28.421875 48.1875 
Q 40.625 48.1875 47.75 41.5 
Q 54.890625 34.8125 54.890625 23.390625 
Q 54.890625 11.625 47.5625 5.09375 
Q 40.234375 -1.421875 26.90625 -1.421875 
Q 22.3125 -1.421875 17.546875 -0.640625 
Q 12.796875 0.140625 7.71875 1.703125 
L 7.71875 11.625 
Q 12.109375 9.234375 16.796875 8.0625 
Q 21.484375 6.890625 26.703125 6.890625 
Q 35.15625 6.890625 40.078125 11.328125 
Q 45.015625 15.765625 45.015625 23.390625 
Q 45.015625 31 40.078125 35.4375 
Q 35.15625 39.890625 26.703125 39.890625 
Q 22.75 39.890625 18.8125 39.015625 
Q 14.890625 38.140625 10.796875 36.28125 
z
" id="BitstreamVeraSans-Roman-35"/>
      </defs>
      <g transform="translate(1224.32321429 2001.5625)rotate(-90.0)scale(0.4 -0.4)">
       <use xlink:href="#BitstreamVeraSans-Roman-28"/>
       <use x="39.013671875" xlink:href="#BitstreamVeraSans-Roman-35"/>
       <use x="102.63671875" xlink:href="#BitstreamVeraSans-Roman-32"/>
       <use x="166.259765625" xlink:href="#BitstreamVeraSans-Roman-31"/>
       <use x="229.8828125" xlink:href="#BitstreamVeraSans-Roman-29"/>
      </g>
     </g>
    </g>
    <g id="xtick_37">
     <g id="text_37">
      <!-- google-maps -->
      <g transform="translate(1250.89464286 2153.6)rotate(-90.0)scale(0.4 -0.4)">
       <use xlink:href="#BitstreamVeraSans-Roman-67"/>
       <use x="63.4765625" xlink:href="#BitstreamVeraSans-Roman-6f"/>
       <use x="124.658203125" xlink:href="#BitstreamVeraSans-Roman-6f"/>
       <use x="185.83984375" xlink:href="#BitstreamVeraSans-Roman-67"/>
       <use x="249.31640625" xlink:href="#BitstreamVeraSans-Roman-6c"/>
       <use x="277.099609375" xlink:href="#BitstreamVeraSans-Roman-65"/>
       <use x="338.623046875" xlink:href="#BitstreamVeraSans-Roman-2d"/>
       <use x="374.70703125" xlink:href="#BitstreamVeraSans-Roman-6d"/>
       <use x="472.119140625" xlink:href="#BitstreamVeraSans-Roman-61"/>
       <use x="533.3984375" xlink:href="#BitstreamVeraSans-Roman-70"/>
       <use x="596.875" xlink:href="#BitstreamVeraSans-Roman-73"/>
      </g>
     </g>
    </g>
    <g id="xtick_38">
     <g id="text_38">
      <!-- google-maps-api-3 -->
      <g transform="translate(1277.46607143 2268.93125)rotate(-90.0)scale(0.4 -0.4)">
       <use xlink:href="#BitstreamVeraSans-Roman-67"/>
       <use x="63.4765625" xlink:href="#BitstreamVeraSans-Roman-6f"/>
       <use x="124.658203125" xlink:href="#BitstreamVeraSans-Roman-6f"/>
       <use x="185.83984375" xlink:href="#BitstreamVeraSans-Roman-67"/>
       <use x="249.31640625" xlink:href="#BitstreamVeraSans-Roman-6c"/>
       <use x="277.099609375" xlink:href="#BitstreamVeraSans-Roman-65"/>
       <use x="338.623046875" xlink:href="#BitstreamVeraSans-Roman-2d"/>
       <use x="374.70703125" xlink:href="#BitstreamVeraSans-Roman-6d"/>
       <use x="472.119140625" xlink:href="#BitstreamVeraSans-Roman-61"/>
       <use x="533.3984375" xlink:href="#BitstreamVeraSans-Roman-70"/>
       <use x="596.875" xlink:href="#BitstreamVeraSans-Roman-73"/>
       <use x="648.974609375" xlink:href="#BitstreamVeraSans-Roman-2d"/>
       <use x="685.05859375" xlink:href="#BitstreamVeraSans-Roman-61"/>
       <use x="746.337890625" xlink:href="#BitstreamVeraSans-Roman-70"/>
       <use x="809.814453125" xlink:href="#BitstreamVeraSans-Roman-69"/>
       <use x="837.59765625" xlink:href="#BitstreamVeraSans-Roman-2d"/>
       <use x="873.681640625" xlink:href="#BitstreamVeraSans-Roman-33"/>
      </g>
     </g>
    </g>
    <g id="xtick_39">
     <g id="text_39">
      <!-- image -->
      <g transform="translate(1304.0375 2018.59375)rotate(-90.0)scale(0.4 -0.4)">
       <use xlink:href="#BitstreamVeraSans-Roman-69"/>
       <use x="27.783203125" xlink:href="#BitstreamVeraSans-Roman-6d"/>
       <use x="125.1953125" xlink:href="#BitstreamVeraSans-Roman-61"/>
       <use x="186.474609375" xlink:href="#BitstreamVeraSans-Roman-67"/>
       <use x="249.951171875" xlink:href="#BitstreamVeraSans-Roman-65"/>
      </g>
     </g>
    </g>
    <g id="xtick_40">
     <g id="text_40">
      <!-- (31) -->
      <g transform="translate(1330.60892857 1976.1125)rotate(-90.0)scale(0.4 -0.4)">
       <use xlink:href="#BitstreamVeraSans-Roman-28"/>
       <use x="39.013671875" xlink:href="#BitstreamVeraSans-Roman-33"/>
       <use x="102.63671875" xlink:href="#BitstreamVeraSans-Roman-31"/>
       <use x="166.259765625" xlink:href="#BitstreamVeraSans-Roman-29"/>
      </g>
     </g>
    </g>
    <g id="xtick_41">
     <g id="text_41">
      <!-- matlab -->
      <g transform="translate(1357.18035714 2034.175)rotate(-90.0)scale(0.4 -0.4)">
       <use xlink:href="#BitstreamVeraSans-Roman-6d"/>
       <use x="97.412109375" xlink:href="#BitstreamVeraSans-Roman-61"/>
       <use x="158.69140625" xlink:href="#BitstreamVeraSans-Roman-74"/>
       <use x="197.900390625" xlink:href="#BitstreamVeraSans-Roman-6c"/>
       <use x="225.68359375" xlink:href="#BitstreamVeraSans-Roman-61"/>
       <use x="286.962890625" xlink:href="#BitstreamVeraSans-Roman-62"/>
      </g>
     </g>
    </g>
    <g id="xtick_42">
     <g id="text_42">
      <!-- bash -->
      <g transform="translate(1383.75178571 1990.09375)rotate(-90.0)scale(0.4 -0.4)">
       <use xlink:href="#BitstreamVeraSans-Roman-62"/>
       <use x="63.4765625" xlink:href="#BitstreamVeraSans-Roman-61"/>
       <use x="124.755859375" xlink:href="#BitstreamVeraSans-Roman-73"/>
       <use x="176.85546875" xlink:href="#BitstreamVeraSans-Roman-68"/>
      </g>
     </g>
    </g>
    <g id="xtick_43">
     <g id="text_43">
      <!-- linux -->
      <g transform="translate(1410.32321429 1990.6)rotate(-90.0)scale(0.4 -0.4)">
       <use xlink:href="#BitstreamVeraSans-Roman-6c"/>
       <use x="27.783203125" xlink:href="#BitstreamVeraSans-Roman-69"/>
       <use x="55.56640625" xlink:href="#BitstreamVeraSans-Roman-6e"/>
       <use x="118.9453125" xlink:href="#BitstreamVeraSans-Roman-75"/>
       <use x="182.32421875" xlink:href="#BitstreamVeraSans-Roman-78"/>
      </g>
     </g>
    </g>
    <g id="xtick_44">
     <g id="text_44">
      <!-- windows -->
      <g transform="translate(1436.89464286 2066.59375)rotate(-90.0)scale(0.4 -0.4)">
       <use xlink:href="#BitstreamVeraSans-Roman-77"/>
       <use x="81.787109375" xlink:href="#BitstreamVeraSans-Roman-69"/>
       <use x="109.5703125" xlink:href="#BitstreamVeraSans-Roman-6e"/>
       <use x="172.94921875" xlink:href="#BitstreamVeraSans-Roman-64"/>
       <use x="236.42578125" xlink:href="#BitstreamVeraSans-Roman-6f"/>
       <use x="297.607421875" xlink:href="#BitstreamVeraSans-Roman-77"/>
       <use x="379.39453125" xlink:href="#BitstreamVeraSans-Roman-73"/>
      </g>
     </g>
    </g>
    <g id="xtick_45">
     <g id="text_45">
      <!-- swift -->
      <g transform="translate(1463.46607143 1988.41875)rotate(-90.0)scale(0.4 -0.4)">
       <use xlink:href="#BitstreamVeraSans-Roman-73"/>
       <use x="52.099609375" xlink:href="#BitstreamVeraSans-Roman-77"/>
       <use x="133.88671875" xlink:href="#BitstreamVeraSans-Roman-69"/>
       <use x="161.669921875" xlink:href="#BitstreamVeraSans-Roman-66"/>
       <use x="196.859375" xlink:href="#BitstreamVeraSans-Roman-74"/>
      </g>
     </g>
    </g>
    <g id="xtick_46">
     <g id="text_46">
      <!-- ajax -->
      <g transform="translate(1490.0375 1977.8125)rotate(-90.0)scale(0.4 -0.4)">
       <use xlink:href="#BitstreamVeraSans-Roman-61"/>
       <use x="61.279296875" xlink:href="#BitstreamVeraSans-Roman-6a"/>
       <use x="89.0625" xlink:href="#BitstreamVeraSans-Roman-61"/>
       <use x="150.341796875" xlink:href="#BitstreamVeraSans-Roman-78"/>
      </g>
     </g>
    </g>
    <g id="xtick_47">
     <g id="text_47">
      <!-- wordpress -->
      <g transform="translate(1516.60892857 2101.13125)rotate(-90.0)scale(0.4 -0.4)">
       <use xlink:href="#BitstreamVeraSans-Roman-77"/>
       <use x="81.787109375" xlink:href="#BitstreamVeraSans-Roman-6f"/>
       <use x="142.96875" xlink:href="#BitstreamVeraSans-Roman-72"/>
       <use x="184.06640625" xlink:href="#BitstreamVeraSans-Roman-64"/>
       <use x="247.54296875" xlink:href="#BitstreamVeraSans-Roman-70"/>
       <use x="311.01953125" xlink:href="#BitstreamVeraSans-Roman-72"/>
       <use x="352.1015625" xlink:href="#BitstreamVeraSans-Roman-65"/>
       <use x="413.625" xlink:href="#BitstreamVeraSans-Roman-73"/>
       <use x="465.724609375" xlink:href="#BitstreamVeraSans-Roman-73"/>
      </g>
     </g>
    </g>
    <g id="xtick_48">
     <g id="text_48">
      <!-- sql-server -->
      <g transform="translate(1543.18035714 2092.4)rotate(-90.0)scale(0.4 -0.4)">
       <use xlink:href="#BitstreamVeraSans-Roman-73"/>
       <use x="52.099609375" xlink:href="#BitstreamVeraSans-Roman-71"/>
       <use x="115.576171875" xlink:href="#BitstreamVeraSans-Roman-6c"/>
       <use x="143.359375" xlink:href="#BitstreamVeraSans-Roman-2d"/>
       <use x="179.443359375" xlink:href="#BitstreamVeraSans-Roman-73"/>
       <use x="231.54296875" xlink:href="#BitstreamVeraSans-Roman-65"/>
       <use x="293.06640625" xlink:href="#BitstreamVeraSans-Roman-72"/>
       <use x="334.1796875" xlink:href="#BitstreamVeraSans-Roman-76"/>
       <use x="393.359375" xlink:href="#BitstreamVeraSans-Roman-65"/>
       <use x="454.8828125" xlink:href="#BitstreamVeraSans-Roman-72"/>
      </g>
     </g>
    </g>
    <g id="xtick_49">
     <g id="text_49">
      <!-- xml -->
      <g transform="translate(1569.75178571 1967.75)rotate(-90.0)scale(0.4 -0.4)">
       <use xlink:href="#BitstreamVeraSans-Roman-78"/>
       <use x="59.1796875" xlink:href="#BitstreamVeraSans-Roman-6d"/>
       <use x="156.591796875" xlink:href="#BitstreamVeraSans-Roman-6c"/>
      </g>
     </g>
    </g>
    <g id="xtick_50">
     <g id="text_50">
      <!-- .net -->
      <g transform="translate(1596.32321429 1972.35625)rotate(-90.0)scale(0.4 -0.4)">
       <use xlink:href="#BitstreamVeraSans-Roman-2e"/>
       <use x="31.787109375" xlink:href="#BitstreamVeraSans-Roman-6e"/>
       <use x="95.166015625" xlink:href="#BitstreamVeraSans-Roman-65"/>
       <use x="156.689453125" xlink:href="#BitstreamVeraSans-Roman-74"/>
      </g>
     </g>
    </g>
    <g id="xtick_51">
     <g id="text_51">
      <!-- asp.net-mvc -->
      <g transform="translate(1622.89464286 2142.1625)rotate(-90.0)scale(0.4 -0.4)">
       <use xlink:href="#BitstreamVeraSans-Roman-61"/>
       <use x="61.279296875" xlink:href="#BitstreamVeraSans-Roman-73"/>
       <use x="113.37890625" xlink:href="#BitstreamVeraSans-Roman-70"/>
       <use x="176.85546875" xlink:href="#BitstreamVeraSans-Roman-2e"/>
       <use x="208.642578125" xlink:href="#BitstreamVeraSans-Roman-6e"/>
       <use x="272.021484375" xlink:href="#BitstreamVeraSans-Roman-65"/>
       <use x="333.544921875" xlink:href="#BitstreamVeraSans-Roman-74"/>
       <use x="372.75390625" xlink:href="#BitstreamVeraSans-Roman-2d"/>
       <use x="408.837890625" xlink:href="#BitstreamVeraSans-Roman-6d"/>
       <use x="506.25" xlink:href="#BitstreamVeraSans-Roman-76"/>
       <use x="565.4296875" xlink:href="#BitstreamVeraSans-Roman-63"/>
      </g>
     </g>
    </g>
    <g id="xtick_52">
     <g id="text_52">
      <!-- json -->
      <g transform="translate(1649.46607143 1975.775)rotate(-90.0)scale(0.4 -0.4)">
       <use xlink:href="#BitstreamVeraSans-Roman-6a"/>
       <use x="27.783203125" xlink:href="#BitstreamVeraSans-Roman-73"/>
       <use x="79.8828125" xlink:href="#BitstreamVeraSans-Roman-6f"/>
       <use x="141.064453125" xlink:href="#BitstreamVeraSans-Roman-6e"/>
      </g>
     </g>
    </g>
    <g id="xtick_53">
     <g id="text_53">
      <!-- node.js -->
      <g transform="translate(1676.0375 2038.49375)rotate(-90.0)scale(0.4 -0.4)">
       <use xlink:href="#BitstreamVeraSans-Roman-6e"/>
       <use x="63.37890625" xlink:href="#BitstreamVeraSans-Roman-6f"/>
       <use x="124.560546875" xlink:href="#BitstreamVeraSans-Roman-64"/>
       <use x="188.037109375" xlink:href="#BitstreamVeraSans-Roman-65"/>
       <use x="249.560546875" xlink:href="#BitstreamVeraSans-Roman-2e"/>
       <use x="281.34765625" xlink:href="#BitstreamVeraSans-Roman-6a"/>
       <use x="309.130859375" xlink:href="#BitstreamVeraSans-Roman-73"/>
      </g>
     </g>
    </g>
    <g id="xtick_54">
     <g id="text_54">
      <!-- ios -->
      <g transform="translate(1702.60892857 1950.425)rotate(-90.0)scale(0.4 -0.4)">
       <use xlink:href="#BitstreamVeraSans-Roman-69"/>
       <use x="27.783203125" xlink:href="#BitstreamVeraSans-Roman-6f"/>
       <use x="88.96484375" xlink:href="#BitstreamVeraSans-Roman-73"/>
      </g>
     </g>
    </g>
    <g id="xtick_55">
     <g id="text_55">
      <!-- css -->
      <g transform="translate(1729.18035714 1957.66875)rotate(-90.0)scale(0.4 -0.4)">
       <use xlink:href="#BitstreamVeraSans-Roman-63"/>
       <use x="54.98046875" xlink:href="#BitstreamVeraSans-Roman-73"/>
       <use x="107.080078125" xlink:href="#BitstreamVeraSans-Roman-73"/>
      </g>
     </g>
    </g>
    <g id="xtick_56">
     <g id="text_56">
      <!-- html -->
      <g transform="translate(1755.75178571 1985.10625)rotate(-90.0)scale(0.4 -0.4)">
       <use xlink:href="#BitstreamVeraSans-Roman-68"/>
       <use x="63.37890625" xlink:href="#BitstreamVeraSans-Roman-74"/>
       <use x="102.587890625" xlink:href="#BitstreamVeraSans-Roman-6d"/>
       <use x="200.0" xlink:href="#BitstreamVeraSans-Roman-6c"/>
      </g>
     </g>
    </g>
    <g id="xtick_57">
     <g id="text_57">
      <!-- android -->
      <g transform="translate(1782.32321429 2046.66875)rotate(-90.0)scale(0.4 -0.4)">
       <use xlink:href="#BitstreamVeraSans-Roman-61"/>
       <use x="61.279296875" xlink:href="#BitstreamVeraSans-Roman-6e"/>
       <use x="124.658203125" xlink:href="#BitstreamVeraSans-Roman-64"/>
       <use x="188.134765625" xlink:href="#BitstreamVeraSans-Roman-72"/>
       <use x="229.216796875" xlink:href="#BitstreamVeraSans-Roman-6f"/>
       <use x="290.3984375" xlink:href="#BitstreamVeraSans-Roman-69"/>
       <use x="318.181640625" xlink:href="#BitstreamVeraSans-Roman-64"/>
      </g>
     </g>
    </g>
    <g id="xtick_58">
     <g id="text_58">
      <!-- c# -->
      <defs>
       <path d="M 51.125 44 
L 36.921875 44 
L 32.8125 27.6875 
L 47.125 27.6875 
z
M 43.796875 71.78125 
L 38.71875 51.515625 
L 52.984375 51.515625 
L 58.109375 71.78125 
L 65.921875 71.78125 
L 60.890625 51.515625 
L 76.125 51.515625 
L 76.125 44 
L 58.984375 44 
L 54.984375 27.6875 
L 70.515625 27.6875 
L 70.515625 20.21875 
L 53.078125 20.21875 
L 48 0 
L 40.1875 0 
L 45.21875 20.21875 
L 30.90625 20.21875 
L 25.875 0 
L 18.015625 0 
L 23.09375 20.21875 
L 7.71875 20.21875 
L 7.71875 27.6875 
L 24.90625 27.6875 
L 29 44 
L 13.28125 44 
L 13.28125 51.515625 
L 30.90625 51.515625 
L 35.890625 71.78125 
z
" id="BitstreamVeraSans-Roman-23"/>
      </defs>
      <g transform="translate(1808.89464286 1949.5125)rotate(-90.0)scale(0.4 -0.4)">
       <use xlink:href="#BitstreamVeraSans-Roman-63"/>
       <use x="54.98046875" xlink:href="#BitstreamVeraSans-Roman-23"/>
      </g>
     </g>
    </g>
    <g id="xtick_59">
     <g id="text_59">
      <!-- java -->
      <g transform="translate(1835.46607143 1977.8125)rotate(-90.0)scale(0.4 -0.4)">
       <use xlink:href="#BitstreamVeraSans-Roman-6a"/>
       <use x="27.783203125" xlink:href="#BitstreamVeraSans-Roman-61"/>
       <use x="89.0625" xlink:href="#BitstreamVeraSans-Roman-76"/>
       <use x="148.2421875" xlink:href="#BitstreamVeraSans-Roman-61"/>
      </g>
     </g>
    </g>
    <g id="xtick_60">
     <g id="text_60">
      <!-- javascript -->
      <g transform="translate(1862.0375 2089.275)rotate(-90.0)scale(0.4 -0.4)">
       <use xlink:href="#BitstreamVeraSans-Roman-6a"/>
       <use x="27.783203125" xlink:href="#BitstreamVeraSans-Roman-61"/>
       <use x="89.0625" xlink:href="#BitstreamVeraSans-Roman-76"/>
       <use x="148.2421875" xlink:href="#BitstreamVeraSans-Roman-61"/>
       <use x="209.521484375" xlink:href="#BitstreamVeraSans-Roman-73"/>
       <use x="261.62109375" xlink:href="#BitstreamVeraSans-Roman-63"/>
       <use x="316.6015625" xlink:href="#BitstreamVeraSans-Roman-72"/>
       <use x="357.71484375" xlink:href="#BitstreamVeraSans-Roman-69"/>
       <use x="385.498046875" xlink:href="#BitstreamVeraSans-Roman-70"/>
       <use x="448.974609375" xlink:href="#BitstreamVeraSans-Roman-74"/>
      </g>
     </g>
    </g>
    <g id="xtick_61">
     <g id="text_61">
      <!-- jquery -->
      <g transform="translate(1888.60892857 2020.5875)rotate(-90.0)scale(0.4 -0.4)">
       <use xlink:href="#BitstreamVeraSans-Roman-6a"/>
       <use x="27.783203125" xlink:href="#BitstreamVeraSans-Roman-71"/>
       <use x="91.259765625" xlink:href="#BitstreamVeraSans-Roman-75"/>
       <use x="154.638671875" xlink:href="#BitstreamVeraSans-Roman-65"/>
       <use x="216.162109375" xlink:href="#BitstreamVeraSans-Roman-72"/>
       <use x="257.275390625" xlink:href="#BitstreamVeraSans-Roman-79"/>
      </g>
     </g>
    </g>
    <g id="xtick_62">
     <g id="text_62">
      <!-- php -->
      <g transform="translate(1915.18035714 1970.1375)rotate(-90.0)scale(0.4 -0.4)">
       <use xlink:href="#BitstreamVeraSans-Roman-70"/>
       <use x="63.4765625" xlink:href="#BitstreamVeraSans-Roman-68"/>
       <use x="126.85546875" xlink:href="#BitstreamVeraSans-Roman-70"/>
      </g>
     </g>
    </g>
    <g id="xtick_63">
     <g id="text_63">
      <!-- python -->
      <g transform="translate(1941.75178571 2033.925)rotate(-90.0)scale(0.4 -0.4)">
       <use xlink:href="#BitstreamVeraSans-Roman-70"/>
       <use x="63.4765625" xlink:href="#BitstreamVeraSans-Roman-79"/>
       <use x="122.65625" xlink:href="#BitstreamVeraSans-Roman-74"/>
       <use x="161.865234375" xlink:href="#BitstreamVeraSans-Roman-68"/>
       <use x="225.244140625" xlink:href="#BitstreamVeraSans-Roman-6f"/>
       <use x="286.42578125" xlink:href="#BitstreamVeraSans-Roman-6e"/>
      </g>
     </g>
    </g>
   </g>
   <g id="matplotlib.axis_2">
    <g id="ytick_1">
     <g id="line2d_1">
      <defs>
       <path d="M 0 0 
L 4 0 
" id="mecf237ae2f" style="stroke:#000000;stroke-width:0.5;"/>
      </defs>
      <g>
       <use style="stroke:#000000;stroke-width:0.5;" x="270.0" xlink:href="#mecf237ae2f" y="1890.0"/>
      </g>
     </g>
     <g id="line2d_2">
      <defs>
       <path d="M 0 0 
L -4 0 
" id="m12ae63826c" style="stroke:#000000;stroke-width:0.5;"/>
      </defs>
      <g>
       <use style="stroke:#000000;stroke-width:0.5;" x="1944.0" xlink:href="#m12ae63826c" y="1890.0"/>
      </g>
     </g>
     <g id="text_64">
      <!-- 0 -->
      <defs>
       <path d="M 31.78125 66.40625 
Q 24.171875 66.40625 20.328125 58.90625 
Q 16.5 51.421875 16.5 36.375 
Q 16.5 21.390625 20.328125 13.890625 
Q 24.171875 6.390625 31.78125 6.390625 
Q 39.453125 6.390625 43.28125 13.890625 
Q 47.125 21.390625 47.125 36.375 
Q 47.125 51.421875 43.28125 58.90625 
Q 39.453125 66.40625 31.78125 66.40625 
M 31.78125 74.21875 
Q 44.046875 74.21875 50.515625 64.515625 
Q 56.984375 54.828125 56.984375 36.375 
Q 56.984375 17.96875 50.515625 8.265625 
Q 44.046875 -1.421875 31.78125 -1.421875 
Q 19.53125 -1.421875 13.0625 8.265625 
Q 6.59375 17.96875 6.59375 36.375 
Q 6.59375 54.828125 13.0625 64.515625 
Q 19.53125 74.21875 31.78125 74.21875 
" id="BitstreamVeraSans-Roman-30"/>
      </defs>
      <g transform="translate(215.1 1912.075)scale(0.8 -0.8)">
       <use xlink:href="#BitstreamVeraSans-Roman-30"/>
      </g>
     </g>
    </g>
    <g id="ytick_2">
     <g id="line2d_3">
      <g>
       <use style="stroke:#000000;stroke-width:0.5;" x="270.0" xlink:href="#mecf237ae2f" y="1580.01146495"/>
      </g>
     </g>
     <g id="line2d_4">
      <g>
       <use style="stroke:#000000;stroke-width:0.5;" x="1944.0" xlink:href="#m12ae63826c" y="1580.01146495"/>
      </g>
     </g>
     <g id="text_65">
      <!-- 500 -->
      <g transform="translate(113.3 1602.08646495)scale(0.8 -0.8)">
       <use xlink:href="#BitstreamVeraSans-Roman-35"/>
       <use x="63.623046875" xlink:href="#BitstreamVeraSans-Roman-30"/>
       <use x="127.24609375" xlink:href="#BitstreamVeraSans-Roman-30"/>
      </g>
     </g>
    </g>
    <g id="ytick_3">
     <g id="line2d_5">
      <g>
       <use style="stroke:#000000;stroke-width:0.5;" x="270.0" xlink:href="#mecf237ae2f" y="1270.02292989"/>
      </g>
     </g>
     <g id="line2d_6">
      <g>
       <use style="stroke:#000000;stroke-width:0.5;" x="1944.0" xlink:href="#m12ae63826c" y="1270.02292989"/>
      </g>
     </g>
     <g id="text_66">
      <!-- 1000 -->
      <g transform="translate(62.4 1292.09792989)scale(0.8 -0.8)">
       <use xlink:href="#BitstreamVeraSans-Roman-31"/>
       <use x="63.623046875" xlink:href="#BitstreamVeraSans-Roman-30"/>
       <use x="127.24609375" xlink:href="#BitstreamVeraSans-Roman-30"/>
       <use x="190.869140625" xlink:href="#BitstreamVeraSans-Roman-30"/>
      </g>
     </g>
    </g>
    <g id="ytick_4">
     <g id="line2d_7">
      <g>
       <use style="stroke:#000000;stroke-width:0.5;" x="270.0" xlink:href="#mecf237ae2f" y="960.03439484"/>
      </g>
     </g>
     <g id="line2d_8">
      <g>
       <use style="stroke:#000000;stroke-width:0.5;" x="1944.0" xlink:href="#m12ae63826c" y="960.03439484"/>
      </g>
     </g>
     <g id="text_67">
      <!-- 1500 -->
      <g transform="translate(62.4 982.10939484)scale(0.8 -0.8)">
       <use xlink:href="#BitstreamVeraSans-Roman-31"/>
       <use x="63.623046875" xlink:href="#BitstreamVeraSans-Roman-35"/>
       <use x="127.24609375" xlink:href="#BitstreamVeraSans-Roman-30"/>
       <use x="190.869140625" xlink:href="#BitstreamVeraSans-Roman-30"/>
      </g>
     </g>
    </g>
    <g id="ytick_5">
     <g id="line2d_9">
      <g>
       <use style="stroke:#000000;stroke-width:0.5;" x="270.0" xlink:href="#mecf237ae2f" y="650.045859786"/>
      </g>
     </g>
     <g id="line2d_10">
      <g>
       <use style="stroke:#000000;stroke-width:0.5;" x="1944.0" xlink:href="#m12ae63826c" y="650.045859786"/>
      </g>
     </g>
     <g id="text_68">
      <!-- 2000 -->
      <g transform="translate(62.4 672.120859786)scale(0.8 -0.8)">
       <use xlink:href="#BitstreamVeraSans-Roman-32"/>
       <use x="63.623046875" xlink:href="#BitstreamVeraSans-Roman-30"/>
       <use x="127.24609375" xlink:href="#BitstreamVeraSans-Roman-30"/>
       <use x="190.869140625" xlink:href="#BitstreamVeraSans-Roman-30"/>
      </g>
     </g>
    </g>
    <g id="ytick_6">
     <g id="line2d_11">
      <g>
       <use style="stroke:#000000;stroke-width:0.5;" x="270.0" xlink:href="#mecf237ae2f" y="340.057324733"/>
      </g>
     </g>
     <g id="line2d_12">
      <g>
       <use style="stroke:#000000;stroke-width:0.5;" x="1944.0" xlink:href="#m12ae63826c" y="340.057324733"/>
      </g>
     </g>
     <g id="text_69">
      <!-- 2500 -->
      <g transform="translate(62.4 362.132324733)scale(0.8 -0.8)">
       <use xlink:href="#BitstreamVeraSans-Roman-32"/>
       <use x="63.623046875" xlink:href="#BitstreamVeraSans-Roman-35"/>
       <use x="127.24609375" xlink:href="#BitstreamVeraSans-Roman-30"/>
       <use x="190.869140625" xlink:href="#BitstreamVeraSans-Roman-30"/>
      </g>
     </g>
    </g>
   </g>
  </g>
 </g>
 <defs>
  <clipPath id="p9c5a1745a2">
   <rect height="1674.0" width="1674.0" x="270.0" y="216.0"/>
  </clipPath>
 </defs>
</svg>
