<?xml version="1.0" encoding="utf-8" standalone="no"?>
<!DOCTYPE svg PUBLIC "-//W3C//DTD SVG 1.1//EN"
  "http://www.w3.org/Graphics/SVG/1.1/DTD/svg11.dtd">
<!-- Created with matplotlib (http://matplotlib.org/) -->
<svg height="2880pt" version="1.1" viewBox="0 0 7200 2880" width="7200pt" xmlns="http://www.w3.org/2000/svg" xmlns:xlink="http://www.w3.org/1999/xlink">
 <defs>
  <style type="text/css">
*{stroke-linecap:butt;stroke-linejoin:round;stroke-miterlimit:100000;}
  </style>
 </defs>
 <g id="figure_1">
  <g id="patch_1">
   <path d="M 0 2880 
L 7200 2880 
L 7200 0 
L 0 0 
z
" style="fill:#ffffff;"/>
  </g>
  <g id="axes_1">
   <g id="patch_2">
    <path d="M 900 2520 
L 6480 2520 
L 6480 288 
L 900 288 
z
" style="fill:#ffffff;"/>
   </g>
   <g id="LineCollection_1">
    <path clip-path="url(#p05bc2faac7)" d="M 1536.315789 2520 
L 1536.315789 1970.90255 
L 1634.210526 1970.90255 
L 1634.210526 2520 
" style="fill:none;stroke:#008000;stroke-width:2.0;"/>
    <path clip-path="url(#p05bc2faac7)" d="M 3298.421053 2520 
L 3298.421053 2247.550165 
L 3396.315789 2247.550165 
L 3396.315789 2520 
" style="fill:none;stroke:#008000;stroke-width:2.0;"/>
    <path clip-path="url(#p05bc2faac7)" d="M 5745.789474 2520 
L 5745.789474 2460.953478 
L 5843.684211 2460.953478 
L 5843.684211 2520 
" style="fill:none;stroke:#008000;stroke-width:2.0;"/>
    <path clip-path="url(#p05bc2faac7)" d="M 5941.578947 2520 
L 5941.578947 2354.7507 
L 6039.473684 2354.7507 
L 6039.473684 2520 
" style="fill:none;stroke:#008000;stroke-width:2.0;"/>
    <path clip-path="url(#p05bc2faac7)" d="M 5794.736842 2460.953478 
L 5794.736842 2353.656246 
L 5990.526316 2353.656246 
L 5990.526316 2354.7507 
" style="fill:none;stroke:#008000;stroke-width:2.0;"/>
    <path clip-path="url(#p05bc2faac7)" d="M 5647.894737 2520 
L 5647.894737 2353.654979 
L 5892.631579 2353.654979 
L 5892.631579 2353.656246 
" style="fill:none;stroke:#008000;stroke-width:2.0;"/>
    <path clip-path="url(#p05bc2faac7)" d="M 5550 2520 
L 5550 2353.211216 
L 5770.263158 2353.211216 
L 5770.263158 2353.654979 
" style="fill:none;stroke:#008000;stroke-width:2.0;"/>
    <path clip-path="url(#p05bc2faac7)" d="M 5452.105263 2520 
L 5452.105263 2343.157907 
L 5660.131579 2343.157907 
L 5660.131579 2353.211216 
" style="fill:none;stroke:#008000;stroke-width:2.0;"/>
    <path clip-path="url(#p05bc2faac7)" d="M 5354.210526 2520 
L 5354.210526 2341.350543 
L 5556.118421 2341.350543 
L 5556.118421 2343.157907 
" style="fill:none;stroke:#008000;stroke-width:2.0;"/>
    <path clip-path="url(#p05bc2faac7)" d="M 5256.315789 2520 
L 5256.315789 2339.01954 
L 5455.164474 2339.01954 
L 5455.164474 2341.350543 
" style="fill:none;stroke:#008000;stroke-width:2.0;"/>
    <path clip-path="url(#p05bc2faac7)" d="M 5158.421053 2520 
L 5158.421053 2338.600685 
L 5355.740132 2338.600685 
L 5355.740132 2339.01954 
" style="fill:none;stroke:#008000;stroke-width:2.0;"/>
    <path clip-path="url(#p05bc2faac7)" d="M 5060.526316 2520 
L 5060.526316 2335.646572 
L 5257.080592 2335.646572 
L 5257.080592 2338.600685 
" style="fill:none;stroke:#008000;stroke-width:2.0;"/>
    <path clip-path="url(#p05bc2faac7)" d="M 4962.631579 2520 
L 4962.631579 2333.489411 
L 5158.803454 2333.489411 
L 5158.803454 2335.646572 
" style="fill:none;stroke:#008000;stroke-width:2.0;"/>
    <path clip-path="url(#p05bc2faac7)" d="M 4864.736842 2520 
L 4864.736842 2327.442518 
L 5060.717516 2327.442518 
L 5060.717516 2333.489411 
" style="fill:none;stroke:#008000;stroke-width:2.0;"/>
    <path clip-path="url(#p05bc2faac7)" d="M 4766.842105 2520 
L 4766.842105 2326.655692 
L 4962.727179 2326.655692 
L 4962.727179 2327.442518 
" style="fill:none;stroke:#008000;stroke-width:2.0;"/>
    <path clip-path="url(#p05bc2faac7)" d="M 4668.947368 2520 
L 4668.947368 2318.401963 
L 4864.784642 2318.401963 
L 4864.784642 2326.655692 
" style="fill:none;stroke:#008000;stroke-width:2.0;"/>
    <path clip-path="url(#p05bc2faac7)" d="M 4571.052632 2520 
L 4571.052632 2316.158216 
L 4766.866005 2316.158216 
L 4766.866005 2318.401963 
" style="fill:none;stroke:#008000;stroke-width:2.0;"/>
    <path clip-path="url(#p05bc2faac7)" d="M 4473.157895 2520 
L 4473.157895 2312.487892 
L 4668.959318 2312.487892 
L 4668.959318 2316.158216 
" style="fill:none;stroke:#008000;stroke-width:2.0;"/>
    <path clip-path="url(#p05bc2faac7)" d="M 4375.263158 2520 
L 4375.263158 2298.084766 
L 4571.058607 2298.084766 
L 4571.058607 2312.487892 
" style="fill:none;stroke:#008000;stroke-width:2.0;"/>
    <path clip-path="url(#p05bc2faac7)" d="M 4277.368421 2520 
L 4277.368421 2290.92381 
L 4473.160882 2290.92381 
L 4473.160882 2298.084766 
" style="fill:none;stroke:#008000;stroke-width:2.0;"/>
    <path clip-path="url(#p05bc2faac7)" d="M 4179.473684 2520 
L 4179.473684 2265.579027 
L 4375.264652 2265.579027 
L 4375.264652 2290.92381 
" style="fill:none;stroke:#008000;stroke-width:2.0;"/>
    <path clip-path="url(#p05bc2faac7)" d="M 4081.578947 2520 
L 4081.578947 2257.877458 
L 4277.369168 2257.877458 
L 4277.369168 2265.579027 
" style="fill:none;stroke:#008000;stroke-width:2.0;"/>
    <path clip-path="url(#p05bc2faac7)" d="M 3983.684211 2520 
L 3983.684211 2253.779586 
L 4179.474058 2253.779586 
L 4179.474058 2257.877458 
" style="fill:none;stroke:#008000;stroke-width:2.0;"/>
    <path clip-path="url(#p05bc2faac7)" d="M 3885.789474 2520 
L 3885.789474 2237.41879 
L 4081.579134 2237.41879 
L 4081.579134 2253.779586 
" style="fill:none;stroke:#008000;stroke-width:2.0;"/>
    <path clip-path="url(#p05bc2faac7)" d="M 3787.894737 2520 
L 3787.894737 2223.222242 
L 3983.684304 2223.222242 
L 3983.684304 2237.41879 
" style="fill:none;stroke:#008000;stroke-width:2.0;"/>
    <path clip-path="url(#p05bc2faac7)" d="M 3690 2520 
L 3690 2222.602643 
L 3885.78952 2222.602643 
L 3885.78952 2223.222242 
" style="fill:none;stroke:#008000;stroke-width:2.0;"/>
    <path clip-path="url(#p05bc2faac7)" d="M 3592.105263 2520 
L 3592.105263 2209.903143 
L 3787.89476 2209.903143 
L 3787.89476 2222.602643 
" style="fill:none;stroke:#008000;stroke-width:2.0;"/>
    <path clip-path="url(#p05bc2faac7)" d="M 6137.368421 2520 
L 6137.368421 2197.187155 
L 6235.263158 2197.187155 
L 6235.263158 2520 
" style="fill:none;stroke:#008000;stroke-width:2.0;"/>
    <path clip-path="url(#p05bc2faac7)" d="M 3690.000012 2209.903143 
L 3690.000012 2187.13518 
L 6186.315789 2187.13518 
L 6186.315789 2197.187155 
" style="fill:none;stroke:#008000;stroke-width:2.0;"/>
    <path clip-path="url(#p05bc2faac7)" d="M 3494.210526 2520 
L 3494.210526 2172.291328 
L 4938.157901 2172.291328 
L 4938.157901 2187.13518 
" style="fill:none;stroke:#008000;stroke-width:2.0;"/>
    <path clip-path="url(#p05bc2faac7)" d="M 3347.368421 2247.550165 
L 3347.368421 2169.440017 
L 4216.184213 2169.440017 
L 4216.184213 2172.291328 
" style="fill:none;stroke:#008000;stroke-width:2.0;"/>
    <path clip-path="url(#p05bc2faac7)" d="M 3200.526316 2520 
L 3200.526316 2168.153295 
L 3781.776317 2168.153295 
L 3781.776317 2169.440017 
" style="fill:none;stroke:#008000;stroke-width:2.0;"/>
    <path clip-path="url(#p05bc2faac7)" d="M 3102.631579 2520 
L 3102.631579 2138.39244 
L 3491.151317 2138.39244 
L 3491.151317 2168.153295 
" style="fill:none;stroke:#008000;stroke-width:2.0;"/>
    <path clip-path="url(#p05bc2faac7)" d="M 3004.736842 2520 
L 3004.736842 2131.010475 
L 3296.891448 2131.010475 
L 3296.891448 2138.39244 
" style="fill:none;stroke:#008000;stroke-width:2.0;"/>
    <path clip-path="url(#p05bc2faac7)" d="M 2906.842105 2520 
L 2906.842105 2129.851275 
L 3150.814145 2129.851275 
L 3150.814145 2131.010475 
" style="fill:none;stroke:#008000;stroke-width:2.0;"/>
    <path clip-path="url(#p05bc2faac7)" d="M 2808.947368 2520 
L 2808.947368 2129.591704 
L 3028.828125 2129.591704 
L 3028.828125 2129.851275 
" style="fill:none;stroke:#008000;stroke-width:2.0;"/>
    <path clip-path="url(#p05bc2faac7)" d="M 2711.052632 2520 
L 2711.052632 2119.66975 
L 2918.887747 2119.66975 
L 2918.887747 2129.591704 
" style="fill:none;stroke:#008000;stroke-width:2.0;"/>
    <path clip-path="url(#p05bc2faac7)" d="M 2613.157895 2520 
L 2613.157895 2080.840856 
L 2814.970189 2080.840856 
L 2814.970189 2119.66975 
" style="fill:none;stroke:#008000;stroke-width:2.0;"/>
    <path clip-path="url(#p05bc2faac7)" d="M 2515.263158 2520 
L 2515.263158 2077.59305 
L 2714.064042 2077.59305 
L 2714.064042 2080.840856 
" style="fill:none;stroke:#008000;stroke-width:2.0;"/>
    <path clip-path="url(#p05bc2faac7)" d="M 2417.368421 2520 
L 2417.368421 2075.061843 
L 2614.6636 2075.061843 
L 2614.6636 2077.59305 
" style="fill:none;stroke:#008000;stroke-width:2.0;"/>
    <path clip-path="url(#p05bc2faac7)" d="M 2319.473684 2520 
L 2319.473684 2065.787481 
L 2516.01601 2065.787481 
L 2516.01601 2075.061843 
" style="fill:none;stroke:#008000;stroke-width:2.0;"/>
    <path clip-path="url(#p05bc2faac7)" d="M 2221.578947 2520 
L 2221.578947 2050.657636 
L 2417.744847 2050.657636 
L 2417.744847 2065.787481 
" style="fill:none;stroke:#008000;stroke-width:2.0;"/>
    <path clip-path="url(#p05bc2faac7)" d="M 2123.684211 2520 
L 2123.684211 1984.367112 
L 2319.661897 1984.367112 
L 2319.661897 2050.657636 
" style="fill:none;stroke:#008000;stroke-width:2.0;"/>
    <path clip-path="url(#p05bc2faac7)" d="M 2025.789474 2520 
L 2025.789474 1924.959281 
L 2221.673054 1924.959281 
L 2221.673054 1984.367112 
" style="fill:none;stroke:#008000;stroke-width:2.0;"/>
    <path clip-path="url(#p05bc2faac7)" d="M 1927.894737 2520 
L 1927.894737 1919.959948 
L 2123.731264 1919.959948 
L 2123.731264 1924.959281 
" style="fill:none;stroke:#008000;stroke-width:2.0;"/>
    <path clip-path="url(#p05bc2faac7)" d="M 1830 2520 
L 1830 1870.670396 
L 2025.813 1870.670396 
L 2025.813 1919.959948 
" style="fill:none;stroke:#008000;stroke-width:2.0;"/>
    <path clip-path="url(#p05bc2faac7)" d="M 1732.105263 2520 
L 1732.105263 1851.586039 
L 1927.9065 1851.586039 
L 1927.9065 1870.670396 
" style="fill:none;stroke:#008000;stroke-width:2.0;"/>
    <path clip-path="url(#p05bc2faac7)" d="M 1585.263158 1970.90255 
L 1585.263158 1602.24111 
L 1830.005882 1602.24111 
L 1830.005882 1851.586039 
" style="fill:none;stroke:#008000;stroke-width:2.0;"/>
    <path clip-path="url(#p05bc2faac7)" d="M 1438.421053 2520 
L 1438.421053 1591.199704 
L 1707.63452 1591.199704 
L 1707.63452 1602.24111 
" style="fill:none;stroke:#008000;stroke-width:2.0;"/>
    <path clip-path="url(#p05bc2faac7)" d="M 1340.526316 2520 
L 1340.526316 1287.346314 
L 1573.027786 1287.346314 
L 1573.027786 1591.199704 
" style="fill:none;stroke:#008000;stroke-width:2.0;"/>
   </g>
   <g id="LineCollection_2">
    <path clip-path="url(#p05bc2faac7)" d="M 1242.631579 2520 
L 1242.631579 965.091125 
L 1456.777051 965.091125 
L 1456.777051 1287.346314 
" style="fill:none;stroke:#0000ff;stroke-width:2.0;"/>
    <path clip-path="url(#p05bc2faac7)" d="M 1144.736842 2520 
L 1144.736842 950.644784 
L 1349.704315 950.644784 
L 1349.704315 965.091125 
" style="fill:none;stroke:#0000ff;stroke-width:2.0;"/>
    <path clip-path="url(#p05bc2faac7)" d="M 6333.157895 2520 
L 6333.157895 883.023867 
L 6431.052632 883.023867 
L 6431.052632 2520 
" style="fill:none;stroke:#0000ff;stroke-width:2.0;"/>
    <path clip-path="url(#p05bc2faac7)" d="M 1247.220579 950.644784 
L 1247.220579 745.967144 
L 6382.105263 745.967144 
L 6382.105263 883.023867 
" style="fill:none;stroke:#0000ff;stroke-width:2.0;"/>
    <path clip-path="url(#p05bc2faac7)" d="M 1046.842105 2520 
L 1046.842105 730.836627 
L 3814.662921 730.836627 
L 3814.662921 745.967144 
" style="fill:none;stroke:#0000ff;stroke-width:2.0;"/>
    <path clip-path="url(#p05bc2faac7)" d="M 948.947368 2520 
L 948.947368 394.285714 
L 2430.752513 394.285714 
L 2430.752513 730.836627 
" style="fill:none;stroke:#0000ff;stroke-width:2.0;"/>
   </g>
   <g id="patch_3">
    <path d="M 6480 2520 
L 6480 288 
" style="fill:none;stroke:#000000;stroke-linecap:square;stroke-linejoin:miter;"/>
   </g>
   <g id="patch_4">
    <path d="M 900 2520 
L 900 288 
" style="fill:none;stroke:#000000;stroke-linecap:square;stroke-linejoin:miter;"/>
   </g>
   <g id="patch_5">
    <path d="M 900 288 
L 6480 288 
" style="fill:none;stroke:#000000;stroke-linecap:square;stroke-linejoin:miter;"/>
   </g>
   <g id="patch_6">
    <path d="M 900 2520 
L 6480 2520 
" style="fill:none;stroke:#000000;stroke-linecap:square;stroke-linejoin:miter;"/>
   </g>
   <g id="matplotlib.axis_1">
    <g id="xtick_1">
     <g id="line2d_1">
      <path clip-path="url(#p05bc2faac7)" d="M 948.947368 2520 
L 948.947368 288 
" style="fill:none;stroke:#000000;stroke-dasharray:6.000000,6.000000;stroke-dashoffset:0.0;stroke-width:0.5;"/>
     </g>
     <g id="text_1">
      <!-- android -->
      <defs>
       <path d="M 41.109375 46.296875 
Q 39.59375 47.171875 37.8125 47.578125 
Q 36.03125 48 33.890625 48 
Q 26.265625 48 22.1875 43.046875 
Q 18.109375 38.09375 18.109375 28.8125 
L 18.109375 0 
L 9.078125 0 
L 9.078125 54.6875 
L 18.109375 54.6875 
L 18.109375 46.1875 
Q 20.953125 51.171875 25.484375 53.578125 
Q 30.03125 56 36.53125 56 
Q 37.453125 56 38.578125 55.875 
Q 39.703125 55.765625 41.0625 55.515625 
z
" id="BitstreamVeraSans-Roman-72"/>
       <path d="M 30.609375 48.390625 
Q 23.390625 48.390625 19.1875 42.75 
Q 14.984375 37.109375 14.984375 27.296875 
Q 14.984375 17.484375 19.15625 11.84375 
Q 23.34375 6.203125 30.609375 6.203125 
Q 37.796875 6.203125 41.984375 11.859375 
Q 46.1875 17.53125 46.1875 27.296875 
Q 46.1875 37.015625 41.984375 42.703125 
Q 37.796875 48.390625 30.609375 48.390625 
M 30.609375 56 
Q 42.328125 56 49.015625 48.375 
Q 55.71875 40.765625 55.71875 27.296875 
Q 55.71875 13.875 49.015625 6.21875 
Q 42.328125 -1.421875 30.609375 -1.421875 
Q 18.84375 -1.421875 12.171875 6.21875 
Q 5.515625 13.875 5.515625 27.296875 
Q 5.515625 40.765625 12.171875 48.375 
Q 18.84375 56 30.609375 56 
" id="BitstreamVeraSans-Roman-6f"/>
       <path d="M 9.421875 54.6875 
L 18.40625 54.6875 
L 18.40625 0 
L 9.421875 0 
z
M 9.421875 75.984375 
L 18.40625 75.984375 
L 18.40625 64.59375 
L 9.421875 64.59375 
z
" id="BitstreamVeraSans-Roman-69"/>
       <path d="M 54.890625 33.015625 
L 54.890625 0 
L 45.90625 0 
L 45.90625 32.71875 
Q 45.90625 40.484375 42.875 44.328125 
Q 39.84375 48.1875 33.796875 48.1875 
Q 26.515625 48.1875 22.3125 43.546875 
Q 18.109375 38.921875 18.109375 30.90625 
L 18.109375 0 
L 9.078125 0 
L 9.078125 54.6875 
L 18.109375 54.6875 
L 18.109375 46.1875 
Q 21.34375 51.125 25.703125 53.5625 
Q 30.078125 56 35.796875 56 
Q 45.21875 56 50.046875 50.171875 
Q 54.890625 44.34375 54.890625 33.015625 
" id="BitstreamVeraSans-Roman-6e"/>
       <path d="M 34.28125 27.484375 
Q 23.390625 27.484375 19.1875 25 
Q 14.984375 22.515625 14.984375 16.5 
Q 14.984375 11.71875 18.140625 8.90625 
Q 21.296875 6.109375 26.703125 6.109375 
Q 34.1875 6.109375 38.703125 11.40625 
Q 43.21875 16.703125 43.21875 25.484375 
L 43.21875 27.484375 
z
M 52.203125 31.203125 
L 52.203125 0 
L 43.21875 0 
L 43.21875 8.296875 
Q 40.140625 3.328125 35.546875 0.953125 
Q 30.953125 -1.421875 24.3125 -1.421875 
Q 15.921875 -1.421875 10.953125 3.296875 
Q 6 8.015625 6 15.921875 
Q 6 25.140625 12.171875 29.828125 
Q 18.359375 34.515625 30.609375 34.515625 
L 43.21875 34.515625 
L 43.21875 35.40625 
Q 43.21875 41.609375 39.140625 45 
Q 35.0625 48.390625 27.6875 48.390625 
Q 23 48.390625 18.546875 47.265625 
Q 14.109375 46.140625 10.015625 43.890625 
L 10.015625 52.203125 
Q 14.9375 54.109375 19.578125 55.046875 
Q 24.21875 56 28.609375 56 
Q 40.484375 56 46.34375 49.84375 
Q 52.203125 43.703125 52.203125 31.203125 
" id="BitstreamVeraSans-Roman-61"/>
       <path d="M 45.40625 46.390625 
L 45.40625 75.984375 
L 54.390625 75.984375 
L 54.390625 0 
L 45.40625 0 
L 45.40625 8.203125 
Q 42.578125 3.328125 38.25 0.953125 
Q 33.9375 -1.421875 27.875 -1.421875 
Q 17.96875 -1.421875 11.734375 6.484375 
Q 5.515625 14.40625 5.515625 27.296875 
Q 5.515625 40.1875 11.734375 48.09375 
Q 17.96875 56 27.875 56 
Q 33.9375 56 38.25 53.625 
Q 42.578125 51.265625 45.40625 46.390625 
M 14.796875 27.296875 
Q 14.796875 17.390625 18.875 11.75 
Q 22.953125 6.109375 30.078125 6.109375 
Q 37.203125 6.109375 41.296875 11.75 
Q 45.40625 17.390625 45.40625 27.296875 
Q 45.40625 37.203125 41.296875 42.84375 
Q 37.203125 48.484375 30.078125 48.484375 
Q 22.953125 48.484375 18.875 42.84375 
Q 14.796875 37.203125 14.796875 27.296875 
" id="BitstreamVeraSans-Roman-64"/>
      </defs>
      <g transform="translate(959.984868421 2676.66875)rotate(-90.0)scale(0.4 -0.4)">
       <use xlink:href="#BitstreamVeraSans-Roman-61"/>
       <use x="61.279296875" xlink:href="#BitstreamVeraSans-Roman-6e"/>
       <use x="124.658203125" xlink:href="#BitstreamVeraSans-Roman-64"/>
       <use x="188.134765625" xlink:href="#BitstreamVeraSans-Roman-72"/>
       <use x="229.216796875" xlink:href="#BitstreamVeraSans-Roman-6f"/>
       <use x="290.3984375" xlink:href="#BitstreamVeraSans-Roman-69"/>
       <use x="318.181640625" xlink:href="#BitstreamVeraSans-Roman-64"/>
      </g>
     </g>
    </g>
    <g id="xtick_2">
     <g id="line2d_2">
      <path clip-path="url(#p05bc2faac7)" d="M 1046.842105 2520 
L 1046.842105 288 
" style="fill:none;stroke:#000000;stroke-dasharray:6.000000,6.000000;stroke-dashoffset:0.0;stroke-width:0.5;"/>
     </g>
     <g id="text_2">
      <!-- php -->
      <defs>
       <path d="M 54.890625 33.015625 
L 54.890625 0 
L 45.90625 0 
L 45.90625 32.71875 
Q 45.90625 40.484375 42.875 44.328125 
Q 39.84375 48.1875 33.796875 48.1875 
Q 26.515625 48.1875 22.3125 43.546875 
Q 18.109375 38.921875 18.109375 30.90625 
L 18.109375 0 
L 9.078125 0 
L 9.078125 75.984375 
L 18.109375 75.984375 
L 18.109375 46.1875 
Q 21.34375 51.125 25.703125 53.5625 
Q 30.078125 56 35.796875 56 
Q 45.21875 56 50.046875 50.171875 
Q 54.890625 44.34375 54.890625 33.015625 
" id="BitstreamVeraSans-Roman-68"/>
       <path d="M 18.109375 8.203125 
L 18.109375 -20.796875 
L 9.078125 -20.796875 
L 9.078125 54.6875 
L 18.109375 54.6875 
L 18.109375 46.390625 
Q 20.953125 51.265625 25.265625 53.625 
Q 29.59375 56 35.59375 56 
Q 45.5625 56 51.78125 48.09375 
Q 58.015625 40.1875 58.015625 27.296875 
Q 58.015625 14.40625 51.78125 6.484375 
Q 45.5625 -1.421875 35.59375 -1.421875 
Q 29.59375 -1.421875 25.265625 0.953125 
Q 20.953125 3.328125 18.109375 8.203125 
M 48.6875 27.296875 
Q 48.6875 37.203125 44.609375 42.84375 
Q 40.53125 48.484375 33.40625 48.484375 
Q 26.265625 48.484375 22.1875 42.84375 
Q 18.109375 37.203125 18.109375 27.296875 
Q 18.109375 17.390625 22.1875 11.75 
Q 26.265625 6.109375 33.40625 6.109375 
Q 40.53125 6.109375 44.609375 11.75 
Q 48.6875 17.390625 48.6875 27.296875 
" id="BitstreamVeraSans-Roman-70"/>
      </defs>
      <g transform="translate(1057.87960526 2600.1375)rotate(-90.0)scale(0.4 -0.4)">
       <use xlink:href="#BitstreamVeraSans-Roman-70"/>
       <use x="63.4765625" xlink:href="#BitstreamVeraSans-Roman-68"/>
       <use x="126.85546875" xlink:href="#BitstreamVeraSans-Roman-70"/>
      </g>
     </g>
    </g>
    <g id="xtick_3">
     <g id="line2d_3">
      <path clip-path="url(#p05bc2faac7)" d="M 1144.736842 2520 
L 1144.736842 288 
" style="fill:none;stroke:#000000;stroke-dasharray:6.000000,6.000000;stroke-dashoffset:0.0;stroke-width:0.5;"/>
     </g>
     <g id="text_3">
      <!-- javascript -->
      <defs>
       <path d="M 9.421875 54.6875 
L 18.40625 54.6875 
L 18.40625 -0.984375 
Q 18.40625 -11.421875 14.421875 -16.109375 
Q 10.453125 -20.796875 1.609375 -20.796875 
L -1.8125 -20.796875 
L -1.8125 -13.1875 
L 0.59375 -13.1875 
Q 5.71875 -13.1875 7.5625 -10.8125 
Q 9.421875 -8.453125 9.421875 -0.984375 
z
M 9.421875 75.984375 
L 18.40625 75.984375 
L 18.40625 64.59375 
L 9.421875 64.59375 
z
" id="BitstreamVeraSans-Roman-6a"/>
       <path d="M 48.78125 52.59375 
L 48.78125 44.1875 
Q 44.96875 46.296875 41.140625 47.34375 
Q 37.3125 48.390625 33.40625 48.390625 
Q 24.65625 48.390625 19.8125 42.84375 
Q 14.984375 37.3125 14.984375 27.296875 
Q 14.984375 17.28125 19.8125 11.734375 
Q 24.65625 6.203125 33.40625 6.203125 
Q 37.3125 6.203125 41.140625 7.25 
Q 44.96875 8.296875 48.78125 10.40625 
L 48.78125 2.09375 
Q 45.015625 0.34375 40.984375 -0.53125 
Q 36.96875 -1.421875 32.421875 -1.421875 
Q 20.0625 -1.421875 12.78125 6.34375 
Q 5.515625 14.109375 5.515625 27.296875 
Q 5.515625 40.671875 12.859375 48.328125 
Q 20.21875 56 33.015625 56 
Q 37.15625 56 41.109375 55.140625 
Q 45.0625 54.296875 48.78125 52.59375 
" id="BitstreamVeraSans-Roman-63"/>
       <path d="M 18.3125 70.21875 
L 18.3125 54.6875 
L 36.8125 54.6875 
L 36.8125 47.703125 
L 18.3125 47.703125 
L 18.3125 18.015625 
Q 18.3125 11.328125 20.140625 9.421875 
Q 21.96875 7.515625 27.59375 7.515625 
L 36.8125 7.515625 
L 36.8125 0 
L 27.59375 0 
Q 17.1875 0 13.234375 3.875 
Q 9.28125 7.765625 9.28125 18.015625 
L 9.28125 47.703125 
L 2.6875 47.703125 
L 2.6875 54.6875 
L 9.28125 54.6875 
L 9.28125 70.21875 
z
" id="BitstreamVeraSans-Roman-74"/>
       <path d="M 44.28125 53.078125 
L 44.28125 44.578125 
Q 40.484375 46.53125 36.375 47.5 
Q 32.28125 48.484375 27.875 48.484375 
Q 21.1875 48.484375 17.84375 46.4375 
Q 14.5 44.390625 14.5 40.28125 
Q 14.5 37.15625 16.890625 35.375 
Q 19.28125 33.59375 26.515625 31.984375 
L 29.59375 31.296875 
Q 39.15625 29.25 43.1875 25.515625 
Q 47.21875 21.78125 47.21875 15.09375 
Q 47.21875 7.46875 41.1875 3.015625 
Q 35.15625 -1.421875 24.609375 -1.421875 
Q 20.21875 -1.421875 15.453125 -0.5625 
Q 10.6875 0.296875 5.421875 2 
L 5.421875 11.28125 
Q 10.40625 8.6875 15.234375 7.390625 
Q 20.0625 6.109375 24.8125 6.109375 
Q 31.15625 6.109375 34.5625 8.28125 
Q 37.984375 10.453125 37.984375 14.40625 
Q 37.984375 18.0625 35.515625 20.015625 
Q 33.0625 21.96875 24.703125 23.78125 
L 21.578125 24.515625 
Q 13.234375 26.265625 9.515625 29.90625 
Q 5.8125 33.546875 5.8125 39.890625 
Q 5.8125 47.609375 11.28125 51.796875 
Q 16.75 56 26.8125 56 
Q 31.78125 56 36.171875 55.265625 
Q 40.578125 54.546875 44.28125 53.078125 
" id="BitstreamVeraSans-Roman-73"/>
       <path d="M 2.984375 54.6875 
L 12.5 54.6875 
L 29.59375 8.796875 
L 46.6875 54.6875 
L 56.203125 54.6875 
L 35.6875 0 
L 23.484375 0 
z
" id="BitstreamVeraSans-Roman-76"/>
      </defs>
      <g transform="translate(1155.77434211 2719.275)rotate(-90.0)scale(0.4 -0.4)">
       <use xlink:href="#BitstreamVeraSans-Roman-6a"/>
       <use x="27.783203125" xlink:href="#BitstreamVeraSans-Roman-61"/>
       <use x="89.0625" xlink:href="#BitstreamVeraSans-Roman-76"/>
       <use x="148.2421875" xlink:href="#BitstreamVeraSans-Roman-61"/>
       <use x="209.521484375" xlink:href="#BitstreamVeraSans-Roman-73"/>
       <use x="261.62109375" xlink:href="#BitstreamVeraSans-Roman-63"/>
       <use x="316.6015625" xlink:href="#BitstreamVeraSans-Roman-72"/>
       <use x="357.71484375" xlink:href="#BitstreamVeraSans-Roman-69"/>
       <use x="385.498046875" xlink:href="#BitstreamVeraSans-Roman-70"/>
       <use x="448.974609375" xlink:href="#BitstreamVeraSans-Roman-74"/>
      </g>
     </g>
    </g>
    <g id="xtick_4">
     <g id="line2d_4">
      <path clip-path="url(#p05bc2faac7)" d="M 1242.631579 2520 
L 1242.631579 288 
" style="fill:none;stroke:#000000;stroke-dasharray:6.000000,6.000000;stroke-dashoffset:0.0;stroke-width:0.5;"/>
     </g>
     <g id="text_4">
      <!-- python -->
      <defs>
       <path d="M 32.171875 -5.078125 
Q 28.375 -14.84375 24.75 -17.8125 
Q 21.140625 -20.796875 15.09375 -20.796875 
L 7.90625 -20.796875 
L 7.90625 -13.28125 
L 13.1875 -13.28125 
Q 16.890625 -13.28125 18.9375 -11.515625 
Q 21 -9.765625 23.484375 -3.21875 
L 25.09375 0.875 
L 2.984375 54.6875 
L 12.5 54.6875 
L 29.59375 11.921875 
L 46.6875 54.6875 
L 56.203125 54.6875 
z
" id="BitstreamVeraSans-Roman-79"/>
      </defs>
      <g transform="translate(1253.66907895 2663.925)rotate(-90.0)scale(0.4 -0.4)">
       <use xlink:href="#BitstreamVeraSans-Roman-70"/>
       <use x="63.4765625" xlink:href="#BitstreamVeraSans-Roman-79"/>
       <use x="122.65625" xlink:href="#BitstreamVeraSans-Roman-74"/>
       <use x="161.865234375" xlink:href="#BitstreamVeraSans-Roman-68"/>
       <use x="225.244140625" xlink:href="#BitstreamVeraSans-Roman-6f"/>
       <use x="286.42578125" xlink:href="#BitstreamVeraSans-Roman-6e"/>
      </g>
     </g>
    </g>
    <g id="xtick_5">
     <g id="line2d_5">
      <path clip-path="url(#p05bc2faac7)" d="M 1340.526316 2520 
L 1340.526316 288 
" style="fill:none;stroke:#000000;stroke-dasharray:6.000000,6.000000;stroke-dashoffset:0.0;stroke-width:0.5;"/>
     </g>
     <g id="text_5">
      <!-- jquery -->
      <defs>
       <path d="M 56.203125 29.59375 
L 56.203125 25.203125 
L 14.890625 25.203125 
Q 15.484375 15.921875 20.484375 11.0625 
Q 25.484375 6.203125 34.421875 6.203125 
Q 39.59375 6.203125 44.453125 7.46875 
Q 49.3125 8.734375 54.109375 11.28125 
L 54.109375 2.78125 
Q 49.265625 0.734375 44.1875 -0.34375 
Q 39.109375 -1.421875 33.890625 -1.421875 
Q 20.796875 -1.421875 13.15625 6.1875 
Q 5.515625 13.8125 5.515625 26.8125 
Q 5.515625 40.234375 12.765625 48.109375 
Q 20.015625 56 32.328125 56 
Q 43.359375 56 49.78125 48.890625 
Q 56.203125 41.796875 56.203125 29.59375 
M 47.21875 32.234375 
Q 47.125 39.59375 43.09375 43.984375 
Q 39.0625 48.390625 32.421875 48.390625 
Q 24.90625 48.390625 20.390625 44.140625 
Q 15.875 39.890625 15.1875 32.171875 
z
" id="BitstreamVeraSans-Roman-65"/>
       <path d="M 8.5 21.578125 
L 8.5 54.6875 
L 17.484375 54.6875 
L 17.484375 21.921875 
Q 17.484375 14.15625 20.5 10.265625 
Q 23.53125 6.390625 29.59375 6.390625 
Q 36.859375 6.390625 41.078125 11.03125 
Q 45.3125 15.671875 45.3125 23.6875 
L 45.3125 54.6875 
L 54.296875 54.6875 
L 54.296875 0 
L 45.3125 0 
L 45.3125 8.40625 
Q 42.046875 3.421875 37.71875 1 
Q 33.40625 -1.421875 27.6875 -1.421875 
Q 18.265625 -1.421875 13.375 4.4375 
Q 8.5 10.296875 8.5 21.578125 
" id="BitstreamVeraSans-Roman-75"/>
       <path d="M 14.796875 27.296875 
Q 14.796875 17.390625 18.875 11.75 
Q 22.953125 6.109375 30.078125 6.109375 
Q 37.203125 6.109375 41.296875 11.75 
Q 45.40625 17.390625 45.40625 27.296875 
Q 45.40625 37.203125 41.296875 42.84375 
Q 37.203125 48.484375 30.078125 48.484375 
Q 22.953125 48.484375 18.875 42.84375 
Q 14.796875 37.203125 14.796875 27.296875 
M 45.40625 8.203125 
Q 42.578125 3.328125 38.25 0.953125 
Q 33.9375 -1.421875 27.875 -1.421875 
Q 17.96875 -1.421875 11.734375 6.484375 
Q 5.515625 14.40625 5.515625 27.296875 
Q 5.515625 40.1875 11.734375 48.09375 
Q 17.96875 56 27.875 56 
Q 33.9375 56 38.25 53.625 
Q 42.578125 51.265625 45.40625 46.390625 
L 45.40625 54.6875 
L 54.390625 54.6875 
L 54.390625 -20.796875 
L 45.40625 -20.796875 
z
" id="BitstreamVeraSans-Roman-71"/>
      </defs>
      <g transform="translate(1351.56381579 2650.5875)rotate(-90.0)scale(0.4 -0.4)">
       <use xlink:href="#BitstreamVeraSans-Roman-6a"/>
       <use x="27.783203125" xlink:href="#BitstreamVeraSans-Roman-71"/>
       <use x="91.259765625" xlink:href="#BitstreamVeraSans-Roman-75"/>
       <use x="154.638671875" xlink:href="#BitstreamVeraSans-Roman-65"/>
       <use x="216.162109375" xlink:href="#BitstreamVeraSans-Roman-72"/>
       <use x="257.275390625" xlink:href="#BitstreamVeraSans-Roman-79"/>
      </g>
     </g>
    </g>
    <g id="xtick_6">
     <g id="line2d_6">
      <path clip-path="url(#p05bc2faac7)" d="M 1438.421053 2520 
L 1438.421053 288 
" style="fill:none;stroke:#000000;stroke-dasharray:6.000000,6.000000;stroke-dashoffset:0.0;stroke-width:0.5;"/>
     </g>
     <g id="text_6">
      <!-- c++ -->
      <defs>
       <path d="M 46 62.703125 
L 46 35.5 
L 73.1875 35.5 
L 73.1875 27.203125 
L 46 27.203125 
L 46 0 
L 37.796875 0 
L 37.796875 27.203125 
L 10.59375 27.203125 
L 10.59375 35.5 
L 37.796875 35.5 
L 37.796875 62.703125 
z
" id="BitstreamVeraSans-Roman-2b"/>
      </defs>
      <g transform="translate(1449.45855263 2613.03125)rotate(-90.0)scale(0.4 -0.4)">
       <use xlink:href="#BitstreamVeraSans-Roman-63"/>
       <use x="54.98046875" xlink:href="#BitstreamVeraSans-Roman-2b"/>
       <use x="138.76953125" xlink:href="#BitstreamVeraSans-Roman-2b"/>
      </g>
     </g>
    </g>
    <g id="xtick_7">
     <g id="line2d_7">
      <path clip-path="url(#p05bc2faac7)" d="M 1536.315789 2520 
L 1536.315789 288 
" style="fill:none;stroke:#000000;stroke-dasharray:6.000000,6.000000;stroke-dashoffset:0.0;stroke-width:0.5;"/>
     </g>
     <g id="text_7">
      <!-- css -->
      <g transform="translate(1547.35328947 2587.66875)rotate(-90.0)scale(0.4 -0.4)">
       <use xlink:href="#BitstreamVeraSans-Roman-63"/>
       <use x="54.98046875" xlink:href="#BitstreamVeraSans-Roman-73"/>
       <use x="107.080078125" xlink:href="#BitstreamVeraSans-Roman-73"/>
      </g>
     </g>
    </g>
    <g id="xtick_8">
     <g id="line2d_8">
      <path clip-path="url(#p05bc2faac7)" d="M 1634.210526 2520 
L 1634.210526 288 
" style="fill:none;stroke:#000000;stroke-dasharray:6.000000,6.000000;stroke-dashoffset:0.0;stroke-width:0.5;"/>
     </g>
     <g id="text_8">
      <!-- html -->
      <defs>
       <path d="M 52 44.1875 
Q 55.375 50.25 60.0625 53.125 
Q 64.75 56 71.09375 56 
Q 79.640625 56 84.28125 50.015625 
Q 88.921875 44.046875 88.921875 33.015625 
L 88.921875 0 
L 79.890625 0 
L 79.890625 32.71875 
Q 79.890625 40.578125 77.09375 44.375 
Q 74.3125 48.1875 68.609375 48.1875 
Q 61.625 48.1875 57.5625 43.546875 
Q 53.515625 38.921875 53.515625 30.90625 
L 53.515625 0 
L 44.484375 0 
L 44.484375 32.71875 
Q 44.484375 40.625 41.703125 44.40625 
Q 38.921875 48.1875 33.109375 48.1875 
Q 26.21875 48.1875 22.15625 43.53125 
Q 18.109375 38.875 18.109375 30.90625 
L 18.109375 0 
L 9.078125 0 
L 9.078125 54.6875 
L 18.109375 54.6875 
L 18.109375 46.1875 
Q 21.1875 51.21875 25.484375 53.609375 
Q 29.78125 56 35.6875 56 
Q 41.65625 56 45.828125 52.96875 
Q 50 49.953125 52 44.1875 
" id="BitstreamVeraSans-Roman-6d"/>
       <path d="M 9.421875 75.984375 
L 18.40625 75.984375 
L 18.40625 0 
L 9.421875 0 
z
" id="BitstreamVeraSans-Roman-6c"/>
      </defs>
      <g transform="translate(1645.24802632 2615.10625)rotate(-90.0)scale(0.4 -0.4)">
       <use xlink:href="#BitstreamVeraSans-Roman-68"/>
       <use x="63.37890625" xlink:href="#BitstreamVeraSans-Roman-74"/>
       <use x="102.587890625" xlink:href="#BitstreamVeraSans-Roman-6d"/>
       <use x="200.0" xlink:href="#BitstreamVeraSans-Roman-6c"/>
      </g>
     </g>
    </g>
    <g id="xtick_9">
     <g id="line2d_9">
      <path clip-path="url(#p05bc2faac7)" d="M 1732.105263 2520 
L 1732.105263 288 
" style="fill:none;stroke:#000000;stroke-dasharray:6.000000,6.000000;stroke-dashoffset:0.0;stroke-width:0.5;"/>
     </g>
     <g id="text_9">
      <!-- ios -->
      <g transform="translate(1743.14276316 2580.425)rotate(-90.0)scale(0.4 -0.4)">
       <use xlink:href="#BitstreamVeraSans-Roman-69"/>
       <use x="27.783203125" xlink:href="#BitstreamVeraSans-Roman-6f"/>
       <use x="88.96484375" xlink:href="#BitstreamVeraSans-Roman-73"/>
      </g>
     </g>
    </g>
    <g id="xtick_10">
     <g id="line2d_10">
      <path clip-path="url(#p05bc2faac7)" d="M 1830 2520 
L 1830 288 
" style="fill:none;stroke:#000000;stroke-dasharray:6.000000,6.000000;stroke-dashoffset:0.0;stroke-width:0.5;"/>
     </g>
     <g id="text_10">
      <!-- angularjs -->
      <defs>
       <path d="M 45.40625 27.984375 
Q 45.40625 37.75 41.375 43.109375 
Q 37.359375 48.484375 30.078125 48.484375 
Q 22.859375 48.484375 18.828125 43.109375 
Q 14.796875 37.75 14.796875 27.984375 
Q 14.796875 18.265625 18.828125 12.890625 
Q 22.859375 7.515625 30.078125 7.515625 
Q 37.359375 7.515625 41.375 12.890625 
Q 45.40625 18.265625 45.40625 27.984375 
M 54.390625 6.78125 
Q 54.390625 -7.171875 48.1875 -13.984375 
Q 42 -20.796875 29.203125 -20.796875 
Q 24.46875 -20.796875 20.265625 -20.09375 
Q 16.0625 -19.390625 12.109375 -17.921875 
L 12.109375 -9.1875 
Q 16.0625 -11.328125 19.921875 -12.34375 
Q 23.78125 -13.375 27.78125 -13.375 
Q 36.625 -13.375 41.015625 -8.765625 
Q 45.40625 -4.15625 45.40625 5.171875 
L 45.40625 9.625 
Q 42.625 4.78125 38.28125 2.390625 
Q 33.9375 0 27.875 0 
Q 17.828125 0 11.671875 7.65625 
Q 5.515625 15.328125 5.515625 27.984375 
Q 5.515625 40.671875 11.671875 48.328125 
Q 17.828125 56 27.875 56 
Q 33.9375 56 38.28125 53.609375 
Q 42.625 51.21875 45.40625 46.390625 
L 45.40625 54.6875 
L 54.390625 54.6875 
z
" id="BitstreamVeraSans-Roman-67"/>
      </defs>
      <g transform="translate(1841.0375 2708.625)rotate(-90.0)scale(0.4 -0.4)">
       <use xlink:href="#BitstreamVeraSans-Roman-61"/>
       <use x="61.279296875" xlink:href="#BitstreamVeraSans-Roman-6e"/>
       <use x="124.658203125" xlink:href="#BitstreamVeraSans-Roman-67"/>
       <use x="188.134765625" xlink:href="#BitstreamVeraSans-Roman-75"/>
       <use x="251.513671875" xlink:href="#BitstreamVeraSans-Roman-6c"/>
       <use x="279.296875" xlink:href="#BitstreamVeraSans-Roman-61"/>
       <use x="340.576171875" xlink:href="#BitstreamVeraSans-Roman-72"/>
       <use x="381.689453125" xlink:href="#BitstreamVeraSans-Roman-6a"/>
       <use x="409.47265625" xlink:href="#BitstreamVeraSans-Roman-73"/>
      </g>
     </g>
    </g>
    <g id="xtick_11">
     <g id="line2d_11">
      <path clip-path="url(#p05bc2faac7)" d="M 1927.894737 2520 
L 1927.894737 288 
" style="fill:none;stroke:#000000;stroke-dasharray:6.000000,6.000000;stroke-dashoffset:0.0;stroke-width:0.5;"/>
     </g>
     <g id="text_11">
      <!-- mysql -->
      <g transform="translate(1938.93223684 2643.98125)rotate(-90.0)scale(0.4 -0.4)">
       <use xlink:href="#BitstreamVeraSans-Roman-6d"/>
       <use x="97.412109375" xlink:href="#BitstreamVeraSans-Roman-79"/>
       <use x="156.591796875" xlink:href="#BitstreamVeraSans-Roman-73"/>
       <use x="208.69140625" xlink:href="#BitstreamVeraSans-Roman-71"/>
       <use x="272.16796875" xlink:href="#BitstreamVeraSans-Roman-6c"/>
      </g>
     </g>
    </g>
    <g id="xtick_12">
     <g id="line2d_12">
      <path clip-path="url(#p05bc2faac7)" d="M 2025.789474 2520 
L 2025.789474 288 
" style="fill:none;stroke:#000000;stroke-dasharray:6.000000,6.000000;stroke-dashoffset:0.0;stroke-width:0.5;"/>
     </g>
     <g id="text_12">
      <!-- c -->
      <g transform="translate(2036.82697368 2545.99375)rotate(-90.0)scale(0.4 -0.4)">
       <use xlink:href="#BitstreamVeraSans-Roman-63"/>
      </g>
     </g>
    </g>
    <g id="xtick_13">
     <g id="line2d_13">
      <path clip-path="url(#p05bc2faac7)" d="M 2123.684211 2520 
L 2123.684211 288 
" style="fill:none;stroke:#000000;stroke-dasharray:6.000000,6.000000;stroke-dashoffset:0.0;stroke-width:0.5;"/>
     </g>
     <g id="text_13">
      <!-- sql -->
      <g transform="translate(2134.72171053 2581.34375)rotate(-90.0)scale(0.4 -0.4)">
       <use xlink:href="#BitstreamVeraSans-Roman-73"/>
       <use x="52.099609375" xlink:href="#BitstreamVeraSans-Roman-71"/>
       <use x="115.576171875" xlink:href="#BitstreamVeraSans-Roman-6c"/>
      </g>
     </g>
    </g>
    <g id="xtick_14">
     <g id="line2d_14">
      <path clip-path="url(#p05bc2faac7)" d="M 2221.578947 2520 
L 2221.578947 288 
" style="fill:none;stroke:#000000;stroke-dasharray:6.000000,6.000000;stroke-dashoffset:0.0;stroke-width:0.5;"/>
     </g>
     <g id="text_14">
      <!-- r -->
      <g transform="translate(2232.61644737 2540.44375)rotate(-90.0)scale(0.4 -0.4)">
       <use xlink:href="#BitstreamVeraSans-Roman-72"/>
      </g>
     </g>
    </g>
    <g id="xtick_15">
     <g id="line2d_15">
      <path clip-path="url(#p05bc2faac7)" d="M 2319.473684 2520 
L 2319.473684 288 
" style="fill:none;stroke:#000000;stroke-dasharray:6.000000,6.000000;stroke-dashoffset:0.0;stroke-width:0.5;"/>
     </g>
     <g id="text_15">
      <!-- django -->
      <g transform="translate(2330.51118421 2660.2375)rotate(-90.0)scale(0.4 -0.4)">
       <use xlink:href="#BitstreamVeraSans-Roman-64"/>
       <use x="63.4765625" xlink:href="#BitstreamVeraSans-Roman-6a"/>
       <use x="91.259765625" xlink:href="#BitstreamVeraSans-Roman-61"/>
       <use x="152.5390625" xlink:href="#BitstreamVeraSans-Roman-6e"/>
       <use x="215.91796875" xlink:href="#BitstreamVeraSans-Roman-67"/>
       <use x="279.39453125" xlink:href="#BitstreamVeraSans-Roman-6f"/>
      </g>
     </g>
    </g>
    <g id="xtick_16">
     <g id="line2d_16">
      <path clip-path="url(#p05bc2faac7)" d="M 2417.368421 2520 
L 2417.368421 288 
" style="fill:none;stroke:#000000;stroke-dasharray:6.000000,6.000000;stroke-dashoffset:0.0;stroke-width:0.5;"/>
     </g>
     <g id="text_16">
      <!-- git -->
      <g transform="translate(2428.40592105 2576.1875)rotate(-90.0)scale(0.4 -0.4)">
       <use xlink:href="#BitstreamVeraSans-Roman-67"/>
       <use x="63.4765625" xlink:href="#BitstreamVeraSans-Roman-69"/>
       <use x="91.259765625" xlink:href="#BitstreamVeraSans-Roman-74"/>
      </g>
     </g>
    </g>
    <g id="xtick_17">
     <g id="line2d_17">
      <path clip-path="url(#p05bc2faac7)" d="M 2515.263158 2520 
L 2515.263158 288 
" style="fill:none;stroke:#000000;stroke-dasharray:6.000000,6.000000;stroke-dashoffset:0.0;stroke-width:0.5;"/>
     </g>
     <g id="text_17">
      <!-- ruby-on-rails -->
      <defs>
       <path d="M 48.6875 27.296875 
Q 48.6875 37.203125 44.609375 42.84375 
Q 40.53125 48.484375 33.40625 48.484375 
Q 26.265625 48.484375 22.1875 42.84375 
Q 18.109375 37.203125 18.109375 27.296875 
Q 18.109375 17.390625 22.1875 11.75 
Q 26.265625 6.109375 33.40625 6.109375 
Q 40.53125 6.109375 44.609375 11.75 
Q 48.6875 17.390625 48.6875 27.296875 
M 18.109375 46.390625 
Q 20.953125 51.265625 25.265625 53.625 
Q 29.59375 56 35.59375 56 
Q 45.5625 56 51.78125 48.09375 
Q 58.015625 40.1875 58.015625 27.296875 
Q 58.015625 14.40625 51.78125 6.484375 
Q 45.5625 -1.421875 35.59375 -1.421875 
Q 29.59375 -1.421875 25.265625 0.953125 
Q 20.953125 3.328125 18.109375 8.203125 
L 18.109375 0 
L 9.078125 0 
L 9.078125 75.984375 
L 18.109375 75.984375 
z
" id="BitstreamVeraSans-Roman-62"/>
       <path d="M 4.890625 31.390625 
L 31.203125 31.390625 
L 31.203125 23.390625 
L 4.890625 23.390625 
z
" id="BitstreamVeraSans-Roman-2d"/>
      </defs>
      <g transform="translate(2526.30065789 2777.56875)rotate(-90.0)scale(0.4 -0.4)">
       <use xlink:href="#BitstreamVeraSans-Roman-72"/>
       <use x="41.11328125" xlink:href="#BitstreamVeraSans-Roman-75"/>
       <use x="104.4921875" xlink:href="#BitstreamVeraSans-Roman-62"/>
       <use x="167.96875" xlink:href="#BitstreamVeraSans-Roman-79"/>
       <use x="227.1328125" xlink:href="#BitstreamVeraSans-Roman-2d"/>
       <use x="263.232421875" xlink:href="#BitstreamVeraSans-Roman-6f"/>
       <use x="324.4140625" xlink:href="#BitstreamVeraSans-Roman-6e"/>
       <use x="387.79296875" xlink:href="#BitstreamVeraSans-Roman-2d"/>
       <use x="423.876953125" xlink:href="#BitstreamVeraSans-Roman-72"/>
       <use x="464.990234375" xlink:href="#BitstreamVeraSans-Roman-61"/>
       <use x="526.26953125" xlink:href="#BitstreamVeraSans-Roman-69"/>
       <use x="554.052734375" xlink:href="#BitstreamVeraSans-Roman-6c"/>
       <use x="581.8359375" xlink:href="#BitstreamVeraSans-Roman-73"/>
      </g>
     </g>
    </g>
    <g id="xtick_18">
     <g id="line2d_18">
      <path clip-path="url(#p05bc2faac7)" d="M 2613.157895 2520 
L 2613.157895 288 
" style="fill:none;stroke:#000000;stroke-dasharray:6.000000,6.000000;stroke-dashoffset:0.0;stroke-width:0.5;"/>
     </g>
     <g id="text_18">
      <!-- arrays -->
      <g transform="translate(2624.19539474 2650.41875)rotate(-90.0)scale(0.4 -0.4)">
       <use xlink:href="#BitstreamVeraSans-Roman-61"/>
       <use x="61.279296875" xlink:href="#BitstreamVeraSans-Roman-72"/>
       <use x="102.376953125" xlink:href="#BitstreamVeraSans-Roman-72"/>
       <use x="143.490234375" xlink:href="#BitstreamVeraSans-Roman-61"/>
       <use x="204.76953125" xlink:href="#BitstreamVeraSans-Roman-79"/>
       <use x="263.94921875" xlink:href="#BitstreamVeraSans-Roman-73"/>
      </g>
     </g>
    </g>
    <g id="xtick_19">
     <g id="line2d_19">
      <path clip-path="url(#p05bc2faac7)" d="M 2711.052632 2520 
L 2711.052632 288 
" style="fill:none;stroke:#000000;stroke-dasharray:6.000000,6.000000;stroke-dashoffset:0.0;stroke-width:0.5;"/>
     </g>
     <g id="text_19">
      <!-- asp.net -->
      <defs>
       <path d="M 10.6875 12.40625 
L 21 12.40625 
L 21 0 
L 10.6875 0 
z
" id="BitstreamVeraSans-Roman-2e"/>
      </defs>
      <g transform="translate(2722.09013158 2673.1)rotate(-90.0)scale(0.4 -0.4)">
       <use xlink:href="#BitstreamVeraSans-Roman-61"/>
       <use x="61.279296875" xlink:href="#BitstreamVeraSans-Roman-73"/>
       <use x="113.37890625" xlink:href="#BitstreamVeraSans-Roman-70"/>
       <use x="176.85546875" xlink:href="#BitstreamVeraSans-Roman-2e"/>
       <use x="208.642578125" xlink:href="#BitstreamVeraSans-Roman-6e"/>
       <use x="272.021484375" xlink:href="#BitstreamVeraSans-Roman-65"/>
       <use x="333.544921875" xlink:href="#BitstreamVeraSans-Roman-74"/>
      </g>
     </g>
    </g>
    <g id="xtick_20">
     <g id="line2d_20">
      <path clip-path="url(#p05bc2faac7)" d="M 2808.947368 2520 
L 2808.947368 288 
" style="fill:none;stroke:#000000;stroke-dasharray:6.000000,6.000000;stroke-dashoffset:0.0;stroke-width:0.5;"/>
     </g>
     <g id="text_20">
      <!-- ruby -->
      <g transform="translate(2819.98486842 2614.8625)rotate(-90.0)scale(0.4 -0.4)">
       <use xlink:href="#BitstreamVeraSans-Roman-72"/>
       <use x="41.11328125" xlink:href="#BitstreamVeraSans-Roman-75"/>
       <use x="104.4921875" xlink:href="#BitstreamVeraSans-Roman-62"/>
       <use x="167.96875" xlink:href="#BitstreamVeraSans-Roman-79"/>
      </g>
     </g>
    </g>
    <g id="xtick_21">
     <g id="line2d_21">
      <path clip-path="url(#p05bc2faac7)" d="M 2906.842105 2520 
L 2906.842105 288 
" style="fill:none;stroke:#000000;stroke-dasharray:6.000000,6.000000;stroke-dashoffset:0.0;stroke-width:0.5;"/>
     </g>
     <g id="text_21">
      <!-- regex -->
      <defs>
       <path d="M 54.890625 54.6875 
L 35.109375 28.078125 
L 55.90625 0 
L 45.3125 0 
L 29.390625 21.484375 
L 13.484375 0 
L 2.875 0 
L 24.125 28.609375 
L 4.6875 54.6875 
L 15.28125 54.6875 
L 29.78125 35.203125 
L 44.28125 54.6875 
z
" id="BitstreamVeraSans-Roman-78"/>
      </defs>
      <g transform="translate(2917.87960526 2638.71875)rotate(-90.0)scale(0.4 -0.4)">
       <use xlink:href="#BitstreamVeraSans-Roman-72"/>
       <use x="41.08203125" xlink:href="#BitstreamVeraSans-Roman-65"/>
       <use x="102.60546875" xlink:href="#BitstreamVeraSans-Roman-67"/>
       <use x="166.08203125" xlink:href="#BitstreamVeraSans-Roman-65"/>
       <use x="227.58984375" xlink:href="#BitstreamVeraSans-Roman-78"/>
      </g>
     </g>
    </g>
    <g id="xtick_22">
     <g id="line2d_22">
      <path clip-path="url(#p05bc2faac7)" d="M 3004.736842 2520 
L 3004.736842 288 
" style="fill:none;stroke:#000000;stroke-dasharray:6.000000,6.000000;stroke-dashoffset:0.0;stroke-width:0.5;"/>
     </g>
     <g id="text_22">
      <!-- json -->
      <g transform="translate(3015.77434211 2605.775)rotate(-90.0)scale(0.4 -0.4)">
       <use xlink:href="#BitstreamVeraSans-Roman-6a"/>
       <use x="27.783203125" xlink:href="#BitstreamVeraSans-Roman-73"/>
       <use x="79.8828125" xlink:href="#BitstreamVeraSans-Roman-6f"/>
       <use x="141.064453125" xlink:href="#BitstreamVeraSans-Roman-6e"/>
      </g>
     </g>
    </g>
    <g id="xtick_23">
     <g id="line2d_23">
      <path clip-path="url(#p05bc2faac7)" d="M 3102.631579 2520 
L 3102.631579 288 
" style="fill:none;stroke:#000000;stroke-dasharray:6.000000,6.000000;stroke-dashoffset:0.0;stroke-width:0.5;"/>
     </g>
     <g id="text_23">
      <!-- node.js -->
      <g transform="translate(3113.66907895 2668.49375)rotate(-90.0)scale(0.4 -0.4)">
       <use xlink:href="#BitstreamVeraSans-Roman-6e"/>
       <use x="63.37890625" xlink:href="#BitstreamVeraSans-Roman-6f"/>
       <use x="124.560546875" xlink:href="#BitstreamVeraSans-Roman-64"/>
       <use x="188.037109375" xlink:href="#BitstreamVeraSans-Roman-65"/>
       <use x="249.560546875" xlink:href="#BitstreamVeraSans-Roman-2e"/>
       <use x="281.34765625" xlink:href="#BitstreamVeraSans-Roman-6a"/>
       <use x="309.130859375" xlink:href="#BitstreamVeraSans-Roman-73"/>
      </g>
     </g>
    </g>
    <g id="xtick_24">
     <g id="line2d_24">
      <path clip-path="url(#p05bc2faac7)" d="M 3200.526316 2520 
L 3200.526316 288 
" style="fill:none;stroke:#000000;stroke-dasharray:6.000000,6.000000;stroke-dashoffset:0.0;stroke-width:0.5;"/>
     </g>
     <g id="text_24">
      <!-- xml -->
      <g transform="translate(3211.56381579 2597.75)rotate(-90.0)scale(0.4 -0.4)">
       <use xlink:href="#BitstreamVeraSans-Roman-78"/>
       <use x="59.1796875" xlink:href="#BitstreamVeraSans-Roman-6d"/>
       <use x="156.591796875" xlink:href="#BitstreamVeraSans-Roman-6c"/>
      </g>
     </g>
    </g>
    <g id="xtick_25">
     <g id="line2d_25">
      <path clip-path="url(#p05bc2faac7)" d="M 3298.421053 2520 
L 3298.421053 288 
" style="fill:none;stroke:#000000;stroke-dasharray:6.000000,6.000000;stroke-dashoffset:0.0;stroke-width:0.5;"/>
     </g>
     <g id="text_25">
      <!-- iphone -->
      <g transform="translate(3309.45855263 2660.29375)rotate(-90.0)scale(0.4 -0.4)">
       <use xlink:href="#BitstreamVeraSans-Roman-69"/>
       <use x="27.783203125" xlink:href="#BitstreamVeraSans-Roman-70"/>
       <use x="91.259765625" xlink:href="#BitstreamVeraSans-Roman-68"/>
       <use x="154.638671875" xlink:href="#BitstreamVeraSans-Roman-6f"/>
       <use x="215.8203125" xlink:href="#BitstreamVeraSans-Roman-6e"/>
       <use x="279.19921875" xlink:href="#BitstreamVeraSans-Roman-65"/>
      </g>
     </g>
    </g>
    <g id="xtick_26">
     <g id="line2d_26">
      <path clip-path="url(#p05bc2faac7)" d="M 3396.315789 2520 
L 3396.315789 288 
" style="fill:none;stroke:#000000;stroke-dasharray:6.000000,6.000000;stroke-dashoffset:0.0;stroke-width:0.5;"/>
     </g>
     <g id="text_26">
      <!-- objective-c -->
      <g transform="translate(3407.35328947 2743.09375)rotate(-90.0)scale(0.4 -0.4)">
       <use xlink:href="#BitstreamVeraSans-Roman-6f"/>
       <use x="61.181640625" xlink:href="#BitstreamVeraSans-Roman-62"/>
       <use x="124.658203125" xlink:href="#BitstreamVeraSans-Roman-6a"/>
       <use x="152.44140625" xlink:href="#BitstreamVeraSans-Roman-65"/>
       <use x="213.96484375" xlink:href="#BitstreamVeraSans-Roman-63"/>
       <use x="268.9453125" xlink:href="#BitstreamVeraSans-Roman-74"/>
       <use x="308.154296875" xlink:href="#BitstreamVeraSans-Roman-69"/>
       <use x="335.9375" xlink:href="#BitstreamVeraSans-Roman-76"/>
       <use x="395.1171875" xlink:href="#BitstreamVeraSans-Roman-65"/>
       <use x="456.640625" xlink:href="#BitstreamVeraSans-Roman-2d"/>
       <use x="492.724609375" xlink:href="#BitstreamVeraSans-Roman-63"/>
      </g>
     </g>
    </g>
    <g id="xtick_27">
     <g id="line2d_27">
      <path clip-path="url(#p05bc2faac7)" d="M 3494.210526 2520 
L 3494.210526 288 
" style="fill:none;stroke:#000000;stroke-dasharray:6.000000,6.000000;stroke-dashoffset:0.0;stroke-width:0.5;"/>
     </g>
     <g id="text_27">
      <!-- sql-server -->
      <g transform="translate(3505.24802632 2722.4)rotate(-90.0)scale(0.4 -0.4)">
       <use xlink:href="#BitstreamVeraSans-Roman-73"/>
       <use x="52.099609375" xlink:href="#BitstreamVeraSans-Roman-71"/>
       <use x="115.576171875" xlink:href="#BitstreamVeraSans-Roman-6c"/>
       <use x="143.359375" xlink:href="#BitstreamVeraSans-Roman-2d"/>
       <use x="179.443359375" xlink:href="#BitstreamVeraSans-Roman-73"/>
       <use x="231.54296875" xlink:href="#BitstreamVeraSans-Roman-65"/>
       <use x="293.06640625" xlink:href="#BitstreamVeraSans-Roman-72"/>
       <use x="334.1796875" xlink:href="#BitstreamVeraSans-Roman-76"/>
       <use x="393.359375" xlink:href="#BitstreamVeraSans-Roman-65"/>
       <use x="454.8828125" xlink:href="#BitstreamVeraSans-Roman-72"/>
      </g>
     </g>
    </g>
    <g id="xtick_28">
     <g id="line2d_28">
      <path clip-path="url(#p05bc2faac7)" d="M 3592.105263 2520 
L 3592.105263 288 
" style="fill:none;stroke:#000000;stroke-dasharray:6.000000,6.000000;stroke-dashoffset:0.0;stroke-width:0.5;"/>
     </g>
     <g id="text_28">
      <!-- ajax -->
      <g transform="translate(3603.14276316 2607.8125)rotate(-90.0)scale(0.4 -0.4)">
       <use xlink:href="#BitstreamVeraSans-Roman-61"/>
       <use x="61.279296875" xlink:href="#BitstreamVeraSans-Roman-6a"/>
       <use x="89.0625" xlink:href="#BitstreamVeraSans-Roman-61"/>
       <use x="150.341796875" xlink:href="#BitstreamVeraSans-Roman-78"/>
      </g>
     </g>
    </g>
    <g id="xtick_29">
     <g id="line2d_29">
      <path clip-path="url(#p05bc2faac7)" d="M 3690 2520 
L 3690 288 
" style="fill:none;stroke:#000000;stroke-dasharray:6.000000,6.000000;stroke-dashoffset:0.0;stroke-width:0.5;"/>
     </g>
     <g id="text_29">
      <!-- swift -->
      <defs>
       <path d="M 37.109375 75.984375 
L 37.109375 68.5 
L 28.515625 68.5 
Q 23.6875 68.5 21.796875 66.546875 
Q 19.921875 64.59375 19.921875 59.515625 
L 19.921875 54.6875 
L 34.71875 54.6875 
L 34.71875 47.703125 
L 19.921875 47.703125 
L 19.921875 0 
L 10.890625 0 
L 10.890625 47.703125 
L 2.296875 47.703125 
L 2.296875 54.6875 
L 10.890625 54.6875 
L 10.890625 58.5 
Q 10.890625 67.625 15.140625 71.796875 
Q 19.390625 75.984375 28.609375 75.984375 
z
" id="BitstreamVeraSans-Roman-66"/>
       <path d="M 4.203125 54.6875 
L 13.1875 54.6875 
L 24.421875 12.015625 
L 35.59375 54.6875 
L 46.1875 54.6875 
L 57.421875 12.015625 
L 68.609375 54.6875 
L 77.59375 54.6875 
L 63.28125 0 
L 52.6875 0 
L 40.921875 44.828125 
L 29.109375 0 
L 18.5 0 
z
" id="BitstreamVeraSans-Roman-77"/>
      </defs>
      <g transform="translate(3701.0375 2618.41875)rotate(-90.0)scale(0.4 -0.4)">
       <use xlink:href="#BitstreamVeraSans-Roman-73"/>
       <use x="52.099609375" xlink:href="#BitstreamVeraSans-Roman-77"/>
       <use x="133.88671875" xlink:href="#BitstreamVeraSans-Roman-69"/>
       <use x="161.669921875" xlink:href="#BitstreamVeraSans-Roman-66"/>
       <use x="196.859375" xlink:href="#BitstreamVeraSans-Roman-74"/>
      </g>
     </g>
    </g>
    <g id="xtick_30">
     <g id="line2d_30">
      <path clip-path="url(#p05bc2faac7)" d="M 3787.894737 2520 
L 3787.894737 288 
" style="fill:none;stroke:#000000;stroke-dasharray:6.000000,6.000000;stroke-dashoffset:0.0;stroke-width:0.5;"/>
     </g>
     <g id="text_30">
      <!-- wordpress -->
      <g transform="translate(3798.93223684 2731.13125)rotate(-90.0)scale(0.4 -0.4)">
       <use xlink:href="#BitstreamVeraSans-Roman-77"/>
       <use x="81.787109375" xlink:href="#BitstreamVeraSans-Roman-6f"/>
       <use x="142.96875" xlink:href="#BitstreamVeraSans-Roman-72"/>
       <use x="184.06640625" xlink:href="#BitstreamVeraSans-Roman-64"/>
       <use x="247.54296875" xlink:href="#BitstreamVeraSans-Roman-70"/>
       <use x="311.01953125" xlink:href="#BitstreamVeraSans-Roman-72"/>
       <use x="352.1015625" xlink:href="#BitstreamVeraSans-Roman-65"/>
       <use x="413.625" xlink:href="#BitstreamVeraSans-Roman-73"/>
       <use x="465.724609375" xlink:href="#BitstreamVeraSans-Roman-73"/>
      </g>
     </g>
    </g>
    <g id="xtick_31">
     <g id="line2d_31">
      <path clip-path="url(#p05bc2faac7)" d="M 3885.789474 2520 
L 3885.789474 288 
" style="fill:none;stroke:#000000;stroke-dasharray:6.000000,6.000000;stroke-dashoffset:0.0;stroke-width:0.5;"/>
     </g>
     <g id="text_31">
      <!-- eclipse -->
      <g transform="translate(3896.82697368 2663.675)rotate(-90.0)scale(0.4 -0.4)">
       <use xlink:href="#BitstreamVeraSans-Roman-65"/>
       <use x="61.5234375" xlink:href="#BitstreamVeraSans-Roman-63"/>
       <use x="116.50390625" xlink:href="#BitstreamVeraSans-Roman-6c"/>
       <use x="144.287109375" xlink:href="#BitstreamVeraSans-Roman-69"/>
       <use x="172.0703125" xlink:href="#BitstreamVeraSans-Roman-70"/>
       <use x="235.546875" xlink:href="#BitstreamVeraSans-Roman-73"/>
       <use x="287.646484375" xlink:href="#BitstreamVeraSans-Roman-65"/>
      </g>
     </g>
    </g>
    <g id="xtick_32">
     <g id="line2d_32">
      <path clip-path="url(#p05bc2faac7)" d="M 3983.684211 2520 
L 3983.684211 288 
" style="fill:none;stroke:#000000;stroke-dasharray:6.000000,6.000000;stroke-dashoffset:0.0;stroke-width:0.5;"/>
     </g>
     <g id="text_32">
      <!-- vb.net -->
      <g transform="translate(3994.72171053 2651.425)rotate(-90.0)scale(0.4 -0.4)">
       <use xlink:href="#BitstreamVeraSans-Roman-76"/>
       <use x="59.1796875" xlink:href="#BitstreamVeraSans-Roman-62"/>
       <use x="122.65625" xlink:href="#BitstreamVeraSans-Roman-2e"/>
       <use x="154.443359375" xlink:href="#BitstreamVeraSans-Roman-6e"/>
       <use x="217.822265625" xlink:href="#BitstreamVeraSans-Roman-65"/>
       <use x="279.345703125" xlink:href="#BitstreamVeraSans-Roman-74"/>
      </g>
     </g>
    </g>
    <g id="xtick_33">
     <g id="line2d_33">
      <path clip-path="url(#p05bc2faac7)" d="M 4081.578947 2520 
L 4081.578947 288 
" style="fill:none;stroke:#000000;stroke-dasharray:6.000000,6.000000;stroke-dashoffset:0.0;stroke-width:0.5;"/>
     </g>
     <g id="text_33">
      <!-- wpf -->
      <g transform="translate(4092.61644737 2596.1875)rotate(-90.0)scale(0.4 -0.4)">
       <use xlink:href="#BitstreamVeraSans-Roman-77"/>
       <use x="81.787109375" xlink:href="#BitstreamVeraSans-Roman-70"/>
       <use x="145.263671875" xlink:href="#BitstreamVeraSans-Roman-66"/>
      </g>
     </g>
    </g>
    <g id="xtick_34">
     <g id="line2d_34">
      <path clip-path="url(#p05bc2faac7)" d="M 4179.473684 2520 
L 4179.473684 288 
" style="fill:none;stroke:#000000;stroke-dasharray:6.000000,6.000000;stroke-dashoffset:0.0;stroke-width:0.5;"/>
     </g>
     <g id="text_34">
      <!-- matlab -->
      <g transform="translate(4190.51118421 2664.175)rotate(-90.0)scale(0.4 -0.4)">
       <use xlink:href="#BitstreamVeraSans-Roman-6d"/>
       <use x="97.412109375" xlink:href="#BitstreamVeraSans-Roman-61"/>
       <use x="158.69140625" xlink:href="#BitstreamVeraSans-Roman-74"/>
       <use x="197.900390625" xlink:href="#BitstreamVeraSans-Roman-6c"/>
       <use x="225.68359375" xlink:href="#BitstreamVeraSans-Roman-61"/>
       <use x="286.962890625" xlink:href="#BitstreamVeraSans-Roman-62"/>
      </g>
     </g>
    </g>
    <g id="xtick_35">
     <g id="line2d_35">
      <path clip-path="url(#p05bc2faac7)" d="M 4277.368421 2520 
L 4277.368421 288 
" style="fill:none;stroke:#000000;stroke-dasharray:6.000000,6.000000;stroke-dashoffset:0.0;stroke-width:0.5;"/>
     </g>
     <g id="text_35">
      <!-- mongodb -->
      <g transform="translate(4288.40592105 2713.44375)rotate(-90.0)scale(0.4 -0.4)">
       <use xlink:href="#BitstreamVeraSans-Roman-6d"/>
       <use x="97.412109375" xlink:href="#BitstreamVeraSans-Roman-6f"/>
       <use x="158.59375" xlink:href="#BitstreamVeraSans-Roman-6e"/>
       <use x="221.97265625" xlink:href="#BitstreamVeraSans-Roman-67"/>
       <use x="285.44921875" xlink:href="#BitstreamVeraSans-Roman-6f"/>
       <use x="346.630859375" xlink:href="#BitstreamVeraSans-Roman-64"/>
       <use x="410.107421875" xlink:href="#BitstreamVeraSans-Roman-62"/>
      </g>
     </g>
    </g>
    <g id="xtick_36">
     <g id="line2d_36">
      <path clip-path="url(#p05bc2faac7)" d="M 4375.263158 2520 
L 4375.263158 288 
" style="fill:none;stroke:#000000;stroke-dasharray:6.000000,6.000000;stroke-dashoffset:0.0;stroke-width:0.5;"/>
     </g>
     <g id="text_36">
      <!-- scala -->
      <g transform="translate(4386.30065789 2626.96875)rotate(-90.0)scale(0.4 -0.4)">
       <use xlink:href="#BitstreamVeraSans-Roman-73"/>
       <use x="52.099609375" xlink:href="#BitstreamVeraSans-Roman-63"/>
       <use x="107.080078125" xlink:href="#BitstreamVeraSans-Roman-61"/>
       <use x="168.359375" xlink:href="#BitstreamVeraSans-Roman-6c"/>
       <use x="196.142578125" xlink:href="#BitstreamVeraSans-Roman-61"/>
      </g>
     </g>
    </g>
    <g id="xtick_37">
     <g id="line2d_37">
      <path clip-path="url(#p05bc2faac7)" d="M 4473.157895 2520 
L 4473.157895 288 
" style="fill:none;stroke:#000000;stroke-dasharray:6.000000,6.000000;stroke-dashoffset:0.0;stroke-width:0.5;"/>
     </g>
     <g id="text_37">
      <!-- multithreading -->
      <g transform="translate(4484.19539474 2820.05625)rotate(-90.0)scale(0.4 -0.4)">
       <use xlink:href="#BitstreamVeraSans-Roman-6d"/>
       <use x="97.412109375" xlink:href="#BitstreamVeraSans-Roman-75"/>
       <use x="160.791015625" xlink:href="#BitstreamVeraSans-Roman-6c"/>
       <use x="188.57421875" xlink:href="#BitstreamVeraSans-Roman-74"/>
       <use x="227.783203125" xlink:href="#BitstreamVeraSans-Roman-69"/>
       <use x="255.56640625" xlink:href="#BitstreamVeraSans-Roman-74"/>
       <use x="294.775390625" xlink:href="#BitstreamVeraSans-Roman-68"/>
       <use x="358.154296875" xlink:href="#BitstreamVeraSans-Roman-72"/>
       <use x="399.236328125" xlink:href="#BitstreamVeraSans-Roman-65"/>
       <use x="460.759765625" xlink:href="#BitstreamVeraSans-Roman-61"/>
       <use x="522.0390625" xlink:href="#BitstreamVeraSans-Roman-64"/>
       <use x="585.515625" xlink:href="#BitstreamVeraSans-Roman-69"/>
       <use x="613.298828125" xlink:href="#BitstreamVeraSans-Roman-6e"/>
       <use x="676.677734375" xlink:href="#BitstreamVeraSans-Roman-67"/>
      </g>
     </g>
    </g>
    <g id="xtick_38">
     <g id="line2d_38">
      <path clip-path="url(#p05bc2faac7)" d="M 4571.052632 2520 
L 4571.052632 288 
" style="fill:none;stroke:#000000;stroke-dasharray:6.000000,6.000000;stroke-dashoffset:0.0;stroke-width:0.5;"/>
     </g>
     <g id="text_38">
      <!-- excel -->
      <g transform="translate(4582.09013158 2629.99375)rotate(-90.0)scale(0.4 -0.4)">
       <use xlink:href="#BitstreamVeraSans-Roman-65"/>
       <use x="61.5078125" xlink:href="#BitstreamVeraSans-Roman-78"/>
       <use x="120.671875" xlink:href="#BitstreamVeraSans-Roman-63"/>
       <use x="175.65234375" xlink:href="#BitstreamVeraSans-Roman-65"/>
       <use x="237.17578125" xlink:href="#BitstreamVeraSans-Roman-6c"/>
      </g>
     </g>
    </g>
    <g id="xtick_39">
     <g id="line2d_39">
      <path clip-path="url(#p05bc2faac7)" d="M 4668.947368 2520 
L 4668.947368 288 
" style="fill:none;stroke:#000000;stroke-dasharray:6.000000,6.000000;stroke-dashoffset:0.0;stroke-width:0.5;"/>
     </g>
     <g id="text_39">
      <!-- facebook -->
      <defs>
       <path d="M 9.078125 75.984375 
L 18.109375 75.984375 
L 18.109375 31.109375 
L 44.921875 54.6875 
L 56.390625 54.6875 
L 27.390625 29.109375 
L 57.625 0 
L 45.90625 0 
L 18.109375 26.703125 
L 18.109375 0 
L 9.078125 0 
z
" id="BitstreamVeraSans-Roman-6b"/>
      </defs>
      <g transform="translate(4679.98486842 2706.70625)rotate(-90.0)scale(0.4 -0.4)">
       <use xlink:href="#BitstreamVeraSans-Roman-66"/>
       <use x="35.205078125" xlink:href="#BitstreamVeraSans-Roman-61"/>
       <use x="96.484375" xlink:href="#BitstreamVeraSans-Roman-63"/>
       <use x="151.46484375" xlink:href="#BitstreamVeraSans-Roman-65"/>
       <use x="212.98828125" xlink:href="#BitstreamVeraSans-Roman-62"/>
       <use x="276.46484375" xlink:href="#BitstreamVeraSans-Roman-6f"/>
       <use x="337.646484375" xlink:href="#BitstreamVeraSans-Roman-6f"/>
       <use x="398.828125" xlink:href="#BitstreamVeraSans-Roman-6b"/>
      </g>
     </g>
    </g>
    <g id="xtick_40">
     <g id="line2d_40">
      <path clip-path="url(#p05bc2faac7)" d="M 4766.842105 2520 
L 4766.842105 288 
" style="fill:none;stroke:#000000;stroke-dasharray:6.000000,6.000000;stroke-dashoffset:0.0;stroke-width:0.5;"/>
     </g>
     <g id="text_40">
      <!-- linux -->
      <g transform="translate(4777.87960526 2620.6)rotate(-90.0)scale(0.4 -0.4)">
       <use xlink:href="#BitstreamVeraSans-Roman-6c"/>
       <use x="27.783203125" xlink:href="#BitstreamVeraSans-Roman-69"/>
       <use x="55.56640625" xlink:href="#BitstreamVeraSans-Roman-6e"/>
       <use x="118.9453125" xlink:href="#BitstreamVeraSans-Roman-75"/>
       <use x="182.32421875" xlink:href="#BitstreamVeraSans-Roman-78"/>
      </g>
     </g>
    </g>
    <g id="xtick_41">
     <g id="line2d_41">
      <path clip-path="url(#p05bc2faac7)" d="M 4864.736842 2520 
L 4864.736842 288 
" style="fill:none;stroke:#000000;stroke-dasharray:6.000000,6.000000;stroke-dashoffset:0.0;stroke-width:0.5;"/>
     </g>
     <g id="text_41">
      <!-- perl -->
      <g transform="translate(4875.77434211 2601.5625)rotate(-90.0)scale(0.4 -0.4)">
       <use xlink:href="#BitstreamVeraSans-Roman-70"/>
       <use x="63.4765625" xlink:href="#BitstreamVeraSans-Roman-65"/>
       <use x="125.0" xlink:href="#BitstreamVeraSans-Roman-72"/>
       <use x="166.11328125" xlink:href="#BitstreamVeraSans-Roman-6c"/>
      </g>
     </g>
    </g>
    <g id="xtick_42">
     <g id="line2d_42">
      <path clip-path="url(#p05bc2faac7)" d="M 4962.631579 2520 
L 4962.631579 288 
" style="fill:none;stroke:#000000;stroke-dasharray:6.000000,6.000000;stroke-dashoffset:0.0;stroke-width:0.5;"/>
     </g>
     <g id="text_42">
      <!-- spring -->
      <g transform="translate(4973.66907895 2648.53125)rotate(-90.0)scale(0.4 -0.4)">
       <use xlink:href="#BitstreamVeraSans-Roman-73"/>
       <use x="52.099609375" xlink:href="#BitstreamVeraSans-Roman-70"/>
       <use x="115.576171875" xlink:href="#BitstreamVeraSans-Roman-72"/>
       <use x="156.689453125" xlink:href="#BitstreamVeraSans-Roman-69"/>
       <use x="184.47265625" xlink:href="#BitstreamVeraSans-Roman-6e"/>
       <use x="247.8515625" xlink:href="#BitstreamVeraSans-Roman-67"/>
      </g>
     </g>
    </g>
    <g id="xtick_43">
     <g id="line2d_43">
      <path clip-path="url(#p05bc2faac7)" d="M 5060.526316 2520 
L 5060.526316 288 
" style="fill:none;stroke:#000000;stroke-dasharray:6.000000,6.000000;stroke-dashoffset:0.0;stroke-width:0.5;"/>
     </g>
     <g id="text_43">
      <!-- string -->
      <g transform="translate(5071.56381579 2638.81875)rotate(-90.0)scale(0.4 -0.4)">
       <use xlink:href="#BitstreamVeraSans-Roman-73"/>
       <use x="52.099609375" xlink:href="#BitstreamVeraSans-Roman-74"/>
       <use x="91.30859375" xlink:href="#BitstreamVeraSans-Roman-72"/>
       <use x="132.421875" xlink:href="#BitstreamVeraSans-Roman-69"/>
       <use x="160.205078125" xlink:href="#BitstreamVeraSans-Roman-6e"/>
       <use x="223.583984375" xlink:href="#BitstreamVeraSans-Roman-67"/>
      </g>
     </g>
    </g>
    <g id="xtick_44">
     <g id="line2d_44">
      <path clip-path="url(#p05bc2faac7)" d="M 5158.421053 2520 
L 5158.421053 288 
" style="fill:none;stroke:#000000;stroke-dasharray:6.000000,6.000000;stroke-dashoffset:0.0;stroke-width:0.5;"/>
     </g>
     <g id="text_44">
      <!-- xcode -->
      <g transform="translate(5169.45855263 2644.14375)rotate(-90.0)scale(0.4 -0.4)">
       <use xlink:href="#BitstreamVeraSans-Roman-78"/>
       <use x="59.1640625" xlink:href="#BitstreamVeraSans-Roman-63"/>
       <use x="114.14453125" xlink:href="#BitstreamVeraSans-Roman-6f"/>
       <use x="175.326171875" xlink:href="#BitstreamVeraSans-Roman-64"/>
       <use x="238.802734375" xlink:href="#BitstreamVeraSans-Roman-65"/>
      </g>
     </g>
    </g>
    <g id="xtick_45">
     <g id="line2d_45">
      <path clip-path="url(#p05bc2faac7)" d="M 5256.315789 2520 
L 5256.315789 288 
" style="fill:none;stroke:#000000;stroke-dasharray:6.000000,6.000000;stroke-dashoffset:0.0;stroke-width:0.5;"/>
     </g>
     <g id="text_45">
      <!-- oracle -->
      <g transform="translate(5267.35328947 2647.15)rotate(-90.0)scale(0.4 -0.4)">
       <use xlink:href="#BitstreamVeraSans-Roman-6f"/>
       <use x="61.181640625" xlink:href="#BitstreamVeraSans-Roman-72"/>
       <use x="102.294921875" xlink:href="#BitstreamVeraSans-Roman-61"/>
       <use x="163.57421875" xlink:href="#BitstreamVeraSans-Roman-63"/>
       <use x="218.5546875" xlink:href="#BitstreamVeraSans-Roman-6c"/>
       <use x="246.337890625" xlink:href="#BitstreamVeraSans-Roman-65"/>
      </g>
     </g>
    </g>
    <g id="xtick_46">
     <g id="line2d_46">
      <path clip-path="url(#p05bc2faac7)" d="M 5354.210526 2520 
L 5354.210526 288 
" style="fill:none;stroke:#000000;stroke-dasharray:6.000000,6.000000;stroke-dashoffset:0.0;stroke-width:0.5;"/>
     </g>
     <g id="text_46">
      <!-- database -->
      <g transform="translate(5365.24802632 2709.45625)rotate(-90.0)scale(0.4 -0.4)">
       <use xlink:href="#BitstreamVeraSans-Roman-64"/>
       <use x="63.4765625" xlink:href="#BitstreamVeraSans-Roman-61"/>
       <use x="124.755859375" xlink:href="#BitstreamVeraSans-Roman-74"/>
       <use x="163.96484375" xlink:href="#BitstreamVeraSans-Roman-61"/>
       <use x="225.244140625" xlink:href="#BitstreamVeraSans-Roman-62"/>
       <use x="288.720703125" xlink:href="#BitstreamVeraSans-Roman-61"/>
       <use x="350.0" xlink:href="#BitstreamVeraSans-Roman-73"/>
       <use x="402.099609375" xlink:href="#BitstreamVeraSans-Roman-65"/>
      </g>
     </g>
    </g>
    <g id="xtick_47">
     <g id="line2d_47">
      <path clip-path="url(#p05bc2faac7)" d="M 5452.105263 2520 
L 5452.105263 288 
" style="fill:none;stroke:#000000;stroke-dasharray:6.000000,6.000000;stroke-dashoffset:0.0;stroke-width:0.5;"/>
     </g>
     <g id="text_47">
      <!-- windows -->
      <g transform="translate(5463.14276316 2696.59375)rotate(-90.0)scale(0.4 -0.4)">
       <use xlink:href="#BitstreamVeraSans-Roman-77"/>
       <use x="81.787109375" xlink:href="#BitstreamVeraSans-Roman-69"/>
       <use x="109.5703125" xlink:href="#BitstreamVeraSans-Roman-6e"/>
       <use x="172.94921875" xlink:href="#BitstreamVeraSans-Roman-64"/>
       <use x="236.42578125" xlink:href="#BitstreamVeraSans-Roman-6f"/>
       <use x="297.607421875" xlink:href="#BitstreamVeraSans-Roman-77"/>
       <use x="379.39453125" xlink:href="#BitstreamVeraSans-Roman-73"/>
      </g>
     </g>
    </g>
    <g id="xtick_48">
     <g id="line2d_48">
      <path clip-path="url(#p05bc2faac7)" d="M 5550 2520 
L 5550 288 
" style="fill:none;stroke:#000000;stroke-dasharray:6.000000,6.000000;stroke-dashoffset:0.0;stroke-width:0.5;"/>
     </g>
     <g id="text_48">
      <!-- powershell -->
      <g transform="translate(5561.0375 2740.6625)rotate(-90.0)scale(0.4 -0.4)">
       <use xlink:href="#BitstreamVeraSans-Roman-70"/>
       <use x="63.4765625" xlink:href="#BitstreamVeraSans-Roman-6f"/>
       <use x="124.658203125" xlink:href="#BitstreamVeraSans-Roman-77"/>
       <use x="206.4453125" xlink:href="#BitstreamVeraSans-Roman-65"/>
       <use x="267.96875" xlink:href="#BitstreamVeraSans-Roman-72"/>
       <use x="309.08203125" xlink:href="#BitstreamVeraSans-Roman-73"/>
       <use x="361.181640625" xlink:href="#BitstreamVeraSans-Roman-68"/>
       <use x="424.560546875" xlink:href="#BitstreamVeraSans-Roman-65"/>
       <use x="486.083984375" xlink:href="#BitstreamVeraSans-Roman-6c"/>
       <use x="513.8671875" xlink:href="#BitstreamVeraSans-Roman-6c"/>
      </g>
     </g>
    </g>
    <g id="xtick_49">
     <g id="line2d_49">
      <path clip-path="url(#p05bc2faac7)" d="M 5647.894737 2520 
L 5647.894737 288 
" style="fill:none;stroke:#000000;stroke-dasharray:6.000000,6.000000;stroke-dashoffset:0.0;stroke-width:0.5;"/>
     </g>
     <g id="text_49">
      <!-- azure -->
      <defs>
       <path d="M 5.515625 54.6875 
L 48.1875 54.6875 
L 48.1875 46.484375 
L 14.40625 7.171875 
L 48.1875 7.171875 
L 48.1875 0 
L 4.296875 0 
L 4.296875 8.203125 
L 38.09375 47.515625 
L 5.515625 47.515625 
z
" id="BitstreamVeraSans-Roman-7a"/>
      </defs>
      <g transform="translate(5658.93223684 2635.9)rotate(-90.0)scale(0.4 -0.4)">
       <use xlink:href="#BitstreamVeraSans-Roman-61"/>
       <use x="61.279296875" xlink:href="#BitstreamVeraSans-Roman-7a"/>
       <use x="113.76953125" xlink:href="#BitstreamVeraSans-Roman-75"/>
       <use x="177.1484375" xlink:href="#BitstreamVeraSans-Roman-72"/>
       <use x="218.23046875" xlink:href="#BitstreamVeraSans-Roman-65"/>
      </g>
     </g>
    </g>
    <g id="xtick_50">
     <g id="line2d_50">
      <path clip-path="url(#p05bc2faac7)" d="M 5745.789474 2520 
L 5745.789474 288 
" style="fill:none;stroke:#000000;stroke-dasharray:6.000000,6.000000;stroke-dashoffset:0.0;stroke-width:0.5;"/>
     </g>
     <g id="text_50">
      <!-- excel-vba -->
      <g transform="translate(5756.82697368 2717.99375)rotate(-90.0)scale(0.4 -0.4)">
       <use xlink:href="#BitstreamVeraSans-Roman-65"/>
       <use x="61.5078125" xlink:href="#BitstreamVeraSans-Roman-78"/>
       <use x="120.671875" xlink:href="#BitstreamVeraSans-Roman-63"/>
       <use x="175.65234375" xlink:href="#BitstreamVeraSans-Roman-65"/>
       <use x="237.17578125" xlink:href="#BitstreamVeraSans-Roman-6c"/>
       <use x="264.958984375" xlink:href="#BitstreamVeraSans-Roman-2d"/>
       <use x="301.01171875" xlink:href="#BitstreamVeraSans-Roman-76"/>
       <use x="360.19140625" xlink:href="#BitstreamVeraSans-Roman-62"/>
       <use x="423.66796875" xlink:href="#BitstreamVeraSans-Roman-61"/>
      </g>
     </g>
    </g>
    <g id="xtick_51">
     <g id="line2d_51">
      <path clip-path="url(#p05bc2faac7)" d="M 5843.684211 2520 
L 5843.684211 288 
" style="fill:none;stroke:#000000;stroke-dasharray:6.000000,6.000000;stroke-dashoffset:0.0;stroke-width:0.5;"/>
     </g>
     <g id="text_51">
      <!-- vba -->
      <g transform="translate(5854.72171053 2597.58125)rotate(-90.0)scale(0.4 -0.4)">
       <use xlink:href="#BitstreamVeraSans-Roman-76"/>
       <use x="59.1796875" xlink:href="#BitstreamVeraSans-Roman-62"/>
       <use x="122.65625" xlink:href="#BitstreamVeraSans-Roman-61"/>
      </g>
     </g>
    </g>
    <g id="xtick_52">
     <g id="line2d_52">
      <path clip-path="url(#p05bc2faac7)" d="M 5941.578947 2520 
L 5941.578947 288 
" style="fill:none;stroke:#000000;stroke-dasharray:6.000000,6.000000;stroke-dashoffset:0.0;stroke-width:0.5;"/>
     </g>
     <g id="text_52">
      <!-- maven -->
      <g transform="translate(5952.61644737 2661.1125)rotate(-90.0)scale(0.4 -0.4)">
       <use xlink:href="#BitstreamVeraSans-Roman-6d"/>
       <use x="97.412109375" xlink:href="#BitstreamVeraSans-Roman-61"/>
       <use x="158.69140625" xlink:href="#BitstreamVeraSans-Roman-76"/>
       <use x="217.87109375" xlink:href="#BitstreamVeraSans-Roman-65"/>
       <use x="279.39453125" xlink:href="#BitstreamVeraSans-Roman-6e"/>
      </g>
     </g>
    </g>
    <g id="xtick_53">
     <g id="line2d_53">
      <path clip-path="url(#p05bc2faac7)" d="M 6039.473684 2520 
L 6039.473684 288 
" style="fill:none;stroke:#000000;stroke-dasharray:6.000000,6.000000;stroke-dashoffset:0.0;stroke-width:0.5;"/>
     </g>
     <g id="text_53">
      <!-- (562) -->
      <defs>
       <path d="M 33.015625 40.375 
Q 26.375 40.375 22.484375 35.828125 
Q 18.609375 31.296875 18.609375 23.390625 
Q 18.609375 15.53125 22.484375 10.953125 
Q 26.375 6.390625 33.015625 6.390625 
Q 39.65625 6.390625 43.53125 10.953125 
Q 47.40625 15.53125 47.40625 23.390625 
Q 47.40625 31.296875 43.53125 35.828125 
Q 39.65625 40.375 33.015625 40.375 
M 52.59375 71.296875 
L 52.59375 62.3125 
Q 48.875 64.0625 45.09375 64.984375 
Q 41.3125 65.921875 37.59375 65.921875 
Q 27.828125 65.921875 22.671875 59.328125 
Q 17.53125 52.734375 16.796875 39.40625 
Q 19.671875 43.65625 24.015625 45.921875 
Q 28.375 48.1875 33.59375 48.1875 
Q 44.578125 48.1875 50.953125 41.515625 
Q 57.328125 34.859375 57.328125 23.390625 
Q 57.328125 12.15625 50.6875 5.359375 
Q 44.046875 -1.421875 33.015625 -1.421875 
Q 20.359375 -1.421875 13.671875 8.265625 
Q 6.984375 17.96875 6.984375 36.375 
Q 6.984375 53.65625 15.1875 63.9375 
Q 23.390625 74.21875 37.203125 74.21875 
Q 40.921875 74.21875 44.703125 73.484375 
Q 48.484375 72.75 52.59375 71.296875 
" id="BitstreamVeraSans-Roman-36"/>
       <path d="M 19.1875 8.296875 
L 53.609375 8.296875 
L 53.609375 0 
L 7.328125 0 
L 7.328125 8.296875 
Q 12.9375 14.109375 22.625 23.890625 
Q 32.328125 33.6875 34.8125 36.53125 
Q 39.546875 41.84375 41.421875 45.53125 
Q 43.3125 49.21875 43.3125 52.78125 
Q 43.3125 58.59375 39.234375 62.25 
Q 35.15625 65.921875 28.609375 65.921875 
Q 23.96875 65.921875 18.8125 64.3125 
Q 13.671875 62.703125 7.8125 59.421875 
L 7.8125 69.390625 
Q 13.765625 71.78125 18.9375 73 
Q 24.125 74.21875 28.421875 74.21875 
Q 39.75 74.21875 46.484375 68.546875 
Q 53.21875 62.890625 53.21875 53.421875 
Q 53.21875 48.921875 51.53125 44.890625 
Q 49.859375 40.875 45.40625 35.40625 
Q 44.1875 33.984375 37.640625 27.21875 
Q 31.109375 20.453125 19.1875 8.296875 
" id="BitstreamVeraSans-Roman-32"/>
       <path d="M 8.015625 75.875 
L 15.828125 75.875 
Q 23.140625 64.359375 26.78125 53.3125 
Q 30.421875 42.28125 30.421875 31.390625 
Q 30.421875 20.453125 26.78125 9.375 
Q 23.140625 -1.703125 15.828125 -13.1875 
L 8.015625 -13.1875 
Q 14.5 -2 17.703125 9.0625 
Q 20.90625 20.125 20.90625 31.390625 
Q 20.90625 42.671875 17.703125 53.65625 
Q 14.5 64.65625 8.015625 75.875 
" id="BitstreamVeraSans-Roman-29"/>
       <path d="M 31 75.875 
Q 24.46875 64.65625 21.28125 53.65625 
Q 18.109375 42.671875 18.109375 31.390625 
Q 18.109375 20.125 21.3125 9.0625 
Q 24.515625 -2 31 -13.1875 
L 23.1875 -13.1875 
Q 15.875 -1.703125 12.234375 9.375 
Q 8.59375 20.453125 8.59375 31.390625 
Q 8.59375 42.28125 12.203125 53.3125 
Q 15.828125 64.359375 23.1875 75.875 
z
" id="BitstreamVeraSans-Roman-28"/>
       <path d="M 10.796875 72.90625 
L 49.515625 72.90625 
L 49.515625 64.59375 
L 19.828125 64.59375 
L 19.828125 46.734375 
Q 21.96875 47.46875 24.109375 47.828125 
Q 26.265625 48.1875 28.421875 48.1875 
Q 40.625 48.1875 47.75 41.5 
Q 54.890625 34.8125 54.890625 23.390625 
Q 54.890625 11.625 47.5625 5.09375 
Q 40.234375 -1.421875 26.90625 -1.421875 
Q 22.3125 -1.421875 17.546875 -0.640625 
Q 12.796875 0.140625 7.71875 1.703125 
L 7.71875 11.625 
Q 12.109375 9.234375 16.796875 8.0625 
Q 21.484375 6.890625 26.703125 6.890625 
Q 35.15625 6.890625 40.078125 11.328125 
Q 45.015625 15.765625 45.015625 23.390625 
Q 45.015625 31 40.078125 35.4375 
Q 35.15625 39.890625 26.703125 39.890625 
Q 22.75 39.890625 18.8125 39.015625 
Q 14.890625 38.140625 10.796875 36.28125 
z
" id="BitstreamVeraSans-Roman-35"/>
      </defs>
      <g transform="translate(6050.51118421 2631.5625)rotate(-90.0)scale(0.4 -0.4)">
       <use xlink:href="#BitstreamVeraSans-Roman-28"/>
       <use x="39.013671875" xlink:href="#BitstreamVeraSans-Roman-35"/>
       <use x="102.63671875" xlink:href="#BitstreamVeraSans-Roman-36"/>
       <use x="166.259765625" xlink:href="#BitstreamVeraSans-Roman-32"/>
       <use x="229.8828125" xlink:href="#BitstreamVeraSans-Roman-29"/>
      </g>
     </g>
    </g>
    <g id="xtick_54">
     <g id="line2d_54">
      <path clip-path="url(#p05bc2faac7)" d="M 6137.368421 2520 
L 6137.368421 288 
" style="fill:none;stroke:#000000;stroke-dasharray:6.000000,6.000000;stroke-dashoffset:0.0;stroke-width:0.5;"/>
     </g>
     <g id="text_54">
      <!-- .net -->
      <g transform="translate(6148.40592105 2602.35625)rotate(-90.0)scale(0.4 -0.4)">
       <use xlink:href="#BitstreamVeraSans-Roman-2e"/>
       <use x="31.787109375" xlink:href="#BitstreamVeraSans-Roman-6e"/>
       <use x="95.166015625" xlink:href="#BitstreamVeraSans-Roman-65"/>
       <use x="156.689453125" xlink:href="#BitstreamVeraSans-Roman-74"/>
      </g>
     </g>
    </g>
    <g id="xtick_55">
     <g id="line2d_55">
      <path clip-path="url(#p05bc2faac7)" d="M 6235.263158 2520 
L 6235.263158 288 
" style="fill:none;stroke:#000000;stroke-dasharray:6.000000,6.000000;stroke-dashoffset:0.0;stroke-width:0.5;"/>
     </g>
     <g id="text_55">
      <!-- asp.net-mvc -->
      <g transform="translate(6246.30065789 2772.1625)rotate(-90.0)scale(0.4 -0.4)">
       <use xlink:href="#BitstreamVeraSans-Roman-61"/>
       <use x="61.279296875" xlink:href="#BitstreamVeraSans-Roman-73"/>
       <use x="113.37890625" xlink:href="#BitstreamVeraSans-Roman-70"/>
       <use x="176.85546875" xlink:href="#BitstreamVeraSans-Roman-2e"/>
       <use x="208.642578125" xlink:href="#BitstreamVeraSans-Roman-6e"/>
       <use x="272.021484375" xlink:href="#BitstreamVeraSans-Roman-65"/>
       <use x="333.544921875" xlink:href="#BitstreamVeraSans-Roman-74"/>
       <use x="372.75390625" xlink:href="#BitstreamVeraSans-Roman-2d"/>
       <use x="408.837890625" xlink:href="#BitstreamVeraSans-Roman-6d"/>
       <use x="506.25" xlink:href="#BitstreamVeraSans-Roman-76"/>
       <use x="565.4296875" xlink:href="#BitstreamVeraSans-Roman-63"/>
      </g>
     </g>
    </g>
    <g id="xtick_56">
     <g id="line2d_56">
      <path clip-path="url(#p05bc2faac7)" d="M 6333.157895 2520 
L 6333.157895 288 
" style="fill:none;stroke:#000000;stroke-dasharray:6.000000,6.000000;stroke-dashoffset:0.0;stroke-width:0.5;"/>
     </g>
     <g id="text_56">
      <!-- c# -->
      <defs>
       <path d="M 51.125 44 
L 36.921875 44 
L 32.8125 27.6875 
L 47.125 27.6875 
z
M 43.796875 71.78125 
L 38.71875 51.515625 
L 52.984375 51.515625 
L 58.109375 71.78125 
L 65.921875 71.78125 
L 60.890625 51.515625 
L 76.125 51.515625 
L 76.125 44 
L 58.984375 44 
L 54.984375 27.6875 
L 70.515625 27.6875 
L 70.515625 20.21875 
L 53.078125 20.21875 
L 48 0 
L 40.1875 0 
L 45.21875 20.21875 
L 30.90625 20.21875 
L 25.875 0 
L 18.015625 0 
L 23.09375 20.21875 
L 7.71875 20.21875 
L 7.71875 27.6875 
L 24.90625 27.6875 
L 29 44 
L 13.28125 44 
L 13.28125 51.515625 
L 30.90625 51.515625 
L 35.890625 71.78125 
z
" id="BitstreamVeraSans-Roman-23"/>
      </defs>
      <g transform="translate(6344.19539474 2579.5125)rotate(-90.0)scale(0.4 -0.4)">
       <use xlink:href="#BitstreamVeraSans-Roman-63"/>
       <use x="54.98046875" xlink:href="#BitstreamVeraSans-Roman-23"/>
      </g>
     </g>
    </g>
    <g id="xtick_57">
     <g id="line2d_57">
      <path clip-path="url(#p05bc2faac7)" d="M 6431.052632 2520 
L 6431.052632 288 
" style="fill:none;stroke:#000000;stroke-dasharray:6.000000,6.000000;stroke-dashoffset:0.0;stroke-width:0.5;"/>
     </g>
     <g id="text_57">
      <!-- java -->
      <g transform="translate(6442.09013158 2607.8125)rotate(-90.0)scale(0.4 -0.4)">
       <use xlink:href="#BitstreamVeraSans-Roman-6a"/>
       <use x="27.783203125" xlink:href="#BitstreamVeraSans-Roman-61"/>
       <use x="89.0625" xlink:href="#BitstreamVeraSans-Roman-76"/>
       <use x="148.2421875" xlink:href="#BitstreamVeraSans-Roman-61"/>
      </g>
     </g>
    </g>
   </g>
   <g id="matplotlib.axis_2">
    <g id="ytick_1">
     <g id="line2d_58">
      <path clip-path="url(#p05bc2faac7)" d="M 900 2520 
L 6480 2520 
" style="fill:none;stroke:#000000;stroke-dasharray:6.000000,6.000000;stroke-dashoffset:0.0;stroke-width:0.5;"/>
     </g>
     <g id="line2d_59">
      <defs>
       <path d="M 0 0 
L 4 0 
" id="mb147ef0a42" style="stroke:#000000;stroke-width:0.5;"/>
      </defs>
      <g>
       <use style="stroke:#000000;stroke-width:0.5;" x="900.0" xlink:href="#mb147ef0a42" y="2520.0"/>
      </g>
     </g>
     <g id="line2d_60">
      <defs>
       <path d="M 0 0 
L -4 0 
" id="m8badd98b79" style="stroke:#000000;stroke-width:0.5;"/>
      </defs>
      <g>
       <use style="stroke:#000000;stroke-width:0.5;" x="6480.0" xlink:href="#m8badd98b79" y="2520.0"/>
      </g>
     </g>
     <g id="text_58">
      <!-- 0 -->
      <defs>
       <path d="M 31.78125 66.40625 
Q 24.171875 66.40625 20.328125 58.90625 
Q 16.5 51.421875 16.5 36.375 
Q 16.5 21.390625 20.328125 13.890625 
Q 24.171875 6.390625 31.78125 6.390625 
Q 39.453125 6.390625 43.28125 13.890625 
Q 47.125 21.390625 47.125 36.375 
Q 47.125 51.421875 43.28125 58.90625 
Q 39.453125 66.40625 31.78125 66.40625 
M 31.78125 74.21875 
Q 44.046875 74.21875 50.515625 64.515625 
Q 56.984375 54.828125 56.984375 36.375 
Q 56.984375 17.96875 50.515625 8.265625 
Q 44.046875 -1.421875 31.78125 -1.421875 
Q 19.53125 -1.421875 13.0625 8.265625 
Q 6.59375 17.96875 6.59375 36.375 
Q 6.59375 54.828125 13.0625 64.515625 
Q 19.53125 74.21875 31.78125 74.21875 
" id="BitstreamVeraSans-Roman-30"/>
      </defs>
      <g transform="translate(870.55 2531.0375)scale(0.4 -0.4)">
       <use xlink:href="#BitstreamVeraSans-Roman-30"/>
      </g>
     </g>
    </g>
    <g id="ytick_2">
     <g id="line2d_61">
      <path clip-path="url(#p05bc2faac7)" d="M 900 2260.653751 
L 6480 2260.653751 
" style="fill:none;stroke:#000000;stroke-dasharray:6.000000,6.000000;stroke-dashoffset:0.0;stroke-width:0.5;"/>
     </g>
     <g id="line2d_62">
      <g>
       <use style="stroke:#000000;stroke-width:0.5;" x="900.0" xlink:href="#mb147ef0a42" y="2260.65375078"/>
      </g>
     </g>
     <g id="line2d_63">
      <g>
       <use style="stroke:#000000;stroke-width:0.5;" x="6480.0" xlink:href="#m8badd98b79" y="2260.65375078"/>
      </g>
     </g>
     <g id="text_59">
      <!-- 200 -->
      <g transform="translate(819.65 2271.69125078)scale(0.4 -0.4)">
       <use xlink:href="#BitstreamVeraSans-Roman-32"/>
       <use x="63.623046875" xlink:href="#BitstreamVeraSans-Roman-30"/>
       <use x="127.24609375" xlink:href="#BitstreamVeraSans-Roman-30"/>
      </g>
     </g>
    </g>
    <g id="ytick_3">
     <g id="line2d_64">
      <path clip-path="url(#p05bc2faac7)" d="M 900 2001.307502 
L 6480 2001.307502 
" style="fill:none;stroke:#000000;stroke-dasharray:6.000000,6.000000;stroke-dashoffset:0.0;stroke-width:0.5;"/>
     </g>
     <g id="line2d_65">
      <g>
       <use style="stroke:#000000;stroke-width:0.5;" x="900.0" xlink:href="#mb147ef0a42" y="2001.30750156"/>
      </g>
     </g>
     <g id="line2d_66">
      <g>
       <use style="stroke:#000000;stroke-width:0.5;" x="6480.0" xlink:href="#m8badd98b79" y="2001.30750156"/>
      </g>
     </g>
     <g id="text_60">
      <!-- 400 -->
      <defs>
       <path d="M 37.796875 64.3125 
L 12.890625 25.390625 
L 37.796875 25.390625 
z
M 35.203125 72.90625 
L 47.609375 72.90625 
L 47.609375 25.390625 
L 58.015625 25.390625 
L 58.015625 17.1875 
L 47.609375 17.1875 
L 47.609375 0 
L 37.796875 0 
L 37.796875 17.1875 
L 4.890625 17.1875 
L 4.890625 26.703125 
z
" id="BitstreamVeraSans-Roman-34"/>
      </defs>
      <g transform="translate(819.65 2012.34500156)scale(0.4 -0.4)">
       <use xlink:href="#BitstreamVeraSans-Roman-34"/>
       <use x="63.623046875" xlink:href="#BitstreamVeraSans-Roman-30"/>
       <use x="127.24609375" xlink:href="#BitstreamVeraSans-Roman-30"/>
      </g>
     </g>
    </g>
    <g id="ytick_4">
     <g id="line2d_67">
      <path clip-path="url(#p05bc2faac7)" d="M 900 1741.961252 
L 6480 1741.961252 
" style="fill:none;stroke:#000000;stroke-dasharray:6.000000,6.000000;stroke-dashoffset:0.0;stroke-width:0.5;"/>
     </g>
     <g id="line2d_68">
      <g>
       <use style="stroke:#000000;stroke-width:0.5;" x="900.0" xlink:href="#mb147ef0a42" y="1741.96125234"/>
      </g>
     </g>
     <g id="line2d_69">
      <g>
       <use style="stroke:#000000;stroke-width:0.5;" x="6480.0" xlink:href="#m8badd98b79" y="1741.96125234"/>
      </g>
     </g>
     <g id="text_61">
      <!-- 600 -->
      <g transform="translate(819.65 1752.99875234)scale(0.4 -0.4)">
       <use xlink:href="#BitstreamVeraSans-Roman-36"/>
       <use x="63.623046875" xlink:href="#BitstreamVeraSans-Roman-30"/>
       <use x="127.24609375" xlink:href="#BitstreamVeraSans-Roman-30"/>
      </g>
     </g>
    </g>
    <g id="ytick_5">
     <g id="line2d_70">
      <path clip-path="url(#p05bc2faac7)" d="M 900 1482.615003 
L 6480 1482.615003 
" style="fill:none;stroke:#000000;stroke-dasharray:6.000000,6.000000;stroke-dashoffset:0.0;stroke-width:0.5;"/>
     </g>
     <g id="line2d_71">
      <g>
       <use style="stroke:#000000;stroke-width:0.5;" x="900.0" xlink:href="#mb147ef0a42" y="1482.61500312"/>
      </g>
     </g>
     <g id="line2d_72">
      <g>
       <use style="stroke:#000000;stroke-width:0.5;" x="6480.0" xlink:href="#m8badd98b79" y="1482.61500312"/>
      </g>
     </g>
     <g id="text_62">
      <!-- 800 -->
      <defs>
       <path d="M 31.78125 34.625 
Q 24.75 34.625 20.71875 30.859375 
Q 16.703125 27.09375 16.703125 20.515625 
Q 16.703125 13.921875 20.71875 10.15625 
Q 24.75 6.390625 31.78125 6.390625 
Q 38.8125 6.390625 42.859375 10.171875 
Q 46.921875 13.96875 46.921875 20.515625 
Q 46.921875 27.09375 42.890625 30.859375 
Q 38.875 34.625 31.78125 34.625 
M 21.921875 38.8125 
Q 15.578125 40.375 12.03125 44.71875 
Q 8.5 49.078125 8.5 55.328125 
Q 8.5 64.0625 14.71875 69.140625 
Q 20.953125 74.21875 31.78125 74.21875 
Q 42.671875 74.21875 48.875 69.140625 
Q 55.078125 64.0625 55.078125 55.328125 
Q 55.078125 49.078125 51.53125 44.71875 
Q 48 40.375 41.703125 38.8125 
Q 48.828125 37.15625 52.796875 32.3125 
Q 56.78125 27.484375 56.78125 20.515625 
Q 56.78125 9.90625 50.3125 4.234375 
Q 43.84375 -1.421875 31.78125 -1.421875 
Q 19.734375 -1.421875 13.25 4.234375 
Q 6.78125 9.90625 6.78125 20.515625 
Q 6.78125 27.484375 10.78125 32.3125 
Q 14.796875 37.15625 21.921875 38.8125 
M 18.3125 54.390625 
Q 18.3125 48.734375 21.84375 45.5625 
Q 25.390625 42.390625 31.78125 42.390625 
Q 38.140625 42.390625 41.71875 45.5625 
Q 45.3125 48.734375 45.3125 54.390625 
Q 45.3125 60.0625 41.71875 63.234375 
Q 38.140625 66.40625 31.78125 66.40625 
Q 25.390625 66.40625 21.84375 63.234375 
Q 18.3125 60.0625 18.3125 54.390625 
" id="BitstreamVeraSans-Roman-38"/>
      </defs>
      <g transform="translate(819.65 1493.65250312)scale(0.4 -0.4)">
       <use xlink:href="#BitstreamVeraSans-Roman-38"/>
       <use x="63.623046875" xlink:href="#BitstreamVeraSans-Roman-30"/>
       <use x="127.24609375" xlink:href="#BitstreamVeraSans-Roman-30"/>
      </g>
     </g>
    </g>
    <g id="ytick_6">
     <g id="line2d_73">
      <path clip-path="url(#p05bc2faac7)" d="M 900 1223.268754 
L 6480 1223.268754 
" style="fill:none;stroke:#000000;stroke-dasharray:6.000000,6.000000;stroke-dashoffset:0.0;stroke-width:0.5;"/>
     </g>
     <g id="line2d_74">
      <g>
       <use style="stroke:#000000;stroke-width:0.5;" x="900.0" xlink:href="#mb147ef0a42" y="1223.2687539"/>
      </g>
     </g>
     <g id="line2d_75">
      <g>
       <use style="stroke:#000000;stroke-width:0.5;" x="6480.0" xlink:href="#m8badd98b79" y="1223.2687539"/>
      </g>
     </g>
     <g id="text_63">
      <!-- 1000 -->
      <defs>
       <path d="M 12.40625 8.296875 
L 28.515625 8.296875 
L 28.515625 63.921875 
L 10.984375 60.40625 
L 10.984375 69.390625 
L 28.421875 72.90625 
L 38.28125 72.90625 
L 38.28125 8.296875 
L 54.390625 8.296875 
L 54.390625 0 
L 12.40625 0 
z
" id="BitstreamVeraSans-Roman-31"/>
      </defs>
      <g transform="translate(794.2 1234.3062539)scale(0.4 -0.4)">
       <use xlink:href="#BitstreamVeraSans-Roman-31"/>
       <use x="63.623046875" xlink:href="#BitstreamVeraSans-Roman-30"/>
       <use x="127.24609375" xlink:href="#BitstreamVeraSans-Roman-30"/>
       <use x="190.869140625" xlink:href="#BitstreamVeraSans-Roman-30"/>
      </g>
     </g>
    </g>
    <g id="ytick_7">
     <g id="line2d_76">
      <path clip-path="url(#p05bc2faac7)" d="M 900 963.922505 
L 6480 963.922505 
" style="fill:none;stroke:#000000;stroke-dasharray:6.000000,6.000000;stroke-dashoffset:0.0;stroke-width:0.5;"/>
     </g>
     <g id="line2d_77">
      <g>
       <use style="stroke:#000000;stroke-width:0.5;" x="900.0" xlink:href="#mb147ef0a42" y="963.922504684"/>
      </g>
     </g>
     <g id="line2d_78">
      <g>
       <use style="stroke:#000000;stroke-width:0.5;" x="6480.0" xlink:href="#m8badd98b79" y="963.922504684"/>
      </g>
     </g>
     <g id="text_64">
      <!-- 1200 -->
      <g transform="translate(794.2 974.960004684)scale(0.4 -0.4)">
       <use xlink:href="#BitstreamVeraSans-Roman-31"/>
       <use x="63.623046875" xlink:href="#BitstreamVeraSans-Roman-32"/>
       <use x="127.24609375" xlink:href="#BitstreamVeraSans-Roman-30"/>
       <use x="190.869140625" xlink:href="#BitstreamVeraSans-Roman-30"/>
      </g>
     </g>
    </g>
    <g id="ytick_8">
     <g id="line2d_79">
      <path clip-path="url(#p05bc2faac7)" d="M 900 704.576255 
L 6480 704.576255 
" style="fill:none;stroke:#000000;stroke-dasharray:6.000000,6.000000;stroke-dashoffset:0.0;stroke-width:0.5;"/>
     </g>
     <g id="line2d_80">
      <g>
       <use style="stroke:#000000;stroke-width:0.5;" x="900.0" xlink:href="#mb147ef0a42" y="704.576255464"/>
      </g>
     </g>
     <g id="line2d_81">
      <g>
       <use style="stroke:#000000;stroke-width:0.5;" x="6480.0" xlink:href="#m8badd98b79" y="704.576255464"/>
      </g>
     </g>
     <g id="text_65">
      <!-- 1400 -->
      <g transform="translate(794.2 715.613755464)scale(0.4 -0.4)">
       <use xlink:href="#BitstreamVeraSans-Roman-31"/>
       <use x="63.623046875" xlink:href="#BitstreamVeraSans-Roman-34"/>
       <use x="127.24609375" xlink:href="#BitstreamVeraSans-Roman-30"/>
       <use x="190.869140625" xlink:href="#BitstreamVeraSans-Roman-30"/>
      </g>
     </g>
    </g>
    <g id="ytick_9">
     <g id="line2d_82">
      <path clip-path="url(#p05bc2faac7)" d="M 900 445.230006 
L 6480 445.230006 
" style="fill:none;stroke:#000000;stroke-dasharray:6.000000,6.000000;stroke-dashoffset:0.0;stroke-width:0.5;"/>
     </g>
     <g id="line2d_83">
      <g>
       <use style="stroke:#000000;stroke-width:0.5;" x="900.0" xlink:href="#mb147ef0a42" y="445.230006245"/>
      </g>
     </g>
     <g id="line2d_84">
      <g>
       <use style="stroke:#000000;stroke-width:0.5;" x="6480.0" xlink:href="#m8badd98b79" y="445.230006245"/>
      </g>
     </g>
     <g id="text_66">
      <!-- 1600 -->
      <g transform="translate(794.2 456.267506245)scale(0.4 -0.4)">
       <use xlink:href="#BitstreamVeraSans-Roman-31"/>
       <use x="63.623046875" xlink:href="#BitstreamVeraSans-Roman-36"/>
       <use x="127.24609375" xlink:href="#BitstreamVeraSans-Roman-30"/>
       <use x="190.869140625" xlink:href="#BitstreamVeraSans-Roman-30"/>
      </g>
     </g>
    </g>
   </g>
  </g>
 </g>
 <defs>
  <clipPath id="p05bc2faac7">
   <rect height="2232.0" width="5580.0" x="900.0" y="288.0"/>
  </clipPath>
 </defs>
</svg>
